<svg width="512" height="512" viewBox="0 0 512 512" fill="none" xmlns="http://www.w3.org/2000/svg">
<path d="M452.541 200.121C456.53 204.561 460.114 209.178 463.041 214.348C466.677 220.769 469.283 227.577 470.15 235.28C470.183 235.699 470.189 235.916 470.224 236.295C470.238 237.873 470.211 239.29 470.226 240.706C470.325 249.859 468.755 258.761 466.666 267.583C465.978 270.488 465.238 273.378 464.521 276.473C464.455 276.723 464.391 276.775 464.331 276.957C464.253 277.337 464.171 277.587 464.075 278.036C464.06 278.235 463.857 278.332 463.892 278.445C463.831 278.828 463.735 279.099 463.617 279.586C463.596 279.802 463.388 279.84 463.446 279.934C463.226 280.957 462.948 281.886 462.655 283.023C462.64 283.23 462.441 283.359 462.456 283.482C461.298 287.414 460.125 291.223 458.916 295.222C458.881 295.411 458.675 295.415 458.738 295.502C458.692 295.871 458.582 296.152 458.441 296.661C458.41 296.888 458.201 296.923 458.253 297.021C457.578 299.266 456.852 301.412 456.089 303.748C456.052 303.937 455.844 303.955 455.903 304.047C455.853 304.409 455.746 304.679 455.608 305.167C455.578 305.385 455.37 305.462 455.404 305.574C455.032 306.789 454.626 307.892 454.191 309.186C454.162 309.377 453.96 309.464 454.013 309.565C453.647 310.785 453.229 311.903 452.78 313.217C452.75 313.411 452.546 313.482 452.607 313.576C452.244 314.795 451.82 315.92 451.366 317.24C451.337 317.436 451.132 317.5 451.196 317.591C451.15 317.959 451.041 318.237 450.898 318.739C450.865 318.962 450.655 319.024 450.695 319.132C449.855 321.602 448.833 323.908 448.183 326.572C448.021 328.206 447.173 329.355 446.818 330.634C447.499 329.533 447.757 328.079 448.913 327.014C450.724 324.493 452.118 321.902 453.412 319.226C454.547 316.877 455.912 314.649 457.23 312.403C463.319 302.023 469.92 292.019 477.307 282.644C484.443 273.586 492.345 265.376 501.889 259.155C503.089 258.373 504.355 257.679 505.651 257.101C508.453 255.852 510.093 256.686 511.149 259.724C511.824 261.666 511.603 263.685 511.698 265.91C511.696 266.356 511.678 266.573 511.669 266.955C510.992 271.579 510.223 276.018 508.847 280.505C508.77 280.75 508.704 280.801 508.635 280.983C508.245 282.207 507.858 283.301 507.452 284.586C507.433 284.777 507.226 284.872 507.248 284.989C506.568 286.902 505.865 288.696 505.121 290.674C505.08 290.857 504.868 290.903 504.905 291.011C503.095 295.338 501.192 299.527 498.999 303.761C498.95 303.935 498.734 303.977 498.751 304.093C498.236 305.172 497.703 306.135 497.117 307.273C497.064 307.448 496.845 307.498 496.853 307.617C496.179 308.882 495.499 310.029 494.76 311.347C494.703 311.518 494.49 311.517 494.514 311.628C493.219 313.88 491.899 316.022 490.522 318.328C490.464 318.493 490.242 318.555 490.237 318.677C490.035 319.087 489.838 319.375 489.581 319.83C489.52 319.996 489.298 320.064 489.287 320.187C488.619 321.312 487.962 322.313 487.209 323.466C487.113 323.618 486.924 323.607 486.961 323.699C486.31 324.774 485.621 325.756 484.868 326.903C484.804 327.07 484.583 327.098 484.584 327.216C484.24 327.822 483.894 328.308 483.449 328.945C483.349 329.094 483.15 329.134 483.154 329.241C478.912 335.132 474.475 340.743 469.765 346.319C468.711 348.229 467.392 349.647 465.682 350.896C463.677 353.03 461.785 355.048 459.812 357.202C458.789 358.743 457.704 359.985 456.139 360.936C454.966 361.723 454.191 362.73 453.215 363.73C452.988 364.479 452.45 364.598 451.908 364.962C447.135 369.006 442.712 373.249 437.968 377.082C432.474 381.522 426.889 385.813 420.869 389.731C419.223 389.58 418.054 390.734 416.641 390.851C415.741 390.926 414.634 391.588 414.043 390.512C413.449 389.429 414.537 388.752 415.055 387.958C419.472 381.184 425.51 376.265 431.632 371.43C434.764 368.957 437.062 365.665 439.263 362.292C440.221 360.825 440.598 359.22 440.011 357.536C438.913 354.39 438.236 351.13 437.498 347.882C436.652 344.16 434.695 341.176 431.893 338.845C429.887 337.176 428.939 334.946 427.973 332.486C425.58 326.39 425.053 320.131 425.134 313.619C425.172 310.494 424.959 307.279 424.496 304.14C424.346 303.126 424.511 302.148 424.611 301.149C424.783 299.44 425.045 297.706 424.118 295.873C423.627 299.752 419.656 300.338 418.284 303.386C417.604 304.896 415.94 303.34 415.135 304.136C414.429 304.836 415.163 306.536 413.747 307.027C413.283 307.188 412.835 307.256 412.244 306.908C412.532 303.705 413.689 300.853 414.473 297.89C416.496 290.248 419.414 282.961 422.315 275.662C426.937 264.033 432.791 253.054 437.893 241.681C439.497 238.107 440.898 234.429 442.373 230.61C442.422 230.372 442.49 230.322 442.585 230.145C442.821 229.438 443.029 228.859 443.267 228.094C443.364 227.86 443.432 227.812 443.521 227.637C443.636 227.286 443.73 227.063 443.803 226.651C443.846 226.393 443.91 226.322 444.028 226.116C445.089 224.278 445.284 222.265 445.941 220.426C447.097 217.192 448.319 213.965 449.181 210.638C450.05 207.283 451.224 204.011 451.775 200.352C451.991 200.107 452.191 200.088 452.541 200.121Z" fill="#65BDFF"/>
<path d="M143.102 123.985C141.05 126.425 138.96 128.65 136.864 130.876C134.116 133.795 131.62 136.978 129.308 140.31C127.933 142.291 126.348 144.116 125.174 146.453C122.826 147.079 124.295 144.701 123.029 143.957C120.507 147.089 116.864 148.965 114.037 151.954C112.366 153.72 110.743 155.538 109.035 157.261C106.287 160.032 103.337 162.457 99.6848 163.826C94.1404 165.905 89.3361 169.379 84.8113 173.29C79.4266 177.944 73.4304 181.575 67.4478 185.228C64.727 186.889 61.9363 188.419 59.3562 190.331C57.8021 191.482 56.1451 192.497 54.3855 193.159C49.0241 195.176 44.5242 198.977 39.2919 201.255C37.9687 201.831 36.7517 202.537 35.26 202.218C33.2131 201.781 31.6147 203.516 29.5321 203.452C30.3669 200.991 31.8662 198.984 33.132 196.608C33.2136 196.438 33.3459 196.57 33.2645 196.528C37.0599 190.194 41.1287 184.042 45.4544 178.097C48.8091 173.487 52.2928 168.98 55.9319 164.61C60.6211 158.978 65.4105 153.45 70.5021 148.232C78.4672 140.071 86.652 132.184 95.413 124.972C112.181 111.168 129.968 99.1165 148.949 89.08C174.862 75.3784 202.094 65.9906 230.576 60.6049C255.277 55.9339 280.16 54.5646 305.193 55.4109C316.874 55.8058 328.232 58.3856 339.602 60.9299C342.904 61.6688 346.2 62.4754 349.532 63.0184C355.312 63.9602 360.848 65.7693 366.305 67.9275C372.485 70.3719 378.691 72.744 384.844 75.2641C388.366 76.7067 391.676 78.6502 394.91 80.7228C395.561 81.1399 396.177 81.6183 396.9 82.1334C396.137 82.6208 395.683 82.172 395.21 81.9961C388.615 79.5414 382.216 76.5155 375.542 74.294C372.998 73.447 370.431 72.6134 367.82 72.0686C358.192 70.0596 348.81 66.8452 339.065 65.4333C332.688 64.5094 326.311 63.5762 319.919 62.7882C316.075 62.3145 312.23 62.8848 308.403 63.3027C301.532 64.0532 294.669 64.8848 287.802 65.6735C278.658 66.7237 269.575 68.1291 260.78 71.1168C256.324 72.6305 251.69 72.9396 247.105 73.581C231.312 75.7904 215.987 79.9713 201.084 85.9295C183.532 92.9469 167.207 102.278 152.729 115.092C150.346 117.201 147.812 119.112 145.718 121.582C145.158 122.244 144.194 122.423 143.579 123.334C143.356 123.582 143.241 123.71 143.102 123.985Z" fill="#6E53CE"/>
<path d="M240.964 121.972C241.426 121.419 241.834 121.001 242.372 120.524C242.616 120.407 242.729 120.349 242.986 120.419C243.603 121.678 242.958 122.463 242.381 123.26C240.825 125.408 238.798 127.245 238.993 130.414C239.058 131.466 238.034 132.28 237.431 133.155C236.287 134.816 235.267 136.463 236.605 138.617C237.146 139.488 236.907 140.582 236.588 141.546C236.139 142.9 236.45 143.804 237.778 144.284C242.132 145.859 246.645 146.366 251.2 146.565C251.938 146.597 252.572 146.137 253.056 145.58C255.072 143.263 257.396 141.173 258.16 137.904C258.483 136.523 259.407 135.638 260.413 134.789C263.972 131.784 268.16 130.051 272.225 128.063C277.152 125.655 282.249 123.464 287.482 122.323C290.991 121.558 294.257 118.985 298.126 120.096C298.731 120.27 299.37 119.906 299.903 119.544C302.236 117.961 304.864 117.53 307.54 117.275C308.089 117.223 308.688 117.258 309.153 116.964C312.086 115.103 315.147 115.819 318.298 116.059C321.216 116.281 324.205 115.883 327.162 115.653C331.402 115.324 335.502 113.632 339.721 113.857C344.505 114.113 348.703 112.774 352.693 110.219C354.312 109.181 355.997 108.291 357.741 107.519C359.824 106.597 361.562 105.228 362.737 103.121C363.497 101.76 364.548 100.841 366.102 100.676C367.117 100.568 367.302 99.9563 367.124 98.9066C366.691 96.3544 365.384 94.2652 364.153 92.1373C363.612 91.2027 363.03 90.315 362.91 89.1971C362.79 88.0928 362.927 87.1515 364.408 87.1951C365.784 91.9373 368.166 95.9506 370.577 99.9366C375.658 108.334 381.271 116.331 386.776 124.411C388.119 126.381 389.615 128.305 390.558 130.777C390.407 132.502 389.206 132.78 388.155 132.806C383.344 132.925 379.243 135.062 375.247 137.623C372.661 139.281 369.887 138.067 367.201 138.002C365.964 137.972 364.74 137.53 363.344 137.131C360.519 135.754 358.225 133.83 355.768 132.191C342.943 123.633 329.051 120.473 314.094 122.755C295.578 125.58 278.432 132.433 262.544 142.912C262.21 143.132 261.9 143.389 261.443 143.762C260.774 144.187 260.198 144.395 259.617 144.958C259.18 145.381 258.94 145.7 259.26 146.145C259.632 146.66 260.222 146.914 260.724 146.765C264.753 145.569 269.075 146.577 273.019 145.015C279.4 142.487 285.775 139.94 292.194 137.523C293.242 137.129 294.312 136.972 295.409 136.837C300.32 136.23 305.163 135.157 309.984 134.044C312.626 133.433 314.844 131.508 317.655 131.016C321.232 130.391 324.821 130.226 328.409 130.012C329.906 129.923 330.454 129.578 329.936 127.819C331.595 126.102 333.271 127.143 334.847 127.64C342.586 130.084 349.603 134.135 356.357 138.768C359.332 140.809 361.992 143.316 365.028 145.262C365.788 145.749 366.399 146.411 366.126 147.688C364.968 149.047 363.561 148.842 362.268 148.761C354.932 148.298 347.744 149.618 340.523 150.632C338.281 150.946 336.682 152.005 335.817 154.208C334.495 157.575 331.564 158.967 328.91 160.705C328.647 160.878 328.31 161.032 328.015 160.974C325.005 160.381 322.131 161.592 318.982 161.733C316.483 161.307 314.165 160.915 311.877 160.374C306.066 159.001 300.201 157.939 294.299 157.191C289.795 156.62 285.263 156.273 280.728 155.959C276.331 155.654 271.947 155.61 267.559 155.641C260.429 155.691 253.325 156.257 246.227 157.02C239.369 157.757 232.568 158.836 225.787 160.109C213.664 162.387 201.711 165.41 189.939 169.257C185.138 170.826 180.451 172.736 175.704 174.458C172.179 175.737 169.507 178.044 167.214 180.915C164.974 183.719 162.475 186.256 160.261 189.088C157.727 192.327 155.441 195.681 153.964 199.605C153.693 200.324 153.421 200.924 152.771 201.373C146.973 205.378 141.627 210.044 136.063 214.391C135.815 214.584 135.571 214.809 135.065 214.486C135.803 212.371 137.322 210.801 138.727 209.232C141.871 205.72 145.123 202.314 148.411 198.954C149.603 197.735 150.304 196.405 150.581 194.667C151.261 190.394 153.031 186.864 156.529 184.309C160.207 181.624 164.063 179.108 167.026 175.471C169.49 172.446 171.898 169.353 174.117 166.123C176.471 162.694 179.155 159.728 182.642 157.629C186.619 155.235 190.165 152.199 193.762 149.23C200.462 143.7 207.989 139.784 215.857 136.549C222.454 133.836 228.975 130.954 234.797 126.573C236.589 125.224 238.36 123.846 240.296 122.446C240.631 122.357 240.784 122.255 240.964 121.972Z" fill="#FD8FF0"/>
<path d="M412.007 306.902C414.241 306.462 414.241 306.462 414.116 304.591C414 302.859 414.522 302.468 416.025 303.158C417.512 303.841 417.577 303.875 418.263 302.351C418.797 301.165 419.468 300.265 420.651 299.76C422.157 299.119 423.043 297.93 423.039 296.12C423.037 295.379 423.195 294.762 424.063 294.801C424.924 294.839 425.373 295.399 425.361 296.255C425.336 298.085 425.612 299.929 425.168 301.743C425.071 302.144 424.865 302.598 424.957 302.955C425.569 305.334 425.062 307.814 425.466 310.158C426.069 313.661 425.811 317.15 425.828 320.641C425.841 323.281 426.219 325.747 427.339 328.126C428.001 329.531 428.432 331.063 428.717 332.628C429.088 334.662 429.908 336.485 431.532 337.672C436.042 340.971 438.096 345.772 438.886 351.288C439.176 353.31 440.007 355.09 440.559 356.989C441.157 359.051 440.964 360.776 439.816 362.647C436.772 367.608 432.897 371.647 428.374 375.012C425.163 377.401 422.09 379.955 419.536 383.132C417.685 385.434 416.143 387.999 414.178 390.278C416.015 390.422 417.631 390.142 419.151 389.255C419.616 388.984 420.262 388.309 420.68 389.595C417.685 392.227 414.339 394.138 410.924 396.258C410.678 396.366 410.592 396.423 410.4 396.593C410.214 396.736 410.135 396.766 409.935 396.83C409.73 396.903 409.647 396.943 409.485 397.103C409.318 397.263 409.229 397.302 409 397.38C408.783 397.439 408.705 397.461 408.568 397.594C403.298 401.112 397.866 404.081 392.364 406.903C380.065 413.209 367.339 418.361 354.312 422.669C347.137 425.042 339.856 427 332.255 428.4C329.931 426.785 329.641 425.749 331.283 423.771C333.634 420.941 336.271 418.456 339.961 417.705C342.683 417.151 345.204 415.98 347.58 414.49C349.804 413.094 350.896 411.111 350.451 408.213C350.044 405.566 349.734 402.92 348.542 400.506C347.926 399.257 348.268 398.156 348.792 396.944C349.769 394.681 351.528 392.878 352.189 390.227C355.879 387.258 359.562 384.552 363.101 381.648C371.029 375.143 378.107 367.676 384.692 359.661C386.658 357.267 388.616 354.871 390.439 352.146C393.27 347.065 396.674 342.583 399.347 337.586C399.963 336.434 400.389 335.16 401.361 334.065C404.053 329.861 405.744 325.287 407.45 320.73C408.52 317.871 409.409 314.935 410.473 311.888C411.509 311.329 411.578 310.509 411.372 309.454C411.499 308.551 411.7 307.789 412.007 306.902Z" fill="#5EB6FF"/>
<path d="M364.572 87.07C363.651 87.4392 363.083 87.7755 363.436 88.9539C363.718 89.8969 364.036 90.7533 364.531 91.6349C365.657 93.6378 367.382 95.3825 367.424 97.9608C367.432 98.495 367.8 98.8606 367.995 99.3072C368.538 100.553 368.173 101.435 366.918 101.29C364.747 101.038 363.774 102.381 362.887 104.028C362.036 105.609 360.809 106.682 359.273 107.472C355.962 109.175 352.664 110.913 349.411 112.738C347.276 113.935 345.095 114.689 342.657 114.431C339.336 114.08 336.106 114.765 332.911 115.576C331.897 115.833 330.905 116.015 329.897 115.915C328.269 115.753 326.824 116.733 325.318 116.762C323.794 116.792 322.31 116.331 320.711 116.805C318.626 117.422 316.536 116.466 314.452 116.227C313.549 116.123 312.689 116.008 311.983 116.478C309.832 117.909 307.374 118.047 305.009 118.317C303.202 118.523 301.643 119.17 300.213 120.16C299.107 120.926 298.133 121.087 296.912 120.635C295.655 120.169 294.395 120.406 293.358 121.314C292.248 122.286 291.008 122.569 289.625 122.471C288.518 122.393 287.456 122.458 286.53 123.308C286.069 123.732 285.432 123.885 284.788 123.985C283.167 124.237 281.522 124.461 280.186 125.646C280.016 125.798 279.769 125.876 279.545 125.931C274.245 127.237 269.579 130.181 264.7 132.551C262.88 133.435 261.338 134.966 259.659 136.185C259.154 136.552 258.948 137.09 258.889 137.673C258.57 140.844 256.23 142.656 254.596 144.935C254.125 145.593 253.53 146.174 252.913 146.683C252.163 147.302 251.361 147.411 250.32 147.342C247.194 147.136 244.162 146.28 241.049 146.07C239.287 145.951 237.826 144.838 236.162 144.38C235.574 144.218 235.353 143.598 235.517 142.95C235.68 142.307 235.901 141.68 236.111 141.051C236.476 139.954 236.526 138.905 235.643 138.049C234.865 137.295 234.882 136.506 235.369 135.583C236.018 134.35 236.477 133.015 237.494 132.006C238.314 131.191 238.992 130.132 238.576 128.889C238.146 127.605 238.74 126.822 239.409 125.988C240.426 124.723 241.441 123.457 242.471 122.205C242.802 121.803 242.946 121.352 242.948 120.647C243 120.289 243.094 120.149 243.304 119.936C243.6 119.558 243.832 119.293 244.183 118.977C244.439 118.845 244.56 118.743 244.75 118.535C245.147 117.734 245.823 117.469 246.502 116.974C246.779 116.829 246.91 116.731 247.102 116.513C247.176 116.411 247.19 116.437 247.178 116.429C247.297 116.334 247.409 116.225 247.579 116.004C249.034 114.558 250.385 113.169 251.795 111.852C259.054 105.07 265.941 97.8646 272.984 90.8365C278.073 85.7588 283.304 80.7942 289.666 77.4833C293.51 75.4828 297.508 74.746 301.768 75.5996C304.455 76.138 307.183 76.4445 309.855 76.8492C310.023 77.1422 309.991 77.4068 309.805 77.5541C304.775 81.5485 300.29 86.2571 295.226 90.208C294.665 90.6455 294.089 91.1169 293.78 92.0182C293.755 92.1876 293.656 92.3459 293.656 92.3459C293.656 92.3459 293.769 92.4972 293.845 92.4498C296.102 91.606 297.854 90.0149 299.779 88.757C304.518 85.6609 309.188 82.4463 313.882 79.2732C317.395 76.8983 321.091 75.3687 325.39 75.7342C329.418 76.0766 333.285 74.7429 337.208 74.0242C340.209 73.4743 343.21 72.9139 346.464 72.7497C347.353 72.7389 348.034 72.7422 348.862 72.7606C350.332 72.8859 351.592 73.1748 352.78 73.885C354.747 75.0603 357.04 75.2437 359.128 76.1411C360.891 76.8988 362.419 77.8691 363.979 79.2285C364.184 79.3857 364.253 79.4459 364.394 79.6263C364.505 82.1096 364.545 84.4728 364.572 87.07Z" fill="#FF89F0"/>
<path d="M387.693 352.88C385.012 355.799 382.778 358.927 380.279 361.819C370.645 372.963 359.885 382.623 347.666 390.407C332.94 399.788 317.03 405.681 300.17 408.843C292.973 410.193 285.741 410.987 278.443 411.384C273.653 411.645 268.869 411.812 264.088 411.629C253.654 411.229 243.282 410.121 233.026 407.966C231.124 407.566 229.166 407.407 226.983 406.427C232.171 405.674 236.97 405.022 241.756 404.274C258.577 401.642 275.016 397.558 290.676 390.241C304.733 383.674 317.662 375.224 329.32 364.625C337.093 357.558 344.274 349.829 350.624 341.265C351.16 340.54 351.719 339.866 352.514 339.418C357.873 336.398 362.69 332.501 367.672 328.857C375.284 323.29 382.272 316.996 388.479 309.723C391.065 306.692 393.64 303.642 396.069 300.469C397.086 299.142 398.165 298.041 399.765 297.281C402.752 297.567 404.346 299.72 403.951 302.736C403.755 304.235 403.146 305.607 402.705 307.032C400.301 314.797 398.367 322.704 396.547 330.642C396.192 332.192 396.197 333.569 398.459 333.494C398.741 333.611 398.847 333.676 399.056 333.903C399.208 334.319 399.21 334.574 399.122 335.012C396.362 340.76 393.201 346.011 389.174 350.851C389.044 350.966 389.071 351.007 389.064 350.983C388.693 351.608 388.491 352.379 387.693 352.88Z" fill="#5EB6FF"/>
<path d="M194.039 500.794C189.068 501.28 184.242 501.761 179.369 501.407C175.07 501.094 170.772 500.91 166.497 500.246C155.093 498.475 144.162 494.989 133.705 489.897C119.039 482.757 105.87 473.203 94.0527 461.51C91.0049 458.494 88.0625 455.378 85.082 452.067C84.5571 451.581 84.0127 451.339 83.7043 450.609C79.5748 445.349 75.5672 440.212 71.9294 434.759C60.5478 417.7 51.968 399.222 47.0735 378.897C45.0593 370.533 44.0233 362.015 44.0215 353.364C44.0211 351.352 44.1922 349.362 44.4083 347.158C44.4935 346.903 44.5998 346.863 44.8642 346.887C45.7738 353.521 47.2529 359.931 48.9756 366.265C55.0102 388.453 65.2396 408.201 79.5629 425.55C92.9399 441.753 108.962 454.088 127.412 462.918C140.816 469.333 154.839 473.394 169.346 475.683C179.386 477.267 189.476 477.838 199.613 477.463C202.12 477.37 204.623 477.133 207.345 476.977C208.733 477.365 209.561 478.299 210.415 479.125C212.29 480.937 212.44 483.595 210.659 485.856C207.016 490.482 202.955 494.627 197.472 496.688C195.569 497.404 194.397 498.514 194.039 500.794Z" fill="#55A7FF"/>
<path d="M104.595 196.888C106.372 188.406 109.285 180.488 112.782 172.79C120.27 156.306 130.014 141.525 142.094 128.497C156.415 113.053 173.218 101.533 191.831 92.902C205.705 86.4692 220.137 81.9715 234.991 78.9842C237.301 78.5195 239.641 78.2179 241.971 77.8682C242.427 77.7999 242.899 77.8584 243.926 77.8584C242.599 78.554 241.725 79.0292 240.837 79.4745C227.011 86.412 213.915 94.6368 201.947 104.798C187.265 117.265 174.892 131.954 164.931 148.928C164.266 150.062 163.576 151.18 162.787 152.434C160.778 151.91 159.772 153.239 158.836 154.595C157.116 157.088 155.478 159.655 153.581 161.996C148.437 168.346 142.484 173.783 136.425 179.104C128.788 185.81 120.624 191.771 112.798 198.208C112.549 198.412 112.863 198.16 112.605 198.352C108.319 201.552 107.751 201.458 104.595 196.888Z" fill="#6D58D6"/>
<path d="M188.444 465.457C184.06 465.029 179.927 463.989 175.841 462.852C159.295 458.251 143.81 451.075 129.658 440.771C122.818 435.791 116.534 430.161 111.361 423.19C108.292 419.054 106.09 414.475 104.75 409.434C103.046 403.024 100.784 396.915 96.8725 391.621C96.6363 391.302 96.4 390.945 96.4812 390.317C98.5423 390.435 100.331 391.394 102.098 392.39C105.776 394.464 109.411 396.626 113.113 398.65C125.41 405.372 137.797 411.88 150.615 417.441C170.275 425.972 190.319 433.187 211.057 438.122C211.208 438.158 211.352 438.236 211.664 438.376C212.812 439.882 213.569 441.418 213.857 443.178C213.98 443.932 214.271 444.59 214.666 445.229C217.406 449.665 215.707 455.738 211.07 457.954C209.503 458.703 207.893 459.375 206.248 459.908C203.608 460.763 201.718 462.185 202.003 465.526C202.032 465.856 201.869 466.171 201.609 466.63C200.222 466.74 198.933 466.681 197.433 466.58C197.015 466.529 196.81 466.516 196.451 466.483C194.027 466.588 191.826 465.97 189.394 465.646C188.998 465.532 188.796 465.511 188.444 465.457Z" fill="#55A7FF"/>
<path d="M247.58 508.358C252.059 507.811 256.38 506.957 260.693 506.108C276.618 502.974 292.223 498.544 307.467 492.699C327.989 484.83 347.106 474.125 364.821 460.561C370.566 456.162 376.236 451.684 381.288 446.377C389.753 437.483 395.978 427.037 400.339 415.292C400.425 415.059 400.518 414.824 400.572 414.582C401.104 412.196 402.62 410.905 404.614 409.778C421.112 400.453 436.458 389.296 450.759 376.504C450.938 376.344 451.145 376.219 451.492 376.031C451.739 375.982 451.832 375.98 451.936 376.127C451.214 379.777 449.535 382.874 448.206 386.116C447.183 388.61 445.959 391.012 444.78 393.63C444.736 393.805 444.521 393.879 444.536 393.998C441.05 401.014 437.377 407.804 433.321 414.351C432.632 415.464 431.896 416.544 431.122 417.804C431.063 417.969 430.841 418.009 430.842 418.128C426.472 424.564 421.988 430.782 416.974 436.757C416.474 437.575 416.151 438.352 415.248 438.792C412.137 442.102 409.146 445.293 406.073 448.619C405.043 450.16 403.957 451.408 402.379 452.349C401.658 452.965 401.074 453.489 400.409 454.139C400.055 455.078 399.396 455.43 398.601 455.867C398.32 455.977 398.198 456.048 398.053 456.27C397.461 457.214 396.776 457.881 395.752 458.376C392.016 461.28 388.431 464.124 384.819 466.928C378.591 471.763 371.969 475.93 365.263 479.953C361.178 482.403 357.013 484.693 352.765 486.799C346.825 489.744 340.761 492.362 334.597 494.761C321.976 499.674 309.076 503.401 295.851 505.87C288.125 507.313 280.361 508.376 272.515 508.842C267.335 509.149 262.162 509.146 256.983 509.22C253.992 509.263 251.033 508.829 247.842 508.765C247.581 508.689 247.531 508.59 247.58 508.358Z" fill="#5EBAFF"/>
<path d="M71.877 135.908C71.3104 136.355 70.8904 136.724 70.4044 137.221C67.8872 140.485 65.2 143.364 62.0213 145.951C61.8821 146.043 61.9171 146.069 61.905 146.051C61.5198 146.825 61.1044 147.575 60.1212 147.973C59.2689 148.47 58.8153 149.187 58.2013 149.933C57.2518 151.843 55.7806 153.051 54.3243 154.475C53.0341 155.476 52.1576 156.692 51.1303 157.965C50.7394 158.602 50.516 159.197 49.8376 159.543C49.1275 160.382 48.5035 161.1 47.8243 161.972C47.4524 162.587 47.2495 163.152 46.6056 163.54C40.1644 171.326 34.4313 179.476 28.957 188.073C28.7828 188.042 28.7066 187.815 28.546 187.445C29.5515 182.445 30.4232 177.517 31.6482 172.67C36.296 154.278 43.4172 137.071 52.8087 120.859C55.7168 115.839 58.8725 111.051 62.2194 106.386C63.5733 104.499 65.2482 102.826 66.5002 100.908C67.7605 98.9783 69.3317 97.3902 70.7565 95.6813C72.2997 93.8305 74.013 92.0969 75.6469 90.3069C97.2242 66.6691 122.649 49.184 151.201 36.7147C165.715 30.3763 180.658 25.6508 196.228 23.3347C201.748 22.5135 207.285 21.8639 212.904 21.79C208.757 23.0656 204.585 24.2547 200.468 25.6305C167.295 36.7149 137.325 53.9949 110.981 78.2647C105.034 83.744 99.2191 89.3613 94.3721 96.0152C87.8744 104.935 83.3391 114.861 80.8046 125.823C80.6174 126.633 80.5684 127.485 79.8999 128.287C77.5693 131.327 74.8001 133.583 71.877 135.908Z" fill="#6E53CE"/>
<path d="M54.4501 314.478C54.0767 313.892 53.8476 313.415 53.5149 312.751C53.1691 311.702 52.9267 310.841 52.5863 309.778C52.4881 309.578 52.6659 309.469 52.5652 309.489C51.6696 305.933 51.0859 302.316 50.6445 298.463C50.6009 298.042 50.5953 297.823 50.564 297.442C50.5596 291.895 50.5733 286.511 50.5583 280.892C50.5972 280.267 50.6089 279.873 50.5942 279.33C50.8089 277.151 51.0868 275.124 51.036 272.847C51.0405 272.408 51.0593 272.191 51.0673 271.809C51.3152 270.281 51.5248 268.912 51.4902 267.305C51.5019 266.88 51.5253 266.665 51.5371 266.286C51.5898 266.036 51.6424 265.949 51.787 265.741C52.8789 264.878 53.5852 265.625 54.0703 266.32C54.9933 267.642 55.8878 267.334 57.1264 266.841C61.0255 265.29 63.6184 262.547 65.4076 258.503C67.5853 253.581 70.6697 249.269 74.2155 245.277C78.9104 239.992 84.0729 235.249 88.9599 230.19C90.6974 228.392 91.9407 226.336 92.6665 223.896C93.0951 222.456 93.6614 221.078 94.39 219.784C95.2997 218.168 96.5317 217.37 98.4537 218.278C98.7962 220.834 98.3063 223.234 98.2807 225.657C98.2109 232.263 98.1992 238.864 98.4878 245.471C99.0663 258.711 98.3028 271.872 96.031 284.92C95.8596 285.904 95.7306 286.897 95.487 288.053C93.4462 288.384 92.4977 289.802 91.9852 291.544C89.9814 298.355 85.0231 302.303 79.6938 305.766C74.6144 309.067 69.0937 311.523 64.0265 314.905C61.044 316.895 57.6933 316.355 54.4501 314.478Z" fill="#6769E3"/>
<path d="M406.058 278.522C405.598 281.58 403.827 283.78 402.439 286.179C401.019 288.633 399.082 290.639 396.767 292.089C393.086 294.396 390.234 297.608 387.984 301.338C384.165 307.67 379.008 312.485 373.273 316.634C368.735 319.916 364.369 323.479 359.602 326.398C359.194 326.648 358.799 326.924 358.382 327.153C353.082 330.069 347.829 333.089 342.466 335.867C332.076 341.248 321.24 345.442 310.125 348.732C304.558 350.38 298.8 351.29 293.226 352.965C289.608 354.051 286.044 355.341 282.435 356.462C280.559 357.044 278.646 357.5 276.734 357.93C275.93 358.111 275.072 358.19 274.348 357.869C274.195 357.146 274.525 356.871 274.849 356.664C277.82 354.768 280.394 352.305 283.125 350.069C285.127 348.43 287.262 347.038 289.502 345.835C297.07 341.77 304.604 337.628 312.256 333.75C326.084 326.742 339.697 319.277 353.387 311.974C357.382 309.843 361.26 307.46 365.189 305.187C365.389 305.071 365.564 304.907 365.637 304.542C360.759 305.891 356.336 308.411 351.72 310.395C346.924 312.456 342.163 314.613 337.403 316.768C332.714 318.892 328.052 321.082 323.366 323.213C318.719 325.328 314.163 327.689 308.871 329.59C310.582 327.034 312.02 324.982 313.706 323.146C315.903 320.753 318.149 318.411 320.359 316.031C325.49 310.505 330.298 304.674 334.861 298.611C335.056 298.352 335.31 298.145 335.677 297.836C337.533 299.772 339.662 299.657 342.071 299.848C349.464 300.436 356.771 299.665 364.107 299.211C365.392 299.132 366.561 299.241 367.738 299.881C370.263 301.252 372.71 301.525 375.232 299.554C377.014 298.16 379.315 297.9 381.438 297.346C383.694 296.757 385.349 295.635 385.65 292.981C385.859 291.137 387.245 290.663 388.726 289.999C389.021 289.869 389.142 289.824 389.645 289.755C392.763 289.153 394.527 287.239 395.641 284.702C396.524 282.69 397.079 280.515 397.9 278.287C399.83 277.23 401.921 277.853 403.782 276.88C404.65 276.425 405.384 277.587 406.058 278.522Z" fill="#D2AEFA"/>
<path d="M352.102 390.101C352.919 391.116 352.869 392.051 351.896 392.9C350.276 394.311 350.083 396.669 348.782 398.318C348.248 398.995 348.747 399.787 349.123 400.4C350.316 402.343 350.475 404.596 350.893 406.772C350.971 407.175 350.844 407.633 350.958 408.015C351.954 411.338 350.341 413.486 347.945 415.03C345.478 416.62 342.82 417.809 339.921 418.364C337.993 418.734 336.144 419.496 334.797 421.162C333.972 422.184 332.725 422.642 331.935 423.724C330.356 425.887 330.336 426.069 332.032 428.216C329.162 429.444 326.124 429.783 323.132 430.296C317.965 431.181 312.783 432.008 307.582 432.609C302.533 433.193 297.452 433.462 292.172 433.846C291.755 433.844 291.551 433.857 291.193 433.859C282.846 434.544 274.65 434.574 266.248 433.899C265.838 433.868 265.633 433.863 265.275 433.838C263.185 433.998 261.278 433.689 259.17 433.407C258.768 433.369 258.563 433.362 258.205 433.331C254.019 433.21 250.028 432.595 246.024 432.161C244.33 431.977 242.652 431.639 240.777 431.314C240.134 430.744 240.13 430.106 240.54 429.675C241.931 428.214 242.712 426.22 244.342 424.958C246.312 423.433 246.58 421.858 245.44 419.583C244.724 418.157 243.543 417.159 242.546 415.991C241.824 415.146 240.869 414.385 241.431 412.851C241.758 412.715 241.967 412.716 242.328 412.755C242.684 412.795 242.887 412.806 243.24 412.855C244.251 412.753 245.073 412.977 246.072 413.236C246.453 413.288 246.658 413.299 247.016 413.337C248.339 413.172 249.443 413.686 250.78 413.767C251.172 413.803 251.375 413.809 251.731 413.843C253.666 413.644 255.402 414.177 257.367 414.269C258.245 414.303 258.924 414.274 259.746 414.357C264.948 414.36 270.007 414.342 275.287 414.352C276.485 414.228 277.467 414.321 278.61 414.293C280.377 414.14 281.981 413.987 283.787 413.857C284.189 413.844 284.39 413.822 284.744 413.816C286.034 413.655 287.174 413.491 288.507 413.345C288.905 413.33 289.111 413.304 289.472 413.272C290.246 412.899 290.926 412.886 291.809 412.885C292.21 412.856 292.409 412.824 292.761 412.807C297.054 411.938 301.242 411.347 305.367 410.351C313.923 408.283 322.312 405.629 330.454 402.157C337.994 398.942 345.097 394.796 352.102 390.101Z" fill="#5BB2FF"/>
<path d="M194.098 500.971C193.912 500.338 193.96 499.75 193.912 499.17C193.813 497.968 194.39 497.295 195.373 496.909C195.812 496.736 196.253 496.56 196.704 496.429C201.004 495.177 204.021 491.789 207.352 488.988C208.52 488.005 209.538 486.598 210.418 485.252C211.606 483.436 212.117 480.985 209.582 479.165C208.853 478.642 208.22 478.054 207.63 477.153C210.22 476.245 212.97 476.137 215.674 475.718C231.775 473.219 246.627 467.273 260.204 457.706C262.757 455.908 265.382 454.225 267.967 452.478C268.489 452.126 269.148 451.783 268.877 450.948C268.657 450.273 267.999 450.328 267.467 450.287C265.07 450.103 262.792 450.431 260.686 451.834C250.377 458.708 239.218 463.211 227.21 465.286C224.271 465.794 221.332 466.334 218.147 466.494C217.736 466.494 217.53 466.512 217.17 466.532C214.039 467.262 211.014 466.959 207.787 466.998C207.368 466.987 207.169 466.996 206.82 466.978C205.544 466.977 204.418 466.99 203.084 466.961C201.959 466.143 201.675 465.159 202.231 464.053C202.768 462.984 203.753 463.003 204.709 463.191C206.966 463.634 208.807 463.293 210.081 460.882C210.843 459.441 212.381 459.084 213.912 458.8C217.451 458.144 220.643 456.711 222.821 453.438C223.781 451.997 224.146 450.426 223.577 448.712C222.666 445.969 223.503 443.678 225.318 441.515C229.211 442.043 232.927 442.649 236.648 443.222C243.093 444.214 249.566 444.935 256.055 445.501C264.51 446.238 272.984 446.394 281.459 446.608C284.83 446.693 288.203 446.879 291.801 446.942C292.024 446.928 292.11 447.149 292.178 447.243C292.035 447.565 291.824 447.792 291.528 448.151C290.956 449.222 290.205 449.841 289.152 450.333C288.872 450.399 288.766 450.456 288.64 450.646C288.469 451.377 287.91 451.491 287.347 451.851C287.066 451.958 286.942 452.03 286.798 452.257C286.037 453.359 285.261 454.282 283.998 454.857C283.635 455.076 283.418 455.228 283.115 455.485C282.634 456.014 282.391 456.612 281.672 456.88C281.401 456.977 281.279 457.048 281.136 457.271C280.551 458.215 279.87 458.88 278.854 459.383C278.573 459.487 278.451 459.557 278.307 459.779C277.728 460.724 277.048 461.386 276.033 461.881C275.896 461.959 275.951 461.975 275.927 461.959C274.858 463.436 273.332 464.286 271.799 465.399C271.661 465.485 271.707 465.505 271.689 465.487C271.07 466.251 270.413 466.96 269.368 467.414C269.092 467.483 268.981 467.538 268.845 467.725C266.95 469.833 264.706 471.308 262.411 472.962C261.743 473.081 261.367 473.411 260.925 473.893C260.386 474.637 259.813 475.092 258.989 475.451C258.618 475.619 258.393 475.73 258.101 475.956C257.323 476.927 256.419 477.465 255.307 477.97C253.891 478.632 252.792 479.538 251.526 480.451C251.104 481.001 250.636 481.183 250.069 481.487C248.082 482.637 246.234 483.732 244.368 484.791C230.391 492.72 215.658 498.191 199.888 500.278C198.021 500.525 196.154 500.772 194.098 500.971Z" fill="#57AEFF"/>
<path d="M98.6268 218.189C96.3361 217.956 95.1178 219.083 94.2524 221.227C93.4789 223.144 93.0649 225.207 92.0685 227.027C91.6336 227.822 91.2381 228.616 90.6132 229.284C86.8553 233.3 82.7338 236.911 78.9652 240.891C76.5373 243.456 74.0785 246.057 71.8916 248.893C68.9457 252.714 66.6218 256.949 64.6109 261.391C63.26 264.376 60.6819 265.722 58.0677 267.12C56.13 268.155 54.4827 268.868 53.2427 266.206C53.0737 265.843 52.6401 265.69 52.0557 265.63C51.8322 263.22 52.2711 260.864 52.4285 258.269C52.4447 257.838 52.4696 257.621 52.4865 257.24C52.9304 253.946 53.4541 250.826 53.7955 247.683C54.4616 241.552 55.4047 235.465 56.2785 229.154C56.3594 228.871 56.4251 228.798 56.431 228.587C56.9476 224.895 57.5241 221.34 58.0897 217.58C58.1557 213.578 58.9539 209.918 60.0279 206.13C61.4938 204.924 62.2818 205.612 62.8225 206.996C62.9423 207.303 62.9511 207.653 63.0549 207.965C63.3514 208.857 63.1424 210.201 64.3495 210.365C65.4063 210.508 65.9729 209.451 66.4976 208.649C67.8033 206.652 69.5897 205.271 71.6439 204.421C76.579 202.376 80.5395 198.801 84.4311 195.201C92.1904 188.024 99.0864 179.926 105.788 171.644C106.76 170.442 107.852 169.358 108.798 168.129C109.329 167.438 110.048 166.983 110.851 167.561C111.528 168.048 111.459 168.863 111.252 169.617C111.035 170.401 110.445 171.075 110.593 172.153C109.078 176.47 107.184 180.417 105.753 184.579C102.034 195.391 99.5781 206.495 98.6268 218.189Z" fill="#6B5DDA"/>
<path d="M110.66 172.205C109.811 171.326 110.37 170.458 110.742 169.537C110.987 168.932 111.198 168.173 110.418 167.821C109.798 167.54 109.475 168.114 109.102 168.574C106.856 171.35 104.554 174.072 102.234 176.78C98.7012 180.904 95.4525 185.346 91.5099 189.015C88.0998 192.188 84.9388 195.641 81.3893 198.683C77.9137 201.661 74.1078 203.808 70.2172 205.921C68.8477 206.665 67.7948 207.702 66.9646 209.078C66.5486 209.768 65.9745 210.392 65.3632 210.897C64.2814 211.79 63.2181 211.411 62.9034 209.989C62.7077 209.106 62.3506 208.26 62.3574 207.309C62.3648 206.275 61.7234 205.856 60.6163 205.848C59.9287 204.883 59.9115 206.181 59.4372 206.106C56.9548 205.597 54.9309 206.45 53.68 208.398C49.2709 215.262 42.4738 218.65 36.0289 222.566C30.9204 225.671 25.7254 228.6 21.6168 233.264C19.7322 235.404 17.5279 237.075 14.4423 235.104C15.1378 231.761 16.7302 228.888 17.9094 225.831C18.4739 224.368 19.2119 222.981 19.9066 221.375C19.9417 221.19 20.1482 221.24 20.0662 221.169C20.0764 220.952 20.1684 220.806 20.3382 220.41C20.416 220.16 20.5786 220.24 20.5105 220.178C21.818 217.389 23.1936 214.661 24.6284 211.764C25.9036 209.369 27.1194 207.144 28.3871 204.741C28.439 204.563 28.602 204.659 28.5366 204.588C28.6873 204.206 28.9034 203.894 29.2598 203.459C30.0706 203.388 30.5248 203.029 31.0539 202.603C32.3476 201.561 33.9555 201.295 35.47 201.624C36.605 201.871 37.4532 201.565 38.3618 201.062C41.6749 199.229 45.0804 197.62 48.2312 195.409C50.4184 193.875 53.0444 193.041 55.4928 191.941C58.4734 190.601 60.9423 188.358 63.7578 186.709C67.9993 184.226 72.2015 181.655 76.3111 178.909C80.0212 176.43 83.5439 173.691 86.9438 170.789C90.9661 167.355 95.4204 164.793 100.202 162.921C103.319 161.701 105.735 159.538 108.148 157.309C109.449 156.108 110.629 154.753 111.817 153.421C113.982 150.993 116.31 148.785 119.011 147.048C120.102 146.346 120.843 145.233 121.769 144.337C122.228 143.891 122.6 143.324 123.241 143.13C124.084 142.875 124.625 143.347 124.465 144.285C124.332 145.066 123.736 145.862 124.876 146.524C121.746 152.018 118.263 157.354 115.336 163.06C113.799 166.057 112.3 169.076 110.66 172.205Z" fill="#6D58D6"/>
<path d="M158.119 386.278C154.974 385.495 152.23 384.026 149.423 382.754C145.247 380.861 141.077 378.954 137.028 376.75C134.509 375.379 132.129 373.819 129.885 371.744C135.17 368.925 138.265 363.863 141.292 358.864C145.947 351.174 152.169 344.955 157.749 338.128C160.637 334.596 163.935 331.514 166.858 328.031C167.942 326.739 168.493 325.206 169.29 323.581C174.475 325.845 179.549 328.24 184.861 330.475C185.068 330.644 185.156 330.671 185.343 330.798C185.67 330.9 185.897 330.902 186.261 331.017C186.485 331.154 186.573 331.178 186.762 331.299C187.089 331.398 187.316 331.399 187.676 331.515C187.899 331.654 187.987 331.679 188.178 331.801C188.505 331.897 188.729 331.896 189.089 332.005C189.314 332.146 189.405 332.178 189.613 332.295C190.632 332.206 191.466 332.421 192.394 333.005C192.616 333.168 192.707 333.191 192.911 333.303C194.919 333.202 196.61 334.145 198.559 334.586C199.572 336.64 199.079 338.132 197.802 339.869C194.429 344.458 190.776 348.793 187.363 353.34C185.934 355.243 184.345 356.945 182.402 358.253C180.422 359.586 178.421 360.852 177.014 362.98C176.293 364.07 175.047 364.595 173.734 365.208C167.552 363.743 161.806 361.331 156.042 358.973C153.284 357.844 150.619 356.443 147.654 355.815C149.944 357.58 152.182 359.368 154.769 360.692C157.369 362.022 159.775 363.777 162.303 365.273C164.9 366.81 167.543 368.26 170.273 369.873C171.351 371.467 171.531 373.063 171.029 374.756C170.721 375.792 170.509 376.851 170.316 377.915C169.327 383.366 165.8 386.006 160.928 387.317C160.046 387.277 159.45 386.922 158.678 386.579C158.436 386.45 158.345 386.403 158.119 386.278Z" fill="#5898FF"/>
<path d="M389.646 290.132C389.372 290.352 389.175 290.486 388.972 290.611C388.133 291.128 386.49 293.442 386.081 294.55C385.47 296.205 384.356 297.293 382.71 297.737C380.822 298.247 378.941 298.786 377.053 299.295C376.194 299.526 375.465 299.972 374.834 300.63C373.864 301.639 372.638 302.033 371.37 301.735C369.891 301.387 368.27 301.531 367.021 300.223C366.227 299.391 365.043 299.618 364.1 299.907C362.934 300.264 361.786 300.274 360.617 300.268C355.615 300.243 350.641 301.122 345.629 300.78C344.62 300.711 343.626 300.749 342.612 300.456C341.33 300.085 339.983 299.967 338.908 301.212C338.279 301.941 337.738 301.574 337.52 300.804C337.218 299.731 336.681 298.851 335.889 297.914C338.873 293.423 341.98 289.128 344.973 284.744C349.217 278.527 353.147 272.087 356.676 265.377C357.481 263.846 358.294 262.321 359.226 260.684C360.707 259.615 361.583 260.774 362.452 261.49C367.041 265.272 365.911 265.185 371.424 262.878C374.427 261.621 377.461 262.053 380.48 262.115C383.47 262.176 385.901 261.555 387.264 258.395C387.623 257.562 388.269 256.89 389.039 256.433C390.47 255.584 391.365 254.269 392.138 252.771C392.946 251.204 394.009 249.878 396.05 249.922C396.642 250.489 396.591 251.088 396.595 251.668C396.679 262.71 395.679 273.58 392.026 284.022C391.399 285.813 390.711 287.58 390.039 289.545C390.026 289.731 390.036 289.723 390.039 289.717C389.928 289.815 389.821 289.925 389.646 290.132Z" fill="#D5AAF9"/>
<path d="M104.423 196.884C105.856 196.728 106.013 197.992 106.503 198.886C107.373 200.476 107.414 200.473 109.016 199.673C113.51 197.428 117.23 193.991 121.068 190.752C123.276 188.888 125.677 187.329 127.904 185.508C131.367 182.677 134.648 179.573 138.134 176.812C142.248 173.554 145.534 169.413 149.452 165.966C152.706 163.104 154.941 159.186 157.439 155.576C158.277 154.365 159.112 153.17 160.159 152.151C161.273 151.067 161.264 151.057 162.553 152.479C161.428 154.975 160.176 157.385 158.931 159.8C156.206 165.083 153.795 170.528 151.59 176.076C151.188 177.086 150.768 178.061 150.076 178.885C142.85 187.478 137.294 197.281 131.921 207.225C128.671 213.238 125.065 219.039 122.606 225.507C120.78 230.311 118.975 235.124 117.103 239.907C116.319 241.912 115.385 243.85 114.4 245.933C111.764 245.018 110.968 247.022 110.004 248.774C109.451 249.78 108.767 250.697 108.07 251.593C105.729 254.602 104.417 254.652 101.756 251.87C101.476 251.577 101.228 251.259 101.026 250.7C100.888 249.703 100.727 248.877 100.711 248.047C100.561 239.858 100.288 231.666 100.665 223.48C101.078 214.54 101.97 205.665 104.423 196.884Z" fill="#6B63DF"/>
<path d="M169.253 323.383C169.585 324.79 169.125 326.034 168.38 326.954C166.809 328.894 165.385 330.998 163.462 332.599C162.969 333.009 162.497 333.462 162.079 333.957C158.683 337.985 155.337 342.062 151.899 346.049C150.583 347.576 149.061 348.9 147.648 350.333C147.082 350.907 146.562 351.51 146.175 352.268C143.294 357.911 139.55 362.887 135.589 367.692C135.486 367.817 135.33 367.91 135.264 368.052C134.222 370.311 132.319 371.138 129.987 371.573C128.024 370.452 126.67 368.798 125.509 367.029C120.638 359.611 116.43 351.794 113.31 343.155C114.434 342.051 115.582 342.817 116.68 343.024C117.963 343.267 119.088 343.139 119.857 342.01C123.402 336.801 128.306 333.093 132.659 328.781C135.594 325.875 137.476 322.215 139.404 318.586C140.953 315.672 142.613 312.843 144.483 310.156C145.194 309.136 145.958 308.135 147.524 308.716C152.317 312.274 156.947 315.763 161.647 319.14C163.979 320.815 166.571 322.021 169.253 323.383Z" fill="#5A8BFC"/>
<path d="M173.708 365.387C176.033 363.559 177.525 360.688 180.102 359.093C182.203 357.792 184.222 356.352 185.817 354.354C187.688 352.012 189.618 349.717 191.373 347.278C193.076 344.911 195.383 343.026 196.458 340.151C196.513 340.005 196.635 339.838 196.765 339.782C198.821 338.893 198.704 337.001 198.689 334.908C203.79 335.585 208.823 336.776 213.938 337.481C220.761 338.421 227.608 338.992 234.703 339.124C235.715 339.991 235.656 341.065 235.368 341.979C234.233 345.58 234.231 349.352 233.758 353.05C233.141 357.886 231.19 361.84 227.488 364.87C225.102 366.824 223.445 369.398 223.251 372.96C222.11 373.602 220.999 373.504 219.909 373.557C207.098 374.184 194.664 371.815 182.395 368.162C179.534 367.309 176.692 366.382 173.708 365.387Z" fill="#55A7FF"/>
<path d="M241.397 412.605C241.338 413.977 242.153 414.668 242.85 415.456C244.015 416.774 245.418 417.857 246.162 419.587C247.306 422.249 246.932 423.793 244.682 425.446C244.116 425.862 243.509 426.364 243.191 426.984C242.587 428.163 241.94 429.235 240.855 429.983C240.663 430.115 240.677 430.586 240.592 431.079C238.838 431.028 237.087 430.8 235.142 430.48C234.741 430.372 234.534 430.349 234.175 430.288C233.505 430.197 232.989 430.139 232.298 429.989C231.914 429.877 231.707 429.85 231.347 429.784C226.753 428.87 222.313 427.99 217.692 427.011C217.303 426.879 217.096 426.843 216.736 426.766C207.73 424.869 199.043 422.343 190.443 419.452C180.19 416.005 170.152 411.955 160.288 407.403C159.406 406.996 158.62 406.585 158.068 405.673C156.026 402.303 153.932 398.97 151.86 395.62C151.643 395.27 151.441 394.907 151.619 394.416C152.354 393.958 153.098 394.323 153.838 394.513C159.55 395.985 165.234 397.595 170.977 398.909C179.936 400.959 188.829 403.36 197.882 404.927C200.972 405.462 204.095 405.778 207.399 406.23C207.966 406.263 208.335 406.255 208.841 406.321C210.957 406.184 212.879 406.611 214.776 407.097C223.52 409.338 232.341 411.142 241.397 412.605Z" fill="#57AEFF"/>
<path d="M223.362 373.14C223.211 372.218 222.401 372.182 221.805 371.641C223.093 370.713 223.642 369.294 224.193 367.866C224.809 366.268 225.962 365.117 227.244 364.16C230.803 361.5 232.397 357.738 233.092 353.291C233.676 349.552 233.331 345.656 234.797 342.052C235.086 341.342 234.896 340.409 234.922 339.378C235.384 339.127 235.851 339.027 236.317 339.035C243.705 339.16 251.073 338.753 258.415 337.936C266.691 337.015 274.889 335.557 282.949 333.305C283.936 333.029 284.865 332.61 285.732 331.992C293.083 326.749 299.756 320.707 305.297 313.313C306.529 311.668 307.936 310.226 309.627 309.108C315.775 305.044 322.341 301.813 328.718 298.204C329.049 298.017 329.397 297.753 329.977 298.043C328.986 299.476 327.736 300.565 326.471 301.607C322.06 305.237 317.605 308.807 312.875 311.964C311.526 312.865 310.271 313.862 309.697 315.534C307.165 322.901 301.816 327.223 295.45 330.388C291.455 332.375 287.531 334.461 284.104 337.467C280.951 340.233 277.868 343.088 275.003 346.189C270.551 351.006 265.604 355.04 259.739 357.735C257.425 358.799 255.254 360.195 253.301 361.879C246.766 367.519 239.121 370.343 231.019 372.038C228.559 372.553 226.106 373.17 223.362 373.14Z" fill="#5BB2FF"/>
<path d="M396.2 249.798C394.361 250.587 393.056 251.77 392.331 253.683C391.782 255.13 390.878 256.274 389.487 256.854C388.262 257.364 387.682 258.538 387.246 259.625C385.998 262.736 383.457 262.833 380.98 262.762C376.779 262.642 372.623 262.356 368.78 264.769C367.332 265.678 365.531 265.17 364.254 263.896C362.901 262.545 361.56 261.162 359.527 260.583C359.524 259.476 360.117 258.568 360.577 257.605C364.241 249.923 367.454 242.049 369.904 233.818C372.228 226.007 374.16 218.127 374.467 209.892C374.512 208.676 374.972 208.253 376.045 208.328C379.766 208.587 382.888 210.256 385.214 213.275C389.514 218.855 392.156 225.348 393.839 232.299C395.21 237.962 396.221 243.686 396.2 249.798Z" fill="#DAA8F6"/>
<path d="M406.426 155.648C407.947 156.917 408.78 158.728 409.812 160.378C413.319 165.981 416.849 171.569 420.156 177.512C420.965 179.365 420.097 180.03 418.699 180.169C417.297 180.308 415.886 180.446 414.473 180.397C412.705 180.335 411.007 180.734 409.46 181.562C402.231 185.431 394.241 187.282 387.041 191.232C385.394 192.136 383.528 192.204 381.744 191.716C378.633 190.866 375.541 189.934 372.327 188.747C367.198 184.787 362.193 180.96 356.823 177.71C355.33 176.806 353.906 175.73 352.336 175.021C349.664 173.816 347.509 172.029 345.838 169.324C346.734 168.384 347.633 168.88 348.349 169.493C350.153 171.036 352.205 171.471 354.449 171.671C356.388 171.844 358.34 172.025 360.273 172.361C362.272 172.709 364.145 172.104 365.933 171.162C369.808 169.119 373.874 167.69 378.121 166.823C379.988 166.441 381.845 166.382 383.715 166.756C384.651 166.943 385.581 167.011 386.604 166.388C388.274 165.547 389.08 166.92 389.97 167.689C392.101 169.531 393.903 171.761 395.87 173.8C396.473 174.424 397.043 175.088 397.741 175.606C394.049 169.973 389.976 164.684 385.682 159.581C384.958 158.721 383.654 158.05 384.564 156.393C387.094 156.341 388.975 157.864 391.069 158.715C392.673 159.367 394.271 159.754 395.851 159.045C398.083 158.044 400.379 157.808 402.737 157.956C404.404 158.06 405.64 157.496 406.426 155.648Z" fill="#EB9DF2"/>
<path d="M372.222 188.856C373.296 188.282 374.388 188.766 375.461 189.062C377.27 189.56 379.062 190.144 380.83 190.787C383.182 191.641 385.49 191.531 387.628 190.267C391.689 187.866 396.218 186.745 400.416 184.759C403.111 183.483 406.054 182.958 408.617 181.228C410.294 180.096 412.34 179.46 414.443 179.736C415.99 179.939 417.486 179.267 419.063 179.604C419.891 179.78 420.181 178.887 420.214 177.865C421.69 179.059 422.61 180.919 423.863 182.496C425.07 184.014 426.058 185.725 427.4 187.131C428.629 188.418 429.26 189.909 429.149 191.824C429.014 194.158 429.086 196.505 429.028 199.077C427.578 202.147 425.163 204.111 423.177 206.39C420.941 208.957 417.43 209.667 414.403 210.946C409.547 212.997 404.571 214.717 399.303 215.276C397.797 215.436 396.509 215.182 395.305 214.316C394.269 213.571 393.22 212.846 392.024 212.007C389.616 208.522 387.469 205.069 384.919 201.924C382.009 198.333 378.83 195.034 375.534 191.858C374.497 190.859 373.383 189.95 372.222 188.856Z" fill="#E3A2F4"/>
<path d="M147.582 308.686C146.54 308.76 145.774 309.28 145.101 310.248C143.472 312.591 141.9 314.992 140.626 317.551C139.413 319.988 137.979 322.27 136.702 324.657C135.287 327.301 133.086 329.239 131.002 331.255C127.658 334.49 123.893 337.257 121.252 341.269C119.948 343.25 118.434 344.583 115.96 343.494C115.254 343.184 114.445 343.14 113.492 342.971C111.393 338.901 110.544 334.483 109.624 330.1C108.717 325.775 108.127 321.386 108.108 316.946C108.095 313.86 107.553 310.784 108.005 307.498C109.266 306.607 109.514 307.738 109.911 308.47C111.505 311.411 112.368 311.675 114.625 309.222C118.63 304.87 122.517 300.394 126.223 295.737C127.541 294.08 128.419 291.892 130.647 291.103C130.786 291.202 130.763 291.23 130.762 291.212C130.851 291.337 130.959 291.463 131.187 291.642C134.81 295.727 138.324 299.747 141.854 303.752C143.518 305.639 145.605 306.967 147.582 308.686Z" fill="#5E7FF4"/>
<path d="M54.3227 314.551C56.3908 314.541 58.3137 315.667 60.5024 315.381C62.0088 315.184 63.3489 314.895 64.5826 313.831C66.8383 311.884 69.5315 310.67 72.1168 309.344C77.9088 306.373 83.432 303.003 87.9728 298.089C89.3896 296.556 90.327 294.581 90.9823 292.521C91.4122 291.17 91.9719 289.92 92.7144 288.727C93.3694 287.674 94.0931 287.482 95.2354 288.147C95.1796 292.072 94.3461 295.822 93.6961 299.598C91.728 311.033 89.905 322.491 88.8659 334.069C88.4851 338.313 88.177 342.572 88.2528 346.847C88.2671 347.65 88.189 348.454 88.1452 349.445C86.787 349.034 85.9247 348.161 84.9864 347.468C78.9611 343.014 73.5782 337.76 68.4523 332.202C66.1914 329.751 63.8481 327.399 61.3467 325.242C58.0755 322.422 55.8431 318.867 54.3227 314.551Z" fill="#6478EE"/>
<path d="M399.339 333.949C398.477 333.934 397.779 333.881 397.092 334.171C395.98 334.64 395.732 333.983 395.684 332.958C395.6 331.176 396.047 329.482 396.46 327.806C397.866 322.101 399.394 316.43 400.797 310.725C401.218 309.017 401.908 307.442 402.502 305.816C403.011 304.423 403.694 302.942 403.451 301.505C403.131 299.613 402.261 297.873 400.028 297.376C400.031 297.114 400.115 296.938 400.246 296.875C404.869 294.652 407.613 290.291 410.758 286.392C413.315 283.222 414.684 279.387 416.076 275.559C419.703 265.582 423.499 255.672 426.77 245.554C428.997 238.667 430.211 231.496 431.521 224.364C432.922 216.739 433.874 209.038 434.74 201.328C435.177 197.431 435.387 193.505 435.735 189.596C435.904 187.7 436.116 187.574 437.759 188.401C440.893 189.977 443.617 192.252 446.489 194.276C447.487 194.979 447.123 195.916 446.938 196.749C446.251 199.837 445.482 202.904 444.733 206.175C444.724 206.372 444.527 206.509 444.539 206.633C443.674 209.853 442.798 212.948 441.91 216.237C441.898 216.431 441.699 216.555 441.715 216.677C440.384 221.073 439.037 225.347 437.673 229.811C437.588 230.042 437.52 230.085 437.454 230.253C437.062 231.459 436.667 232.54 436.256 233.81C436.171 234.05 436.104 234.099 436.026 234.279C435.79 234.995 435.565 235.581 435.321 236.355C435.302 236.544 435.096 236.657 435.104 236.78C434.876 237.498 434.64 238.093 434.383 238.88C434.361 239.073 434.154 239.166 434.173 239.284C433.949 240.002 433.707 240.601 433.442 241.394C433.419 241.589 433.211 241.679 433.229 241.797C433.004 242.508 432.761 243.101 432.495 243.887C432.473 244.08 432.266 244.193 432.271 244.317C431.9 245.387 431.525 246.332 431.107 247.463C431.065 247.649 430.854 247.706 430.886 247.817C429.25 252.044 427.582 256.161 425.893 260.46C425.802 260.687 425.732 260.731 425.652 260.904C419.542 275.074 414.422 289.506 410.404 304.377C407.731 314.271 404.399 323.888 399.887 333.21C399.8 333.616 399.679 333.791 399.339 333.949Z" fill="#6BBFFE"/>
<path d="M391.908 212.063C393.069 211.786 393.948 212.42 394.827 213.182C396.262 214.424 397.746 215.193 399.77 214.478C401.213 213.969 402.798 213.676 404.391 213.863C405.469 213.99 406.291 213.157 407.263 212.857C411.928 211.417 416.4 209.428 420.846 207.369C422.159 206.761 423.333 206.024 423.928 204.509C424.132 203.991 424.486 203.458 424.908 203.134C426.236 202.113 427.48 201.038 428.235 199.437C428.278 199.344 428.525 199.359 428.832 199.316C428.639 201.698 428.849 204.12 428.661 206.512C427.886 216.35 427.173 226.207 423.954 235.797C420.833 238.178 418.826 241.545 416.066 244.086C415.948 244.195 415.797 244.293 415.732 244.435C413.863 248.511 410.246 249.698 406.558 250.827C404.951 251.319 403.814 251.005 403.104 249.299C402.542 247.947 402.456 246.343 401.166 245.165C400.719 237.98 399.401 231.15 397.184 224.516C395.764 220.266 394.053 216.153 391.908 212.063Z" fill="#DAA8F6"/>
<path d="M387.234 165.899C387.243 167.028 387.009 167.734 385.922 167.669C385.375 167.636 384.793 167.775 384.283 167.624C380.635 166.544 377.171 167.485 373.749 168.696C370.943 169.688 368.121 170.588 365.484 172.132C363.573 173.25 361.399 173.483 359.124 172.905C357.174 172.411 355.117 172.263 353.103 172.235C351.348 172.209 349.891 171.633 348.598 170.469C347.866 169.808 347.112 169.25 345.952 169.175C343.361 166.1 340.518 163.706 336.731 162.884C334.369 162.371 332.001 162.7 329.589 162.893C331.428 164.189 333.389 165.144 334.979 166.747C333.971 166.835 322.261 163.341 318.913 161.887C321.364 160.512 324.036 159.807 326.89 160.236C327.342 160.305 327.795 160.687 328.241 160.366C330.789 158.533 333.915 157.421 335.181 153.986C335.833 152.217 336.802 150.617 338.659 150.218C339.793 149.974 340.967 149.62 342.111 149.64C344.877 149.686 347.517 148.858 350.212 148.464C351.692 148.248 353.15 148.089 354.633 148.084C357.535 148.074 360.437 148.081 363.34 148.08C364.201 148.08 365.074 148.156 366.044 147.524C367.234 146.89 367.858 147.63 368.532 148.185C373.128 151.973 377.357 156.217 381.746 160.263C383.638 162.007 385.7 163.566 387.234 165.899Z" fill="#F396F1"/>
<path d="M14.2146 235.121C14.5524 234.978 14.8194 234.901 15.0177 234.993C17.7765 236.27 19.5693 234.535 21.3647 232.737C22.7851 231.314 24.0484 229.736 25.6887 228.534C28.4565 226.505 31.2759 224.553 34.2409 222.905C38.6779 220.439 42.8535 217.525 47.1601 214.837C49.4842 213.387 50.8105 210.984 52.4067 208.875C53.4267 207.526 54.6904 206.6 55.9314 205.643C56.9514 204.856 58.1949 205.433 59.5101 205.836C59.3276 209.664 58.2077 213.226 56.4581 216.772C56.3413 216.925 56.2725 216.976 56.284 217.019C56.2956 217.062 56.094 217.053 56.1748 217.117C55.6533 218.865 55.051 220.548 54.4245 222.43C54.4002 222.628 54.198 222.581 54.2853 222.64C54.2443 222.984 54.1159 223.27 53.9568 223.792C53.8157 224.062 53.7053 224.095 53.4313 224.073C51.8349 222.049 51.7577 222.024 50.5322 224.179C46.7094 230.9 42.1781 237.104 37.5271 243.144C33.5129 248.357 28.45 252.589 22.8713 255.876C18.9609 258.179 17.0315 257.444 14.658 253.407C13.9372 252.18 13.092 251.131 11.8872 250.182C11.5267 249.495 11.3482 248.855 11.1166 248.238C10.4406 246.436 10.5381 244.713 11.2579 242.914C12.267 240.392 12.9466 237.726 14.2146 235.121Z" fill="#6B5DDA"/>
<path d="M105.738 306.601C105.873 310.717 105.952 314.649 106.168 318.573C106.874 331.372 110.039 343.437 115.796 354.716C117.899 358.834 120.059 362.912 122.656 366.709C122.832 366.966 122.935 367.28 123.201 367.838C121.501 367.608 120.135 367.037 118.791 366.481C110.791 363.172 103.136 359.133 95.9054 354.184C94.6423 353.32 94.1117 352.39 94.1251 350.744C94.2043 341.03 94.7834 331.352 95.7443 321.697C96.0918 318.204 96.5068 314.72 96.9558 311.03C99.2432 309.669 101.031 308.088 102.038 305.561C102.443 304.545 103.376 303.83 104.509 304.06C105.674 304.295 105.786 305.354 105.738 306.601Z" fill="#5E7FF4"/>
<path d="M11.7548 250.326C13.0483 250.078 13.8666 250.761 14.5245 251.972C17.4188 257.304 18.7811 257.645 23.9156 254.735C25.9502 253.582 27.4554 251.746 29.2969 250.347C31.006 249.048 32.5906 247.561 34.2057 246.125C36.1411 244.406 37.7609 242.337 39.1647 240.154C41.8996 235.9 44.8793 231.846 47.8066 227.752C48.8646 226.273 49.4192 224.524 50.4976 223.076C51.0794 222.295 51.558 221.472 52.5477 221.006C53.2595 221.849 52.7306 223.077 53.6413 224.041C53.5716 224.895 53.2962 225.521 53.004 226.354C52.9872 226.562 52.7733 226.594 52.8656 226.653C52.8313 227.002 52.7046 227.29 52.5449 227.816C52.5118 228.053 52.2969 228.112 52.3577 228.211C52.1473 228.922 51.8762 229.534 51.5871 230.35C51.5693 230.553 51.3556 230.614 51.4378 230.692C51.2364 231.399 50.9528 232.028 50.6485 232.865C50.6278 233.073 50.4134 233.125 50.4995 233.198C50.2994 233.906 50.0132 234.542 49.707 235.389C49.687 235.6 49.4722 235.636 49.5633 235.699C49.3658 236.399 49.0772 237.036 48.7654 237.885C48.7422 238.096 48.5277 238.148 48.6128 238.222C48.4229 238.943 48.1478 239.589 47.837 240.445C47.8012 240.655 47.584 240.672 47.657 240.758C47.3042 241.837 46.8785 242.829 46.4187 244.021C46.3846 244.221 46.1756 244.188 46.2578 244.258C45.7484 245.672 45.157 247.014 44.5301 248.549C44.4947 248.741 44.2727 248.739 44.2879 248.857C44.0647 249.419 43.8264 249.865 43.5747 250.505C43.5613 250.698 43.3516 250.699 43.4462 250.747C43.4509 250.968 43.361 251.14 43.1549 251.564C41.8272 254.392 40.6157 256.97 39.3358 259.704C39.179 260.033 39.0905 260.206 38.8992 260.654C38.7965 260.929 38.6276 260.795 38.6704 260.898C34.3922 269.647 29.3779 277.821 23.8107 285.833C23.5072 286.053 23.2812 286.028 22.928 285.815C20.9592 280.327 19.1044 274.966 17.2961 269.588C16.4833 267.171 15.7635 264.718 14.8988 262.092C14.7962 261.904 14.9675 261.762 14.8593 261.755C14.5383 260.931 14.3255 260.115 14.0054 259.119C13.8981 258.939 14.0277 258.745 13.9216 258.708C13.1371 255.956 12.4586 253.243 11.7548 250.326Z" fill="#6B63DF"/>
<path d="M350.907 46.7281C349.829 46.7819 348.95 46.3814 348.064 46.073C337.708 42.469 327.123 39.8976 316.382 38.0072C311.132 37.0834 305.854 36.4838 300.557 35.9549C292.095 35.1097 283.619 35.2924 275.169 35.6802C264.514 36.1691 254.047 38.2411 243.771 41.3285C243.324 41.4629 242.85 41.4959 242.203 41.5933C244.585 39.6044 247.625 38.6958 250.545 37.5666C258.659 34.4292 267.034 32.3749 275.569 31.0159C281.147 30.1278 286.756 29.7599 292.38 29.4002C296.69 29.1245 301 28.8922 305.292 29.1358C311.999 29.5165 318.709 29.8326 325.387 30.8457C333.37 32.057 341.254 33.7307 349.292 35.6921C351.15 39.3199 351.956 43.2005 352.869 47.1555C352.404 47.2552 352.059 47.1998 351.542 47.1091C351.259 46.9625 351.14 46.8615 350.907 46.7281Z" fill="#FF89F0"/>
<path d="M464.047 132.815C463.123 132.299 462.832 131.213 462.391 130.154C459.838 124.03 456.707 118.248 452.867 112.927C450.396 109.504 447.874 106.135 445.156 102.912C441.419 98.4796 437.352 94.4574 432.939 90.8502C423.974 83.5232 414.52 76.9949 404.526 71.3435C400.093 68.8365 395.575 66.5159 391.018 63.9095C390.468 63.017 390.572 62.1821 390.739 61.3876C391.327 58.588 391.554 55.7253 392.232 52.7535C396.407 54.2455 400.147 56.5354 403.865 58.8365C410.774 63.1134 417.492 67.7281 423.693 73.1129C427.186 76.1463 430.697 79.1652 433.962 82.5019C439.461 88.1204 444.765 93.923 449.258 100.489C455.142 109.089 460.218 118.177 463.263 128.407C463.665 129.758 464.107 131.102 464.047 132.815Z" fill="#FE98BD"/>
<path d="M406.543 155.355C406.334 158.288 406.014 158.632 403.415 158.621C400.84 158.609 398.298 158.516 395.852 159.758C394.323 160.535 392.694 160.254 391.103 159.483C388.978 158.454 386.893 157.296 384.427 156.674C383.333 156.757 382.822 156.055 382.292 155.473C376.615 149.249 370.536 143.51 364.079 138.223C363.644 137.867 363.205 137.51 363.079 136.725C366.14 137.312 369.262 137.392 372.327 137.904C373.115 138.035 373.706 137.704 374.317 137.359C376.182 136.306 378.029 135.217 379.884 134.145C381.771 133.053 383.773 132.546 385.936 132.467C387.438 132.413 389.05 132.409 390.438 131.064C392.848 132.386 393.9 134.916 395.31 137.063C398.981 142.651 402.455 148.385 405.999 154.068C406.212 154.411 406.344 154.812 406.543 155.355Z" fill="#F396F1"/>
<path d="M160.865 387.397C161.865 386.669 162.966 386.02 164.111 385.479C167.5 383.879 169.228 380.99 169.854 377.224C169.909 376.896 169.818 376.51 169.948 376.233C170.831 374.349 170.783 372.405 170.371 370.211C173.789 371.27 176.923 373.189 180.223 374.723C188.382 378.517 196.788 381.394 205.639 382.549C209.841 383.097 214.086 383.048 218.571 382.256C217.058 383.526 215.469 384.005 213.984 384.667C209.287 386.761 204.618 388.92 199.827 390.777C190.403 394.43 180.939 394.243 171.431 391.324C167.896 390.239 164.377 389.076 160.865 387.397Z" fill="#59A8FF"/>
<path d="M130.735 291.038C130.563 291.275 130.226 291.271 130.133 291.43C128.386 294.409 125.844 296.705 123.979 299.581C123.846 299.786 123.705 299.994 123.532 300.16C120.55 303.01 118.178 306.474 115.309 309.439C115.084 309.672 114.875 309.924 114.638 310.142C111.999 312.568 110.902 312.295 109.489 308.861C109.241 308.256 109.109 307.564 108.221 307.327C107.693 303.625 108.169 299.963 108.306 296.298C108.453 292.371 108.841 288.455 109.031 284.529C109.152 282.016 109.849 279.866 111.395 277.883C113.247 275.508 114.822 272.887 116.522 270.378C116.971 269.716 117.257 268.913 117.934 268.454C118.094 268.542 118.3 268.579 118.346 268.69C121.482 276.317 125.5 283.384 130.222 290.006C130.409 290.269 130.531 290.584 130.735 291.038Z" fill="#6478EE"/>
<path d="M293.506 6.88122C282.692 6.26128 271.951 6.26845 261.196 6.79621C254.213 7.13889 247.254 7.73234 240.317 8.56412C231.974 9.56445 223.679 10.9543 215.424 12.6013C206.394 14.4033 197.467 16.6759 188.441 19.303C186.793 17.3225 186.814 14.8113 186.206 12.3546C191.569 10.3188 197.032 9.16279 202.486 8.00691C214.114 5.5429 225.855 4.03498 237.695 3.26522C246.248 2.70911 254.801 2.62729 263.346 3.02248C273.294 3.48264 283.207 4.49799 293.209 6.44853C293.462 6.53357 293.52 6.63039 293.506 6.88122Z" fill="#5A8BFC"/>
<path d="M392.277 52.4566C392.69 56.2973 391.652 59.807 390.941 63.5782C386.597 61.7805 382.298 59.7591 377.985 57.7724C371.005 54.5578 363.906 51.6742 356.701 49.0815C355.442 48.6282 354.22 48.0536 352.865 47.4228C352.731 47.0626 352.79 46.7667 352.684 46.5738C350.902 43.3367 350.3 39.6941 349.483 35.9346C361.355 38.874 372.884 43.0861 384.125 48.2266C386.865 49.4801 389.518 50.9082 392.277 52.4566Z" fill="#FD8FF0"/>
<path d="M442.963 184.111C440.463 182.324 438.413 180.266 436.48 178.057C435.401 176.824 435.202 175.653 435.847 173.993C439.216 165.323 441.678 156.354 443.229 147.11C443.45 145.796 443.603 144.467 443.742 143.14C443.966 141.012 443.64 138.995 442.723 137.062C441.308 134.08 439.888 131.094 439.013 127.861C438.735 126.835 438.361 125.818 438.848 124.554C440.608 125.468 441.886 126.917 443.312 128.174C445.406 130.02 446.594 132.231 446.914 135.176C447.626 141.722 448.594 148.229 449.061 154.815C449.524 161.335 449.404 167.845 449.421 174.362C449.432 178.126 449.125 181.871 448.599 185.589C448.34 187.419 447.824 187.609 446.252 186.772C445.047 186.129 444.195 185.003 442.963 184.111Z" fill="#6BBFFE"/>
<path d="M8.2989 302.168C7.56808 302.459 7.00475 302.749 6.43348 303.02C4.05531 304.148 2.59781 303.601 1.4988 301.053C0.674147 299.141 0.262224 297.105 0.128081 294.996C-0.30502 288.186 0.399043 281.474 1.65547 274.815C2.73799 269.078 4.22968 263.452 5.86324 257.868C5.98165 257.463 6.1006 257.071 6.65875 256.797C8.07625 261.576 9.52299 266.322 10.8886 271.095C12.3957 276.361 13.7955 281.663 15.3151 286.925C15.727 288.351 16.3676 289.709 16.9664 291.067C17.7285 292.794 17.7742 292.8 16.4285 294.231C14.9847 295.766 13.5025 297.261 11.9532 298.907C11.0846 300.515 9.83936 301.417 8.2989 302.168Z" fill="#6769E3"/>
<path d="M105.81 306.607C105.475 306.575 105.323 306.299 105.301 305.948C105.266 305.351 105.195 304.699 104.581 304.519C103.827 304.298 103.184 304.775 102.764 305.353C102.295 305.999 101.978 306.78 101.651 307.531C100.797 309.496 99.3863 310.61 97.1887 310.825C97.2449 306.737 97.9412 302.707 98.4754 298.659C99.4047 291.617 100.109 284.553 100.59 277.462C101.19 268.606 101.122 259.745 100.901 250.706C102.145 251.212 102.951 252.375 104.104 253.1C104.941 253.627 105.505 253.539 106.169 252.884C107.549 251.524 108.632 249.918 109.656 248.259C109.997 247.707 110.293 247.125 110.637 246.575C112.103 244.23 112.107 244.233 114.12 246.019C114.124 247.231 113.551 248.256 113.056 249.277C110.168 255.231 109.036 261.691 108.038 268.213C107.013 274.913 107.169 281.69 106.729 288.426C106.337 294.417 106.16 300.424 105.81 306.607Z" fill="#6478EE"/>
<path d="M401.029 245.226C401.94 244.986 402.543 245.32 402.786 246.322C403 247.207 403.32 248.065 403.621 248.925C404.216 250.621 405.353 251.147 406.637 250.061C407.584 249.259 408.509 248.977 409.649 249.028C411.292 249.102 412.561 248.383 413.244 246.752C413.91 245.161 415.079 244.002 416.305 243.007C417.398 242.12 418.255 241.183 418.886 239.872C419.863 237.845 421.97 237.248 423.746 236.004C422.767 239.965 421.277 243.804 419.689 247.603C416.669 254.828 413.693 262.074 410.626 269.277C409.301 272.388 407.798 275.413 406.256 278.588C406.059 278.688 405.957 278.708 405.909 278.662C404.609 277.418 403.297 276.845 401.808 278.389C401.465 278.745 400.926 278.681 400.478 278.452C399.816 278.114 399.112 278.185 398.218 278.165C398.23 275.336 399.244 272.691 399.639 269.899C400.136 266.381 400.645 262.876 400.977 259.327C401.318 255.673 401.296 252.036 401.335 248.387C401.346 247.382 401.269 246.397 401.029 245.226Z" fill="#D5AAF9"/>
<path d="M135.572 39.9009C129.753 43.7772 123.618 46.6807 117.943 50.4621C116.29 51.5633 114.629 52.6514 112.876 53.8757C112.567 54.6193 112.003 54.7342 111.389 55.0411C111.015 55.1837 110.796 55.2844 110.517 55.4976C106.369 59.249 101.973 62.4286 97.342 65.5508C97.1843 65.6077 97.2544 65.5929 97.2188 65.5898C96.8654 66.3317 96.2371 66.6854 95.4497 67.0733C95.306 67.1269 95.3806 67.1225 95.344 67.1144C93.3995 69.5638 91.0622 71.4631 88.3375 73.12C85.9721 74.7858 84.0325 76.7423 82.1004 78.688C75.8271 85.0054 69.7222 91.4998 64.1823 98.5711C63.7231 99.1573 63.3575 99.9599 62.2942 100.028C62.3479 98.7218 63.1183 97.8608 63.6798 97.1124C71.4957 86.6958 79.8641 76.8266 89.1723 67.8714C92.6575 64.5183 96.1448 61.1404 99.8337 58.0863C107.97 51.3503 116.21 44.7287 125.21 39.2986C127.863 37.6974 130.55 36.1574 133.392 34.5548C134.294 36.2511 135.768 37.6391 135.572 39.9009Z" fill="#6B5DDA"/>
<path d="M258.092 221.354C258.532 221.846 258.867 222.201 259.176 222.58C263.353 227.7 263.581 232.832 259.87 238.332C258.347 240.588 256.424 242.452 254.576 244.386C251.495 247.612 248.363 250.783 245.555 254.293C243.193 257.247 241.169 260.406 240.033 264.137C239.915 264.524 239.845 264.956 239.328 265.264C238.728 262.715 239.186 260.317 239.879 257.954C240.688 255.199 242.196 252.847 243.794 250.555C246.377 246.852 249.466 243.616 252.261 240.109C254.297 237.554 255.58 234.67 255.749 231.255C255.921 227.787 254.796 224.844 252.706 222.289C251.211 220.461 249.612 218.729 248.07 216.944C246.794 215.467 245.526 213.982 244.269 212.487C240.914 208.501 239.854 203.776 240.314 198.57C240.512 198.483 240.657 198.534 240.72 198.733C242.69 204.962 246.648 209.684 250.991 214.114C253.318 216.486 255.646 218.857 258.092 221.354Z" fill="#6E53CE"/>
<path d="M82.7691 358.383C81.8409 358.506 81.3962 357.853 80.8549 357.395C75.7535 353.077 70.9136 348.44 66.1322 343.73C63.9467 341.577 61.8261 339.321 59.1449 337.84C57.3261 336.836 56.0091 335.307 55.1759 333.374C54.0064 330.661 52.1911 328.527 50.2549 326.439C42.4535 318.025 36.0808 308.373 29.4145 298.976C29.1891 298.658 28.9036 298.334 29.1606 297.657C30.9092 298.276 32.5049 299.115 33.8175 300.575C37.0786 304.203 39.9107 308.216 42.9111 312.076C51.6853 323.364 61.1644 333.905 71.6664 343.396C75.9736 347.288 80.2907 351.16 84.9074 354.888C84.856 355.179 84.6993 355.285 84.3845 355.4C83.4061 356.181 83.5777 357.464 82.7691 358.383Z" fill="#59A8FF"/>
<path d="M225.346 441.345C224.965 442.748 224.476 444.065 223.896 445.335C223.465 446.277 223.765 447.094 224.028 447.979C225.121 451.657 223.464 455.445 220.181 456.971C219.186 457.433 218.271 458.086 217.285 458.573C216.222 459.098 215.129 459.553 213.914 459.497C212.055 459.412 210.657 460.392 209.972 462.091C209.268 463.838 208.144 464.185 206.611 464.017C205.914 463.94 205.205 463.96 204.517 463.836C202.641 463.497 202.252 463.879 202.581 465.853C202.621 466.095 202.742 466.321 202.851 466.737C202.507 466.912 202.138 466.904 201.64 466.848C201.495 466.134 201.546 465.459 201.452 464.807C201.073 462.178 202.384 460.765 204.487 459.908C206.376 459.139 208.267 458.376 210.168 457.642C213.312 456.428 215.856 452.224 215.609 448.671C215.529 447.524 215.084 446.587 214.317 445.833C213.586 445.114 213.139 444.318 213.238 443.214C213.316 442.339 212.949 441.571 212.47 440.914C212.01 440.285 211.779 439.628 211.831 438.652C215.505 438.858 219.034 440.067 222.673 440.671C223.523 440.812 224.359 441.047 225.346 441.345Z" fill="#5BB2FF"/>
<path d="M135.635 40.0838C135.563 39.1465 135.149 38.4965 134.586 37.8644C133.864 37.0549 133.503 36.0597 133.568 34.7196C133.761 34.2701 133.91 33.9142 134.162 33.7853C139.784 30.9044 145.428 28.0709 151.046 25.1798C154.595 23.3534 158.407 22.2506 162.18 20.5406C163.726 20.7296 163.722 21.9815 163.829 22.9774C163.977 24.3592 164.529 25.7481 163.865 27.3436C161.57 28.7013 159.22 29.3972 156.955 30.3262C150.655 32.9104 144.482 35.8055 138.392 38.9029C137.544 39.334 136.671 39.7094 135.635 40.0838Z" fill="#6769E3"/>
<path d="M84.031 355.204C84.3607 355.022 84.5397 355.024 84.8527 355.028C87.2233 356.251 89.0984 358.036 91.1329 359.566C97.8413 364.614 104.707 369.399 111.737 373.918C112.674 374.52 113.644 375.082 114.507 375.79C115.695 376.764 116.699 377.836 116.533 379.724C116.396 381.283 117.419 382.524 118.116 384.032C118.22 384.312 118.228 384.429 118.143 384.691C114.458 382.951 111.148 380.563 107.816 378.223C99.7712 372.574 91.8402 366.752 84.249 360.153C82.9094 358.561 83.5357 356.966 84.031 355.204Z" fill="#55A7FF"/>
<path d="M151.464 403.058C149.167 402.948 147.279 401.48 145.279 400.411C138.197 396.626 131.239 392.585 124.335 388.439C123.019 387.649 122.185 386.713 121.818 385.084C121.46 383.499 120.709 382.015 120.13 380.484C120.332 380.408 120.516 380.271 120.59 380.32C127.019 384.67 134.218 387.114 141.371 389.575C144.332 390.593 146.453 391.86 147.41 395.262C148.193 398.05 150.047 400.369 151.464 403.058Z" fill="#59A8FF"/>
<path d="M163.927 27.5199C163.435 25.2574 163.441 22.9327 162.485 20.64C165.801 18.7716 169.467 17.671 173.069 16.3882C177.307 14.879 181.53 13.3142 186.078 12.197C187.428 14.2516 187.764 16.6136 188.256 19.1146C183.105 21.003 177.938 22.6773 172.79 24.4141C169.88 25.3955 167.002 26.4796 163.927 27.5199Z" fill="#6478EE"/>
<path d="M225.436 229.206C225.216 225.076 226.966 222.329 230.033 220.364C232.961 218.487 236.267 217.734 239.516 218.487C238.814 218.629 238.111 218.761 237.412 218.915C231.726 220.167 229.375 226.29 232.583 231.495C233.41 232.838 234.502 233.919 235.637 234.953C236.829 236.039 238.04 237.103 239.242 238.176C241.735 240.4 242.841 243.174 242.181 246.637C242.029 247.436 242.104 248.291 241.697 249.03C241.532 248.988 241.298 248.994 241.266 248.912C239.606 244.619 236.401 241.816 233.023 239.18C231.314 237.847 229.581 236.543 228.151 234.855C226.819 233.282 225.709 231.58 225.436 229.206Z" fill="#6E53CE"/>
<path d="M456.347 175.011C458.105 176.691 459.297 178.773 460.272 180.941C462.291 185.432 464.295 189.943 465.671 194.724C465.736 194.951 465.711 195.206 465.743 195.66C462.117 196.063 459.196 194.648 456.698 192.067C456.26 191.614 455.986 190.967 455.36 190.736C454.241 190.325 453.985 189.375 454.195 188.329C455.044 184.087 455.418 179.776 455.986 175.275C456.021 175.063 456.241 175.043 456.347 175.011Z" fill="#6BBFFE"/>
<path d="M445.216 126.345C443.736 124.626 441.991 122.952 440.346 121.176C439.738 120.519 439.153 119.857 439.143 118.833C439.107 115.269 439.714 111.796 440.449 108.276C442.677 114.065 444.197 120.014 445.216 126.345Z" fill="#6BBFFE"/>
<path d="M428.185 103.214C425.08 101.283 422.287 98.7115 419.378 96.3071C416.462 93.8965 413.438 91.6531 410.393 89.4368C409.36 88.6845 408.378 87.889 407.477 86.7449C411.11 87.0224 423.274 96.7041 428.185 103.214Z" fill="#6B63DF"/>
<path d="M54.1624 111.517C54.5658 109.88 55.4795 108.653 56.3792 107.392C57.6021 105.676 58.7063 103.865 59.8635 102.097C60.0846 101.759 60.2644 101.361 60.5544 101.111C60.9005 100.812 61.3745 100.475 61.7923 100.938C62.1273 101.309 61.83 101.712 61.5956 102.035C60.7829 103.154 59.9566 104.261 59.1342 105.372C57.635 107.396 56.1349 109.42 54.5078 111.563C54.3804 111.682 54.1998 111.611 54.1624 111.517Z" fill="#D2AEFA"/>
<path d="M278.629 414.2C277.844 415.145 276.795 414.788 275.637 414.504C276.46 413.793 277.476 414.002 278.629 414.2Z" fill="#6BBFFE"/>
<path d="M411.205 309.469C412.588 310.288 412.497 310.914 410.754 311.754C410.748 311.036 410.93 310.33 411.205 309.469Z" fill="#65BDFF"/>
<path d="M259.767 414.28C259.229 415.003 258.511 414.867 257.673 414.432C258.238 413.845 258.94 413.988 259.767 414.28Z" fill="#6BBFFE"/>
<path d="M348.891 72.6495C348.368 73.4702 347.635 73.307 346.78 72.8919C347.32 72.1417 348.04 72.2662 348.891 72.6495Z" fill="#F396F1"/>
<path d="M208.883 406.252C208.619 406.794 208.21 406.823 207.679 406.386C207.971 405.946 208.373 405.964 208.883 406.252Z" fill="#6BBFFE"/>
<path d="M284.816 413.744C284.716 414.157 284.486 414.322 284.062 413.978C284.186 413.599 284.434 413.526 284.816 413.744Z" fill="#6BBFFE"/>
<path d="M251.808 413.781C251.669 414.189 251.417 414.296 251.032 413.914C251.197 413.551 251.454 413.528 251.808 413.781Z" fill="#6BBFFE"/>
<path d="M289.515 413.184C289.443 413.624 289.217 413.853 288.762 413.455C288.893 413.146 289.124 413.052 289.515 413.184Z" fill="#6BBFFE"/>
<path d="M247.095 413.274C246.95 413.688 246.694 413.79 246.311 413.393C246.482 413.029 246.742 413.015 247.095 413.274Z" fill="#6BBFFE"/>
<path d="M292.831 412.732C292.742 413.143 292.518 413.316 292.087 412.997C292.197 412.609 292.441 412.521 292.831 412.732Z" fill="#6BBFFE"/>
<path d="M243.319 412.796C243.168 413.201 242.913 413.287 242.542 412.902C242.715 412.544 242.972 412.528 243.319 412.796Z" fill="#6BBFFE"/>
<path d="M258.127 433.395C258.266 432.981 258.52 432.869 258.909 433.262C258.742 433.624 258.484 433.647 258.127 433.395Z" fill="#6BBFFE"/>
<path d="M265.198 433.903C265.331 433.49 265.583 433.369 265.978 433.758C265.817 434.13 265.558 434.147 265.198 433.903Z" fill="#6BBFFE"/>
<path d="M217.099 466.606C217.196 466.194 217.427 466.009 217.869 466.366C217.733 466.725 217.478 466.782 217.099 466.606Z" fill="#5BB2FF"/>
<path d="M196.374 466.545C196.514 466.127 196.77 466.017 197.158 466.424C196.985 466.778 196.724 466.773 196.374 466.545Z" fill="#5BB2FF"/>
<path d="M188.39 465.517C188.539 465.051 188.807 464.98 189.155 465.453C188.974 465.717 188.734 465.719 188.39 465.517Z" fill="#5BB2FF"/>
<path d="M206.747 467.036C206.862 466.631 207.1 466.493 207.5 466.862C207.353 467.208 207.103 467.239 206.747 467.036Z" fill="#5BB2FF"/>
<path d="M464.455 134.395C464.826 134.75 465.022 135.065 464.646 135.268C464.294 135.458 464.144 135.102 464.075 134.62C464.158 134.404 464.249 134.335 464.455 134.395Z" fill="#F5F9FD"/>
<path d="M470.341 236.38C469.986 236.243 469.897 235.982 470.114 235.567C470.501 235.675 470.661 235.922 470.341 236.38Z" fill="#F5F9FD"/>
<path d="M291.12 433.931C291.23 433.522 291.468 433.364 291.888 433.719C291.749 434.089 291.497 434.151 291.12 433.931Z" fill="#6BBFFE"/>
<path d="M511.773 267.05C511.422 266.876 511.382 266.602 511.643 266.217C512.036 266.367 512.141 266.636 511.773 267.05Z" fill="#F5F9FD"/>
<path d="M234.117 430.352C234.278 429.875 234.553 429.844 234.899 430.297C234.715 430.569 234.469 430.579 234.117 430.352Z" fill="#6BBFFE"/>
<path d="M231.289 429.849C231.456 429.368 231.732 429.345 232.073 429.805C231.885 430.076 231.639 430.081 231.289 429.849Z" fill="#6BBFFE"/>
<path d="M216.675 426.83C216.858 426.344 217.137 426.342 217.465 426.817C217.266 427.078 217.018 427.072 216.675 426.83Z" fill="#6BBFFE"/>
<path d="M464.548 134.354C464.486 134.52 464.402 134.516 464.193 134.493C464.044 134.126 464.02 133.778 463.984 133.257C463.971 133.084 464.039 133.022 464.074 132.992C464.509 133.268 464.498 133.734 464.548 134.354Z" fill="#FE98BD"/>
<path d="M243.238 119.868C243.302 119.987 243.235 120.152 243.06 120.39C242.951 120.464 242.727 120.463 242.615 120.464C242.705 120.282 242.906 120.098 243.238 119.868Z" fill="#F396F1"/>
<path d="M242.005 41.5951C241.889 41.6927 241.782 41.8059 241.658 41.8926C241.628 41.9136 241.544 41.8473 241.485 41.8212C241.595 41.7611 241.706 41.7009 241.917 41.6255C242.019 41.6104 242.008 41.6009 242.005 41.5951Z" fill="#FF89F0"/>
<path d="M452.618 200.07C452.49 200.153 452.291 200.152 451.942 200.148C452.009 199.903 452.247 199.78 452.618 200.07Z" fill="#F5F9FD"/>
<path d="M445.243 126.52C445.497 126.71 445.773 126.87 445.385 127.165C445.326 127.042 445.267 126.919 445.21 126.685C445.212 126.575 445.213 126.499 445.243 126.52Z" fill="#F5F9FD"/>
<path d="M50.8658 117.172C50.8825 117.201 50.8491 117.143 50.8658 117.172Z" fill="#F5F9FD"/>
<path d="M484.627 327.296C484.54 327.225 484.567 327.142 484.735 327.078C484.804 327.07 484.668 327.257 484.627 327.296Z" fill="#F5F9FD"/>
<path d="M244.722 118.496C244.734 118.581 244.635 118.714 244.419 118.886C244.405 118.798 244.508 118.67 244.722 118.496Z" fill="#F396F1"/>
<path d="M28.4743 204.528C28.4713 204.518 28.5193 204.586 28.4792 204.575C28.439 204.563 28.4773 204.538 28.4743 204.528Z" fill="#F5F9FD"/>
<path d="M444.591 206.7C444.474 206.646 444.485 206.546 444.654 206.414C444.709 206.469 444.678 206.559 444.591 206.7Z" fill="#F5F9FD"/>
<path d="M247.061 116.459C247.077 116.551 246.978 116.691 246.757 116.868C246.739 116.773 246.843 116.641 247.061 116.459Z" fill="#F396F1"/>
<path d="M192.949 333.33C193.023 333.391 192.826 333.392 192.826 333.392C192.826 333.392 192.647 333.303 192.586 333.224C192.646 333.176 192.762 333.217 192.949 333.33Z" fill="#6BBFFE"/>
<path d="M451.732 375.597C451.886 375.488 452.011 375.509 452.323 375.566C452.393 375.76 452.275 375.918 452.052 376.176C451.946 376.276 451.799 376.129 451.722 376.056C451.665 375.898 451.684 375.812 451.732 375.597Z" fill="#5EBAFF"/>
<path d="M33.191 196.478C33.1831 196.486 33.2498 196.494 33.2317 196.466C33.2136 196.438 33.199 196.471 33.191 196.478Z" fill="#F5F9FD"/>
<path d="M158.052 386.293C158.133 386.192 158.268 386.234 158.458 386.413C158.528 386.498 158.31 386.498 158.31 386.498C158.31 386.498 158.12 386.385 158.052 386.293Z" fill="#59A8FF"/>
<path d="M350.872 46.7841C350.946 46.7439 351.093 46.8029 351.305 46.9678C351.207 47.0665 351.065 47.003 350.872 46.7841Z" fill="#EB9DF2"/>
<path d="M444.588 394.07C444.487 394.012 444.503 393.924 444.668 393.828C444.736 393.805 444.625 394.023 444.588 394.07Z" fill="#F5F9FD"/>
<path d="M410.39 396.667C410.297 396.521 410.375 396.384 410.645 396.302C410.703 396.447 410.61 396.553 410.39 396.667Z" fill="#F5F9FD"/>
<path d="M409.489 397.182C409.385 397.045 409.448 396.914 409.704 396.846C409.757 396.98 409.676 397.073 409.489 397.182Z" fill="#F5F9FD"/>
<path d="M408.578 397.673C408.47 397.539 408.524 397.421 408.765 397.385C408.807 397.512 408.736 397.587 408.578 397.673Z" fill="#F5F9FD"/>
<path d="M151.485 403.239C151.478 403.244 151.642 403.358 151.642 403.358C151.642 403.358 151.537 403.325 151.519 403.272C151.502 403.22 151.492 403.235 151.485 403.239Z" fill="#59A8FF"/>
<path d="M240.908 121.913C240.922 122.003 240.826 122.169 240.59 122.373C240.566 122.27 240.681 122.129 240.908 121.913Z" fill="#F396F1"/>
<path d="M456.402 174.937C456.454 174.98 456.243 175.057 456.132 175.06C456.098 174.92 456.208 174.863 456.402 174.937Z" fill="#F5F9FD"/>
<path d="M430.885 418.208C430.798 418.137 430.825 418.052 430.994 417.981C431.063 417.969 430.927 418.167 430.885 418.208Z" fill="#F5F9FD"/>
<path d="M143.182 124.048C143.128 123.945 143.197 123.78 143.379 123.544C143.429 123.644 143.367 123.815 143.182 124.048Z" fill="#6B63DF"/>
<path d="M38.7227 260.983C38.7132 261 38.7331 260.884 38.7648 260.906C38.7965 260.929 38.7322 260.967 38.7227 260.983Z" fill="#F5F9FD"/>
<path d="M44.3382 248.938C44.3032 248.974 44.3801 248.758 44.4374 248.75C44.4947 248.741 44.3733 248.903 44.3382 248.938Z" fill="#F5F9FD"/>
<path d="M43.5369 250.779C43.5408 250.795 43.4779 250.734 43.5196 250.716C43.5614 250.698 43.533 250.762 43.5369 250.779Z" fill="#F5F9FD"/>
<path d="M43.0327 251.825C43.0387 251.814 43.0075 251.842 43.0367 251.853C43.0659 251.863 43.0266 251.837 43.0327 251.825Z" fill="#F5F9FD"/>
<path d="M428.716 103.895C428.756 103.877 428.676 103.913 428.716 103.895Z" fill="#6B63DF"/>
<path d="M13.8269 258.717C13.9102 258.686 13.9652 258.743 13.9393 258.892C13.8981 258.939 13.8382 258.763 13.8269 258.717Z" fill="#F5F9FD"/>
<path d="M39.2599 259.87C39.2675 259.86 39.2332 259.883 39.2623 259.895C39.2913 259.906 39.2524 259.881 39.2599 259.87Z" fill="#F5F9FD"/>
<path d="M430.945 247.884C430.917 247.928 430.859 247.802 430.859 247.802C430.859 247.802 430.936 247.689 431 247.669C431.065 247.649 430.972 247.84 430.945 247.884Z" fill="#F5F9FD"/>
<path d="M425.693 260.978C425.592 260.906 425.618 260.801 425.796 260.681C425.847 260.746 425.805 260.84 425.693 260.978Z" fill="#F5F9FD"/>
<path d="M14.7617 261.773C14.7511 261.747 14.8866 261.866 14.8414 261.885C14.7962 261.904 14.7723 261.798 14.7617 261.773Z" fill="#F5F9FD"/>
<path d="M428.694 103.888C428.596 103.766 428.486 103.654 428.292 103.457C428.214 103.368 428.205 103.386 428.196 103.392C428.342 103.451 428.465 103.551 428.616 103.804C428.676 103.913 428.685 103.893 428.694 103.888Z" fill="#6B63DF"/>
<path d="M464.379 277.025C464.261 276.967 464.274 276.859 464.447 276.717C464.508 276.776 464.476 276.874 464.379 277.025Z" fill="#F5F9FD"/>
<path d="M19.9843 221.115C19.9844 221.098 20.0311 221.197 19.9865 221.193C19.9418 221.19 19.9842 221.133 19.9843 221.115Z" fill="#F5F9FD"/>
<path d="M463.954 278.507C463.926 278.558 463.859 278.428 463.859 278.428C463.859 278.428 463.931 278.3 463.996 278.268C464.06 278.235 463.981 278.457 463.954 278.507Z" fill="#F5F9FD"/>
<path d="M463.518 279.99C463.504 280.027 463.48 279.836 463.538 279.819C463.596 279.802 463.531 279.952 463.518 279.99Z" fill="#F5F9FD"/>
<path d="M508.68 281.054C508.567 280.989 508.585 280.88 508.761 280.743C508.821 280.805 508.785 280.904 508.68 281.054Z" fill="#F5F9FD"/>
<path d="M56.3288 228.525C56.4938 228.549 56.5142 228.669 56.3632 228.876C56.2468 228.83 56.2443 228.715 56.3288 228.525Z" fill="#D2AEFA"/>
<path d="M437.501 230.324C437.392 230.26 437.411 230.159 437.584 230.038C437.636 230.097 437.599 230.187 437.501 230.324Z" fill="#F5F9FD"/>
<path d="M442.552 230.068C442.588 230.126 442.543 230.225 442.416 230.367C442.377 230.309 442.423 230.208 442.552 230.068Z" fill="#F5F9FD"/>
<path d="M50.5886 233.237C50.5855 233.271 50.536 233.12 50.5819 233.096C50.6278 233.073 50.5918 233.204 50.5886 233.237Z" fill="#F5F9FD"/>
<path d="M436.067 234.351C435.961 234.281 435.985 234.173 436.163 234.042C436.219 234.107 436.179 234.205 436.067 234.351Z" fill="#F5F9FD"/>
<path d="M49.6545 235.735C49.6545 235.762 49.5991 235.64 49.6431 235.62C49.687 235.6 49.6545 235.707 49.6545 235.735Z" fill="#F5F9FD"/>
<path d="M462.51 283.549C462.393 283.496 462.404 283.398 462.571 283.27C462.625 283.324 462.594 283.411 462.51 283.549Z" fill="#F5F9FD"/>
<path d="M435.153 236.85C435.044 236.79 435.061 236.693 435.231 236.578C435.279 236.635 435.244 236.72 435.153 236.85Z" fill="#F5F9FD"/>
<path d="M48.7015 238.263C48.6979 238.297 48.6502 238.143 48.6962 238.119C48.7423 238.096 48.705 238.229 48.7015 238.263Z" fill="#F5F9FD"/>
<path d="M434.226 239.353C434.116 239.3 434.128 239.21 434.294 239.102C434.338 239.154 434.305 239.231 434.226 239.353Z" fill="#F5F9FD"/>
<path d="M47.7383 240.812C47.7299 240.845 47.6971 240.678 47.7492 240.667C47.8012 240.655 47.7466 240.779 47.7383 240.812Z" fill="#F5F9FD"/>
<path d="M433.282 241.866C433.173 241.813 433.186 241.723 433.351 241.617C433.395 241.67 433.361 241.746 433.282 241.866Z" fill="#F5F9FD"/>
<path d="M46.3407 244.309C46.3399 244.329 46.293 244.219 46.3388 244.22C46.3847 244.221 46.3416 244.289 46.3407 244.309Z" fill="#F5F9FD"/>
<path d="M432.319 244.388C432.213 244.326 432.231 244.228 432.402 244.114C432.45 244.172 432.413 244.257 432.319 244.388Z" fill="#F5F9FD"/>
<path d="M444.007 226.039C444.043 226.105 443.988 226.22 443.849 226.395C443.795 226.324 443.845 226.202 444.007 226.039Z" fill="#F5F9FD"/>
<path d="M489.325 320.266C489.237 320.19 489.269 320.097 489.446 320.014C489.481 320.079 489.433 320.154 489.325 320.266Z" fill="#F5F9FD"/>
<path d="M441.769 216.743C441.652 216.692 441.661 216.595 441.829 216.47C441.882 216.523 441.851 216.608 441.769 216.743Z" fill="#F5F9FD"/>
<path d="M454.084 309.619C454.066 309.666 453.99 309.561 453.99 309.561C453.99 309.561 454.05 309.444 454.106 309.411C454.162 309.377 454.102 309.573 454.084 309.619Z" fill="#F5F9FD"/>
<path d="M494.567 311.703C494.539 311.739 494.496 311.617 494.496 311.617C494.496 311.617 494.579 311.522 494.641 311.52C494.703 311.518 494.595 311.668 494.567 311.703Z" fill="#F5F9FD"/>
<path d="M53.4209 312.567C53.4114 312.564 53.4937 312.647 53.4618 312.616C53.43 312.584 53.4304 312.569 53.4209 312.567Z" fill="#F5F9FD"/>
<path d="M452.681 313.627C452.668 313.67 452.643 313.47 452.697 313.44C452.75 313.411 452.695 313.585 452.681 313.627Z" fill="#F5F9FD"/>
<path d="M451.272 317.641C451.26 317.681 451.232 317.492 451.284 317.464C451.337 317.436 451.283 317.6 451.272 317.641Z" fill="#F5F9FD"/>
<path d="M490.278 318.755C490.188 318.682 490.217 318.591 490.391 318.51C490.425 318.572 490.379 318.645 490.278 318.755Z" fill="#F5F9FD"/>
<path d="M450.759 319.196C450.735 319.24 450.669 319.122 450.669 319.122C450.669 319.122 450.74 319.007 450.803 318.985C450.865 318.962 450.783 319.151 450.759 319.196Z" fill="#F5F9FD"/>
<path d="M52.4739 309.52C52.4644 309.51 52.5748 309.605 52.5315 309.592C52.4881 309.578 52.4833 309.53 52.4739 309.52Z" fill="#F5F9FD"/>
<path d="M364.449 79.6438C364.351 79.6945 364.259 79.6127 364.153 79.4132C364.258 79.335 364.364 79.407 364.449 79.6438Z" fill="#FD8FF0"/>
<path d="M487.019 323.764C486.998 323.792 487.008 323.607 487.06 323.612C487.113 323.618 487.039 323.736 487.019 323.764Z" fill="#F5F9FD"/>
<path d="M24.6977 211.586C24.6878 211.594 24.7425 211.587 24.7058 211.58C24.6691 211.573 24.7075 211.578 24.6977 211.586Z" fill="#F5F9FD"/>
<path d="M443.485 227.562C443.523 227.619 443.481 227.716 443.357 227.855C443.319 227.798 443.363 227.701 443.485 227.562Z" fill="#F5F9FD"/>
<path d="M483.197 329.313C483.111 329.248 483.133 329.169 483.285 329.102C483.349 329.094 483.236 329.277 483.197 329.313Z" fill="#F5F9FD"/>
<path d="M185.376 330.832C185.308 330.912 185.189 330.872 185.034 330.697C185.097 330.65 185.206 330.7 185.376 330.832Z" fill="#6BBFFE"/>
<path d="M186.795 331.333C186.729 331.415 186.61 331.378 186.452 331.209C186.513 331.16 186.623 331.206 186.795 331.333Z" fill="#6BBFFE"/>
<path d="M188.212 331.834C188.145 331.917 188.026 331.88 187.866 331.708C187.927 331.661 188.038 331.708 188.212 331.834Z" fill="#6BBFFE"/>
<path d="M28.4341 296.871C28.5476 296.863 28.6547 296.958 28.7618 297.053C28.61 297.231 28.4987 297.204 28.4341 296.871Z" fill="#59A8FF"/>
<path d="M507.304 285.057C507.191 285.007 507.2 284.917 507.365 284.807C507.433 284.777 507.338 285.006 507.304 285.057Z" fill="#F5F9FD"/>
<path d="M504.967 291.077C504.942 291.119 504.88 291.001 504.88 291.001C504.88 291.001 504.954 290.891 505.017 290.874C505.08 290.857 504.991 291.035 504.967 291.077Z" fill="#F5F9FD"/>
<path d="M131.244 291.581C131.148 291.621 131.007 291.53 130.813 291.316C130.907 291.279 131.053 291.364 131.244 291.581Z" fill="#6478EE"/>
<path d="M458.81 295.558C458.801 295.589 458.771 295.426 458.826 295.419C458.881 295.411 458.82 295.527 458.81 295.558Z" fill="#F5F9FD"/>
<path d="M28.0148 296.803C27.8806 296.684 27.9004 296.585 27.9432 296.337C28.098 296.295 28.2298 296.404 28.401 296.64C28.4404 296.768 28.4531 296.75 28.46 296.741C28.3674 296.762 28.2681 296.793 28.0148 296.803Z" fill="#59A8FF"/>
<path d="M189.656 332.317C189.588 332.412 189.458 332.38 189.283 332.199C189.346 332.151 189.465 332.198 189.656 332.317Z" fill="#6BBFFE"/>
<path d="M458.321 297.081C458.305 297.119 458.225 297.025 458.225 297.025C458.225 297.025 458.291 296.918 458.35 296.903C458.41 296.888 458.338 297.043 458.321 297.081Z" fill="#F5F9FD"/>
<path d="M20.447 220.125C20.4425 220.116 20.5005 220.17 20.4582 220.165C20.416 220.16 20.4515 220.134 20.447 220.125Z" fill="#F5F9FD"/>
<path d="M247.547 115.965C247.566 116.051 247.477 116.188 247.277 116.373C247.257 116.286 247.347 116.151 247.547 115.965Z" fill="#F396F1"/>
<path d="M455.974 304.105C455.961 304.14 455.939 303.959 455.995 303.948C456.052 303.937 455.986 304.071 455.974 304.105Z" fill="#F5F9FD"/>
<path d="M498.802 304.167C498.701 304.108 498.717 304.026 498.883 303.949C498.95 303.935 498.836 304.125 498.802 304.167Z" fill="#F5F9FD"/>
<path d="M56.2552 217.16C56.2555 217.181 56.2019 217.075 56.2488 217.068C56.2956 217.062 56.2549 217.138 56.2552 217.16Z" fill="#F5F9FD"/>
<path d="M455.465 305.639C455.437 305.686 455.376 305.558 455.376 305.558C455.376 305.558 455.45 305.438 455.514 305.412C455.578 305.385 455.492 305.591 455.465 305.639Z" fill="#F5F9FD"/>
<path d="M496.899 307.693C496.804 307.628 496.826 307.542 496.995 307.463C497.064 307.448 496.939 307.65 496.899 307.693Z" fill="#F5F9FD"/>
<path d="M445.451 333.518C445.479 333.577 445.207 333.218 445.451 333.518Z" fill="#F5F9FD"/>
<path d="M289.527 132.637C296.771 130.18 304.029 128.192 311.457 127.131C316.71 126.381 322.022 125.987 327.324 126.908C328.167 127.055 329.029 127.082 330.031 127.286C330.141 128.166 330.563 128.6 331.079 129.047C331.736 129.618 331.679 130.174 330.807 130.463C330.361 130.611 329.846 130.903 329.452 130.787C327.955 130.343 326.517 131.002 325.087 130.937C321.995 130.798 319.049 131.639 316.036 132.016C314.906 132.158 313.911 132.735 313.044 133.394C311.242 134.762 309.163 135.202 307.102 135.453C303.995 135.83 300.999 136.765 297.911 137.218C297.065 137.342 296.228 137.517 295.368 137.538C294.822 137.552 294.21 137.458 293.745 137.685C291.2 138.928 288.479 139.599 285.842 140.539C283.121 141.51 280.601 142.993 277.77 143.738C275.606 144.307 273.667 145.733 271.428 146.272C270.651 146.459 269.897 146.587 269.115 146.571C266.686 146.521 264.276 146.532 261.935 147.435C260.954 147.813 259.939 147.554 258.955 147.148C258.362 146.904 258.05 146.579 258.041 145.891C258.03 145.109 258.254 144.585 259.266 144.571C259.866 144.559 260.187 144.275 260.704 144.112C263.329 143.819 265.451 142.453 267.626 141.384C274.459 138.028 281.489 135.273 288.861 132.954C289.193 132.911 289.327 132.834 289.527 132.637Z" fill="#FF89F0"/>
<path d="M260.855 143.958C260.574 144.599 260.33 145.175 259.529 144.683C259.667 144.039 260.01 143.677 260.716 143.575C260.865 143.652 260.861 143.739 260.855 143.958Z" fill="#EB9DF2"/>
<path d="M291.422 93.8563C291.527 94.2221 291.43 93.8015 291.422 93.8563Z" fill="#FEFFFF"/>
<path d="M291.508 93.8389C291.575 93.8744 291.52 93.4302 291.582 93.8128C291.495 93.8262 291.504 93.8342 291.508 93.8389Z" fill="#FEFFFF"/>
<path d="M398.864 334.503C398.909 334.592 398.844 334.755 398.676 334.999C398.633 334.911 398.694 334.743 398.864 334.503Z" fill="#6BBFFE"/>
<path d="M389.681 290.172C389.619 290.058 389.704 289.922 389.936 289.763C389.958 289.849 389.874 289.985 389.681 290.172Z" fill="#FEFFFF"/>
<path d="M289.498 132.583C289.503 132.674 289.392 132.793 289.161 132.931C289.154 132.837 289.269 132.724 289.498 132.583Z" fill="#EB9DF2"/>
</svg>
