<svg width="1920" height="1080" viewBox="0 0 1920 1080" fill="none" xmlns="http://www.w3.org/2000/svg">
<path d="M1282.82 448.114C1289.37 455.405 1295.25 462.985 1300.06 471.474C1306.03 482.017 1310.31 493.195 1311.73 505.843C1311.79 506.531 1311.79 506.888 1311.85 507.51C1311.88 510.101 1311.83 512.427 1311.86 514.753C1312.02 529.781 1309.44 544.398 1306.01 558.883C1304.88 563.652 1303.67 568.398 1302.49 573.479C1302.38 573.89 1302.27 573.976 1302.18 574.274C1302.05 574.897 1301.91 575.308 1301.76 576.046C1301.73 576.373 1301.4 576.532 1301.46 576.717C1301.36 577.346 1301.2 577.79 1301.01 578.59C1300.97 578.946 1300.63 579.008 1300.72 579.162C1300.36 580.841 1299.91 582.367 1299.43 584.233C1299.4 584.574 1299.07 584.786 1299.1 584.988C1297.2 591.444 1295.27 597.698 1293.29 604.263C1293.23 604.575 1292.89 604.582 1292.99 604.724C1292.92 605.329 1292.74 605.792 1292.51 606.627C1292.45 606.999 1292.11 607.057 1292.2 607.218C1291.09 610.904 1289.9 614.428 1288.64 618.263C1288.58 618.573 1288.24 618.603 1288.34 618.755C1288.26 619.349 1288.08 619.792 1287.85 620.593C1287.8 620.952 1287.46 621.078 1287.52 621.261C1286.91 623.256 1286.24 625.067 1285.53 627.192C1285.48 627.506 1285.15 627.648 1285.24 627.814C1284.64 629.817 1283.95 631.654 1283.21 633.81C1283.16 634.128 1282.83 634.245 1282.93 634.399C1282.33 636.401 1281.63 638.248 1280.89 640.416C1280.84 640.737 1280.51 640.843 1280.61 640.992C1280.54 641.597 1280.36 642.053 1280.12 642.877C1280.07 643.244 1279.72 643.346 1279.79 643.523C1278.41 647.578 1276.73 651.364 1275.66 655.738C1275.4 658.422 1274.01 660.308 1273.42 662.407C1274.54 660.6 1274.96 658.213 1276.86 656.465C1279.84 652.324 1282.12 648.071 1284.25 643.677C1286.11 639.819 1288.35 636.162 1290.52 632.475C1300.52 615.43 1311.35 599.005 1323.48 583.611C1335.2 568.739 1348.17 555.259 1363.85 545.045C1365.81 543.761 1367.89 542.621 1370.02 541.672C1374.62 539.621 1377.31 540.99 1379.05 545.979C1380.16 549.167 1379.79 552.482 1379.95 556.135C1379.95 556.867 1379.92 557.224 1379.9 557.851C1378.79 565.444 1377.53 572.732 1375.27 580.1C1375.14 580.501 1375.03 580.586 1374.92 580.885C1374.28 582.894 1373.65 584.69 1372.98 586.8C1372.95 587.114 1372.61 587.269 1372.64 587.462C1371.53 590.602 1370.37 593.549 1369.15 596.797C1369.08 597.098 1368.74 597.172 1368.8 597.35C1365.82 604.454 1362.7 611.333 1359.1 618.284C1359.02 618.57 1358.66 618.64 1358.69 618.829C1357.85 620.601 1356.97 622.183 1356.01 624.051C1355.92 624.338 1355.56 624.421 1355.58 624.616C1354.47 626.693 1353.35 628.576 1352.14 630.74C1352.05 631.021 1351.7 631.02 1351.74 631.202C1349.61 634.899 1347.44 638.416 1345.18 642.203C1345.08 642.474 1344.72 642.575 1344.71 642.775C1344.38 643.448 1344.06 643.922 1343.64 644.669C1343.54 644.942 1343.17 645.053 1343.15 645.255C1342.06 647.102 1340.98 648.746 1339.74 650.64C1339.58 650.888 1339.27 650.869 1339.33 651.022C1338.26 652.786 1337.13 654.398 1335.9 656.283C1335.79 656.556 1335.43 656.602 1335.43 656.797C1334.87 657.791 1334.3 658.59 1333.57 659.634C1333.4 659.88 1333.08 659.945 1333.08 660.122C1326.12 669.793 1318.83 679.006 1311.1 688.162C1309.37 691.297 1307.2 693.627 1304.39 695.676C1301.1 699.181 1298 702.494 1294.76 706.032C1293.08 708.561 1291.3 710.6 1288.73 712.161C1286.8 713.454 1285.53 715.108 1283.93 716.749C1283.55 717.98 1282.67 718.175 1281.78 718.772C1273.94 725.413 1266.68 732.38 1258.89 738.673C1249.87 745.962 1240.7 753.008 1230.82 759.441C1228.11 759.193 1226.19 761.088 1223.87 761.281C1222.4 761.403 1220.58 762.49 1219.61 760.724C1218.63 758.946 1220.42 757.834 1221.27 756.531C1228.52 745.409 1238.44 737.331 1248.49 729.393C1253.63 725.331 1257.4 719.926 1261.02 714.388C1262.59 711.979 1263.21 709.345 1262.24 706.58C1260.44 701.414 1259.33 696.061 1258.12 690.728C1256.73 684.617 1253.52 679.718 1248.92 675.89C1245.62 673.149 1244.07 669.488 1242.48 665.45C1238.55 655.439 1237.69 645.163 1237.82 634.47C1237.88 629.339 1237.53 624.062 1236.77 618.906C1236.52 617.242 1236.79 615.635 1236.96 613.996C1237.24 611.19 1237.67 608.342 1236.15 605.333C1235.34 611.703 1228.82 612.665 1226.57 617.669C1225.45 620.148 1222.72 617.593 1221.4 618.901C1220.24 620.05 1221.45 622.842 1219.12 623.647C1218.36 623.911 1217.62 624.022 1216.65 623.451C1217.13 618.192 1219.03 613.509 1220.31 608.644C1223.63 596.097 1228.43 584.132 1233.19 572.147C1240.78 553.053 1250.39 535.027 1258.77 516.354C1261.4 510.485 1263.7 504.446 1266.12 498.175C1266.2 497.784 1266.31 497.702 1266.47 497.411C1266.86 496.251 1267.2 495.3 1267.59 494.044C1267.75 493.659 1267.86 493.581 1268.01 493.294C1268.2 492.718 1268.35 492.351 1268.47 491.675C1268.54 491.251 1268.65 491.135 1268.84 490.796C1270.58 487.779 1270.9 484.474 1271.98 481.454C1273.88 476.145 1275.89 470.846 1277.3 465.382C1278.73 459.874 1280.66 454.502 1281.56 448.494C1281.92 448.092 1282.24 448.061 1282.82 448.114Z" fill="#65BDFF"/>
<path d="M774.739 323.103C771.371 327.109 767.938 330.764 764.498 334.418C759.986 339.211 755.887 344.438 752.09 349.908C749.833 353.162 747.23 356.158 745.303 359.994C741.449 361.022 743.861 357.117 741.782 355.897C737.641 361.039 731.66 364.119 727.016 369.028C724.274 371.927 721.609 374.912 718.804 377.74C714.292 382.291 709.448 386.271 703.452 388.52C694.348 391.933 686.46 397.637 679.03 404.059C670.189 411.701 660.344 417.663 650.521 423.66C646.053 426.387 641.471 428.9 637.235 432.039C634.683 433.929 631.962 435.596 629.073 436.683C620.27 439.995 612.882 446.236 604.291 449.976C602.118 450.922 600.12 452.08 597.67 451.558C594.31 450.84 591.685 453.688 588.266 453.584C589.636 449.543 592.098 446.247 594.176 442.346C594.31 442.067 594.528 442.283 594.394 442.214C600.626 431.815 607.306 421.713 614.409 411.952C619.917 404.383 625.637 396.983 631.612 389.807C639.312 380.56 647.176 371.483 655.536 362.916C668.614 349.516 682.053 336.567 696.438 324.724C723.97 302.058 753.175 282.271 784.341 265.792C826.887 243.295 871.602 227.881 918.366 219.038C958.924 211.368 999.78 209.12 1040.88 210.51C1060.06 211.158 1078.71 215.394 1097.38 219.571C1102.8 220.785 1108.21 222.109 1113.69 223C1123.17 224.547 1132.26 227.517 1141.22 231.061C1151.37 235.074 1161.56 238.969 1171.66 243.107C1177.45 245.476 1182.88 248.667 1188.19 252.07C1189.26 252.755 1190.27 253.54 1191.46 254.386C1190.21 255.186 1189.46 254.45 1188.68 254.161C1177.86 250.13 1167.35 245.162 1156.39 241.514C1152.21 240.124 1148 238.755 1143.71 237.86C1127.9 234.562 1112.5 229.284 1096.5 226.966C1086.03 225.449 1075.56 223.916 1065.06 222.623C1058.75 221.845 1052.44 222.781 1046.15 223.467C1034.87 224.7 1023.6 226.065 1012.33 227.36C997.314 229.084 982.401 231.392 967.959 236.298C960.643 238.783 953.034 239.29 945.506 240.344C919.575 243.971 894.413 250.836 869.943 260.619C841.123 272.141 814.319 287.462 790.546 308.502C786.634 311.964 782.474 315.103 779.036 319.159C778.116 320.244 776.533 320.539 775.523 322.034C775.156 322.441 774.968 322.653 774.739 323.103Z" fill="#6E53CE"/>
<path d="M935.422 319.798C936.182 318.891 936.851 318.204 937.735 317.421C938.136 317.229 938.322 317.133 938.742 317.249C939.756 319.316 938.697 320.605 937.75 321.913C935.194 325.441 931.867 328.457 932.187 333.66C932.293 335.388 930.613 336.724 929.623 338.161C927.744 340.887 926.07 343.592 928.266 347.129C929.154 348.559 928.762 350.356 928.238 351.938C927.501 354.161 928.012 355.645 930.192 356.434C937.341 359.019 944.75 359.853 952.231 360.178C953.441 360.231 954.482 359.475 955.277 358.561C958.588 354.756 962.403 351.325 963.657 345.958C964.187 343.69 965.706 342.237 967.357 340.843C973.201 335.91 980.077 333.063 986.752 329.8C994.841 325.845 1003.21 322.249 1011.8 320.375C1017.56 319.118 1022.93 314.895 1029.28 316.719C1030.27 317.004 1031.32 316.407 1032.2 315.813C1036.03 313.213 1040.34 312.505 1044.74 312.087C1045.64 312.001 1046.62 312.059 1047.38 311.575C1052.2 308.52 1057.23 309.696 1062.4 310.09C1067.19 310.454 1072.1 309.801 1076.95 309.424C1083.92 308.883 1090.65 306.105 1097.58 306.475C1105.43 306.894 1112.32 304.695 1118.87 300.5C1121.53 298.797 1124.3 297.336 1127.16 296.068C1130.58 294.554 1133.44 292.306 1135.37 288.847C1136.61 286.611 1138.34 285.104 1140.89 284.832C1142.56 284.655 1142.86 283.65 1142.57 281.927C1141.86 277.736 1139.71 274.306 1137.69 270.812C1136.8 269.277 1135.85 267.82 1135.65 265.984C1135.45 264.171 1135.68 262.626 1138.11 262.697C1140.37 270.484 1144.28 277.073 1148.24 283.618C1156.58 297.406 1165.8 310.536 1174.84 323.803C1177.04 327.038 1179.5 330.197 1181.05 334.255C1180.8 337.089 1178.83 337.545 1177.1 337.587C1169.2 337.783 1162.47 341.292 1155.91 345.497C1151.66 348.218 1147.11 346.225 1142.7 346.119C1140.66 346.07 1138.66 345.344 1136.36 344.688C1131.72 342.429 1127.96 339.269 1123.92 336.578C1102.87 322.527 1080.06 317.338 1055.5 321.085C1025.09 325.722 996.943 336.976 970.856 354.18C970.308 354.542 969.798 354.964 969.048 355.576C967.949 356.274 967.004 356.616 966.049 357.54C965.333 358.235 964.938 358.759 965.464 359.489C966.075 360.335 967.043 360.752 967.867 360.507C974.483 358.544 981.58 360.198 988.055 357.634C998.533 353.484 1009 349.301 1019.54 345.333C1021.26 344.685 1023.02 344.428 1024.82 344.206C1032.88 343.21 1040.83 341.448 1048.75 339.619C1053.09 338.617 1056.73 335.456 1061.34 334.649C1067.22 333.622 1073.11 333.351 1079 333C1081.46 332.853 1082.36 332.287 1081.51 329.4C1084.23 326.581 1086.98 328.289 1089.57 329.106C1102.28 333.117 1113.8 339.77 1124.89 347.377C1129.78 350.727 1134.14 354.844 1139.13 358.039C1140.38 358.839 1141.38 359.926 1140.93 362.023C1139.03 364.255 1136.72 363.918 1134.6 363.784C1122.55 363.024 1110.75 365.192 1098.89 366.856C1095.21 367.373 1092.59 369.11 1091.16 372.728C1088.99 378.257 1084.18 380.543 1079.82 383.396C1079.39 383.679 1078.84 383.933 1078.35 383.837C1073.41 382.863 1068.69 384.852 1063.52 385.084C1059.42 384.384 1055.61 383.74 1051.86 382.853C1042.32 380.598 1032.69 378.855 1023 377.626C1015.6 376.688 1008.16 376.119 1000.71 375.603C993.493 375.103 986.295 375.029 979.091 375.08C967.384 375.163 955.719 376.092 944.064 377.345C932.805 378.555 921.637 380.326 910.503 382.418C890.598 386.157 870.972 391.121 851.644 397.437C843.76 400.014 836.065 403.15 828.271 405.977C822.482 408.077 818.096 411.865 814.33 416.58C810.653 421.183 806.55 425.348 802.914 429.998C798.754 435.318 795 440.825 792.574 447.267C792.129 448.448 791.684 449.432 790.615 450.17C781.097 456.747 772.318 464.407 763.182 471.544C762.776 471.862 762.374 472.231 761.544 471.701C762.755 468.227 765.25 465.65 767.556 463.074C772.719 457.307 778.059 451.715 783.457 446.197C785.415 444.197 786.565 442.013 787.02 439.158C788.137 432.143 791.042 426.347 796.786 422.153C802.825 417.743 809.157 413.612 814.021 407.641C818.067 402.674 822.021 397.595 825.664 392.291C829.53 386.661 833.937 381.791 839.662 378.345C846.192 374.415 852.014 369.43 857.921 364.554C868.922 355.474 881.281 349.046 894.2 343.733C905.03 339.279 915.738 334.546 925.298 327.353C928.239 325.139 931.148 322.875 934.327 320.577C934.877 320.43 935.127 320.264 935.422 319.798Z" fill="#FD8FF0"/>
<path d="M1216.26 623.441C1219.93 622.72 1219.93 622.72 1219.73 619.648C1219.54 616.804 1220.39 616.161 1222.86 617.295C1225.3 618.416 1225.41 618.471 1226.54 615.969C1227.41 614.022 1228.51 612.544 1230.46 611.716C1232.93 610.663 1234.39 608.71 1234.38 605.738C1234.38 604.522 1234.64 603.51 1236.06 603.573C1237.47 603.635 1238.21 604.554 1238.19 605.96C1238.15 608.964 1238.6 611.992 1237.87 614.972C1237.71 615.63 1237.38 616.375 1237.53 616.961C1238.53 620.867 1237.7 624.939 1238.36 628.788C1239.35 634.539 1238.93 640.268 1238.96 646C1238.98 650.335 1239.6 654.385 1241.44 658.29C1242.53 660.598 1243.23 663.113 1243.7 665.683C1244.31 669.022 1245.66 672.015 1248.32 673.965C1255.73 679.381 1259.1 687.264 1260.4 696.321C1260.87 699.641 1262.24 702.564 1263.14 705.682C1264.13 709.067 1263.81 711.899 1261.92 714.971C1256.93 723.118 1250.56 729.749 1243.14 735.273C1237.87 739.196 1232.82 743.39 1228.63 748.606C1225.59 752.385 1223.05 756.598 1219.83 760.34C1222.85 760.576 1225.5 760.117 1227.99 758.661C1228.76 758.216 1229.82 757.106 1230.5 759.219C1225.59 763.54 1220.09 766.678 1214.49 770.158C1214.08 770.336 1213.94 770.43 1213.63 770.709C1213.32 770.944 1213.19 770.993 1212.86 771.097C1212.53 771.218 1212.39 771.284 1212.12 771.546C1211.85 771.808 1211.7 771.873 1211.33 772C1210.97 772.098 1210.84 772.134 1210.62 772.352C1201.97 778.129 1193.05 783.004 1184.01 787.636C1163.82 797.991 1142.92 806.45 1121.53 813.523C1109.75 817.42 1097.8 820.636 1085.32 822.933C1081.5 820.283 1081.03 818.58 1083.72 815.333C1087.58 810.687 1091.91 806.606 1097.97 805.373C1102.44 804.463 1106.58 802.54 1110.48 800.093C1114.13 797.803 1115.92 794.547 1115.19 789.787C1114.53 785.442 1114.02 781.096 1112.06 777.133C1111.05 775.082 1111.61 773.275 1112.47 771.285C1114.07 767.569 1116.96 764.608 1118.05 760.256C1124.11 755.381 1130.15 750.938 1135.96 746.17C1148.98 735.489 1160.6 723.228 1171.41 710.068C1174.64 706.138 1177.86 702.204 1180.85 697.729C1185.5 689.386 1191.09 682.027 1195.48 673.823C1196.49 671.931 1197.19 669.84 1198.78 668.042C1203.2 661.138 1205.98 653.628 1208.78 646.147C1210.54 641.452 1212 636.632 1213.75 631.629C1215.45 630.711 1215.56 629.364 1215.22 627.632C1215.43 626.149 1215.76 624.898 1216.26 623.441Z" fill="#5EB6FF"/>
<path d="M1138.38 262.492C1136.87 263.098 1135.93 263.65 1136.51 265.585C1136.98 267.133 1137.5 268.54 1138.31 269.987C1140.16 273.276 1142.99 276.141 1143.06 280.374C1143.08 281.251 1143.68 281.851 1144 282.585C1144.89 284.63 1144.29 286.079 1142.23 285.84C1138.67 285.427 1137.07 287.632 1135.61 290.336C1134.22 292.932 1132.2 294.693 1129.68 295.99C1124.24 298.787 1118.83 301.641 1113.49 304.637C1109.98 306.602 1106.4 307.841 1102.4 307.417C1096.94 306.84 1091.64 307.966 1086.39 309.296C1084.73 309.718 1083.1 310.018 1081.45 309.854C1078.77 309.588 1076.4 311.196 1073.93 311.245C1071.42 311.294 1068.99 310.537 1066.36 311.315C1062.94 312.329 1059.51 310.758 1056.09 310.365C1054.6 310.195 1053.19 310.006 1052.03 310.778C1048.5 313.128 1044.46 313.354 1040.58 313.797C1037.61 314.136 1035.05 315.197 1032.71 316.823C1030.89 318.081 1029.29 318.346 1027.29 317.603C1025.22 316.838 1023.15 317.228 1021.45 318.719C1019.63 320.314 1017.59 320.779 1015.32 320.618C1013.5 320.489 1011.76 320.597 1010.24 321.993C1009.48 322.688 1008.44 322.94 1007.38 323.104C1004.72 323.518 1002.02 323.885 999.823 325.832C999.543 326.08 999.138 326.208 998.77 326.299C990.069 328.444 982.407 333.277 974.396 337.168C971.407 338.62 968.876 341.134 966.118 343.136C965.289 343.738 964.952 344.622 964.855 345.579C964.33 350.785 960.488 353.76 957.807 357.502C957.033 358.582 956.055 359.536 955.043 360.372C953.812 361.389 952.494 361.568 950.784 361.455C945.652 361.117 940.674 359.71 935.562 359.366C932.669 359.171 930.271 357.343 927.539 356.591C926.573 356.325 926.21 355.308 926.479 354.243C926.747 353.187 927.11 352.157 927.454 351.125C928.055 349.325 928.136 347.602 926.686 346.196C925.408 344.958 925.438 343.663 926.236 342.147C927.302 340.123 928.056 337.931 929.725 336.273C931.072 334.936 932.185 333.196 931.501 331.156C930.795 329.048 931.771 327.762 932.871 326.393C934.539 324.316 936.206 322.237 937.897 320.182C938.441 319.521 938.678 318.78 938.68 317.624C938.766 317.035 938.92 316.805 939.266 316.456C939.752 315.834 940.132 315.4 940.708 314.881C941.128 314.664 941.328 314.497 941.64 314.155C942.29 312.839 943.401 312.405 944.516 311.593C944.971 311.355 945.186 311.194 945.502 310.835C945.622 310.668 945.646 310.71 945.626 310.697C945.821 310.541 946.005 310.363 946.285 310C948.673 307.626 950.892 305.345 953.207 303.183C965.126 292.048 976.433 280.216 987.998 268.676C996.353 260.339 1004.94 252.187 1015.39 246.751C1021.7 243.466 1028.26 242.257 1035.26 243.658C1039.67 244.542 1044.15 245.045 1048.54 245.71C1048.81 246.191 1048.76 246.626 1048.46 246.867C1040.2 253.426 1032.83 261.157 1024.52 267.644C1023.6 268.363 1022.65 269.137 1022.14 270.616C1022.1 270.895 1021.94 271.155 1021.94 271.155C1021.94 271.155 1022.13 271.403 1022.25 271.325C1025.96 269.94 1028.83 267.327 1031.99 265.262C1039.77 260.178 1047.44 254.9 1055.15 249.69C1060.92 245.791 1066.99 243.279 1074.05 243.879C1080.66 244.441 1087.01 242.252 1093.45 241.072C1098.38 240.169 1103.3 239.248 1108.65 238.979C1110.11 238.961 1111.23 238.967 1112.59 238.997C1115 239.202 1117.07 239.677 1119.02 240.843C1122.25 242.773 1126.01 243.074 1129.44 244.547C1132.34 245.791 1134.84 247.385 1137.41 249.617C1137.74 249.875 1137.85 249.974 1138.09 250.27C1138.27 254.347 1138.33 258.227 1138.38 262.492Z" fill="#FF89F0"/>
<path d="M1176.34 698.934C1171.94 703.728 1168.27 708.863 1164.17 713.611C1148.35 731.91 1130.68 747.77 1110.62 760.551C1086.44 775.954 1060.32 785.63 1032.63 790.822C1020.82 793.038 1008.94 794.342 996.961 794.994C989.097 795.423 981.241 795.696 973.391 795.396C956.259 794.74 939.229 792.921 922.388 789.381C919.267 788.725 916.051 788.465 912.468 786.855C920.986 785.618 928.866 784.549 936.723 783.32C964.343 778.999 991.334 772.293 1017.05 760.279C1040.13 749.496 1061.36 735.622 1080.5 718.22C1093.26 706.615 1105.05 693.925 1115.48 679.863C1116.36 678.674 1117.28 677.566 1118.58 676.831C1127.38 671.873 1135.29 665.473 1143.47 659.491C1155.97 650.35 1167.44 640.014 1177.63 628.074C1181.88 623.097 1186.11 618.088 1190.1 612.88C1191.77 610.7 1193.54 608.892 1196.16 607.645C1201.07 608.114 1203.68 611.649 1203.04 616.601C1202.72 619.062 1201.71 621.315 1200.99 623.655C1197.04 636.405 1193.87 649.387 1190.88 662.422C1190.3 664.966 1190.31 667.228 1194.02 667.103C1194.48 667.295 1194.66 667.403 1195 667.775C1195.25 668.458 1195.25 668.877 1195.11 669.596C1190.58 679.034 1185.39 687.656 1178.77 695.603C1178.56 695.792 1178.6 695.859 1178.59 695.82C1177.98 696.846 1177.65 698.112 1176.34 698.934Z" fill="#5EB6FF"/>
<path d="M858.375 941.8C850.213 942.597 842.289 943.388 834.288 942.806C827.23 942.292 820.172 941.99 813.152 940.899C794.429 937.991 776.481 932.268 759.31 923.908C735.23 912.183 713.608 896.497 694.204 877.297C689.2 872.345 684.369 867.229 679.475 861.793C678.613 860.995 677.719 860.597 677.213 859.399C670.433 850.762 663.852 842.328 657.879 833.375C639.192 805.365 625.104 775.025 617.068 741.653C613.76 727.919 612.059 713.934 612.056 699.729C612.056 696.426 612.337 693.158 612.692 689.539C612.831 689.12 613.006 689.055 613.44 689.095C614.934 699.986 617.362 710.512 620.191 720.912C630.099 757.342 646.895 789.768 670.413 818.254C692.377 844.858 718.684 865.111 748.978 879.609C770.987 890.142 794.012 896.811 817.832 900.569C834.315 903.17 850.883 904.107 867.528 903.492C871.644 903.34 875.753 902.949 880.222 902.693C882.502 903.331 883.861 904.865 885.264 906.221C888.341 909.195 888.588 913.559 885.664 917.273C879.682 924.869 873.015 931.673 864.013 935.058C860.887 936.233 858.964 938.057 858.375 941.8Z" fill="#55A7FF"/>
<path d="M711.513 442.806C714.432 428.879 719.214 415.878 724.956 403.238C737.251 376.173 753.25 351.903 773.085 330.512C796.6 305.154 824.189 286.239 854.75 272.068C877.529 261.505 901.226 254.12 925.615 249.215C929.409 248.452 933.251 247.957 937.077 247.383C937.825 247.271 938.6 247.367 940.286 247.367C938.107 248.509 936.672 249.289 935.215 250.02C912.513 261.411 891.01 274.916 871.36 291.6C847.252 312.069 826.937 336.188 810.582 364.059C809.49 365.921 808.357 367.757 807.062 369.815C803.763 368.956 802.111 371.136 800.574 373.364C797.75 377.457 795.06 381.672 791.946 385.515C783.499 395.941 773.726 404.87 763.776 413.606C751.237 424.616 737.833 434.404 724.982 444.972C724.574 445.308 725.089 444.894 724.666 445.21C717.629 450.463 716.696 450.309 711.513 442.806Z" fill="#6D58D6"/>
<path d="M849.188 883.778C841.99 883.075 835.205 881.368 828.495 879.502C801.328 871.947 775.903 860.164 752.666 843.246C741.435 835.069 731.117 825.825 722.624 814.38C717.584 807.588 713.969 800.071 711.768 791.792C708.97 781.268 705.256 771.238 698.834 762.546C698.446 762.021 698.058 761.435 698.192 760.403C701.576 760.598 704.513 762.173 707.414 763.808C713.453 767.213 719.422 770.764 725.5 774.086C745.691 785.124 766.03 795.809 787.075 804.94C819.356 818.947 852.267 830.793 886.317 838.896C886.566 838.956 886.801 839.083 887.315 839.314C889.199 841.787 890.443 844.309 890.915 847.198C891.117 848.437 891.594 849.517 892.243 850.566C896.742 857.85 893.952 867.821 886.339 871.46C883.766 872.69 881.122 873.793 878.422 874.667C874.087 876.072 870.983 878.406 871.452 883.893C871.498 884.434 871.232 884.952 870.805 885.705C868.528 885.886 866.411 885.789 863.947 885.622C863.262 885.538 862.925 885.518 862.336 885.464C858.355 885.636 854.741 884.621 850.748 884.089C850.098 883.901 849.766 883.867 849.188 883.778Z" fill="#55A7FF"/>
<path d="M946.287 954.219C953.64 953.321 960.734 951.918 967.816 950.525C993.965 945.379 1019.59 938.105 1044.62 928.508C1078.31 915.588 1109.7 898.012 1138.79 875.74C1148.22 868.517 1157.53 861.164 1165.83 852.45C1179.72 837.848 1189.95 820.696 1197.11 801.41C1197.25 801.028 1197.4 800.643 1197.49 800.244C1198.36 796.327 1200.85 794.207 1204.13 792.357C1231.21 777.046 1256.41 758.727 1279.89 737.724C1280.19 737.461 1280.53 737.256 1281.1 736.947C1281.5 736.867 1281.65 736.863 1281.83 737.105C1280.64 743.097 1277.88 748.183 1275.7 753.505C1274.02 757.601 1272.01 761.544 1270.07 765.843C1270 766.13 1269.65 766.252 1269.67 766.448C1263.95 777.968 1257.92 789.115 1251.26 799.865C1250.13 801.693 1248.92 803.467 1247.65 805.536C1247.55 805.806 1247.19 805.871 1247.19 806.068C1240.01 816.634 1232.65 826.844 1224.42 836.654C1223.6 837.999 1223.07 839.274 1221.59 839.997C1216.48 845.431 1211.57 850.67 1206.52 856.132C1204.83 858.662 1203.05 860.711 1200.46 862.255C1199.27 863.267 1198.31 864.127 1197.22 865.195C1196.64 866.737 1195.56 867.314 1194.25 868.032C1193.79 868.213 1193.59 868.33 1193.35 868.694C1192.38 870.243 1191.26 871.339 1189.57 872.153C1183.44 876.921 1177.55 881.589 1171.62 886.194C1161.4 894.133 1150.52 900.975 1139.51 907.58C1132.81 911.603 1125.97 915.363 1118.99 918.821C1109.24 923.656 1099.28 927.954 1089.16 931.894C1068.44 939.96 1047.26 946.08 1025.54 950.134C1012.86 952.503 1000.11 954.249 987.227 955.013C978.722 955.518 970.228 955.513 961.726 955.635C956.815 955.705 951.956 954.992 946.716 954.887C946.287 954.763 946.206 954.599 946.287 954.219Z" fill="#5EBAFF"/>
<path d="M657.793 342.681C656.863 343.415 656.173 344.02 655.375 344.837C651.242 350.197 646.83 354.923 641.611 359.17C641.382 359.322 641.44 359.365 641.42 359.334C640.787 360.606 640.105 361.838 638.491 362.49C637.092 363.307 636.347 364.483 635.339 365.708C633.78 368.845 631.364 370.828 628.973 373.166C626.854 374.81 625.415 376.806 623.729 378.896C623.087 379.944 622.72 380.92 621.606 381.488C620.44 382.866 619.415 384.045 618.3 385.477C617.69 386.486 617.357 387.414 616.299 388.052C605.723 400.835 596.31 414.216 587.321 428.333C587.035 428.281 586.91 427.91 586.646 427.302C588.297 419.092 589.729 411 591.74 403.041C599.371 372.844 611.064 344.59 626.484 317.971C631.259 309.729 636.441 301.868 641.936 294.207C644.159 291.109 646.909 288.362 648.965 285.214C651.034 282.045 653.614 279.437 655.953 276.631C658.487 273.592 661.3 270.746 663.983 267.807C699.412 228.995 741.158 200.286 788.039 179.812C811.869 169.405 836.405 161.646 861.969 157.843C871.033 156.495 880.123 155.428 889.351 155.307C882.542 157.401 875.691 159.353 868.931 161.612C814.463 179.812 765.255 208.185 722 248.034C712.234 257.031 702.687 266.254 694.729 277.18C684.06 291.826 676.613 308.123 672.452 326.121C672.144 327.451 672.064 328.851 670.966 330.168C667.14 335.159 662.593 338.863 657.793 342.681Z" fill="#6E53CE"/>
<path d="M629.179 635.881C628.566 634.918 628.19 634.135 627.644 633.045C627.076 631.324 626.678 629.909 626.119 628.165C625.958 627.836 626.25 627.657 626.084 627.69C624.614 621.85 623.656 615.912 622.931 609.585C622.859 608.894 622.85 608.535 622.799 607.909C622.791 598.801 622.814 589.961 622.789 580.734C622.853 579.708 622.872 579.062 622.848 578.171C623.201 574.592 623.657 571.264 623.574 567.526C623.581 566.805 623.612 566.449 623.625 565.822C624.032 563.313 624.376 561.065 624.319 558.426C624.339 557.728 624.377 557.375 624.396 556.753C624.483 556.343 624.569 556.2 624.807 555.858C626.599 554.44 627.759 555.667 628.556 556.808C630.071 558.979 631.54 558.473 633.574 557.664C639.976 555.118 644.233 550.613 647.171 543.974C650.746 535.893 655.811 528.813 661.633 522.258C669.342 513.58 677.818 505.792 685.842 497.486C688.695 494.533 690.736 491.157 691.928 487.152C692.632 484.787 693.562 482.525 694.758 480.399C696.252 477.746 698.275 476.436 701.43 477.926C701.993 482.124 701.188 486.065 701.146 490.042C701.032 500.889 701.012 511.728 701.486 522.576C702.436 544.316 701.183 565.926 697.452 587.348C697.171 588.964 696.959 590.594 696.559 592.492C693.208 593.036 691.651 595.365 690.809 598.225C687.519 609.409 679.378 615.89 670.628 621.577C662.288 626.997 653.223 631.029 644.903 636.582C640.006 639.85 634.505 638.964 629.179 635.881Z" fill="#6769E3"/>
<path d="M1206.5 576.843C1205.74 581.865 1202.83 585.476 1200.55 589.415C1198.22 593.445 1195.04 596.738 1191.24 599.12C1185.2 602.908 1180.52 608.18 1176.82 614.306C1170.55 624.703 1162.08 632.609 1152.67 639.42C1145.22 644.81 1138.05 650.66 1130.22 655.453C1129.55 655.863 1128.9 656.316 1128.22 656.693C1119.51 661.481 1110.89 666.439 1102.08 671C1085.02 679.836 1067.23 686.722 1048.98 692.124C1039.84 694.829 1030.39 696.324 1021.23 699.073C1015.29 700.858 1009.44 702.974 1003.52 704.815C1000.44 705.772 997.295 706.519 994.154 707.226C992.834 707.523 991.426 707.653 990.238 707.126C989.985 705.939 990.529 705.487 991.06 705.148C995.938 702.034 1000.16 697.99 1004.65 694.319C1007.94 691.628 1011.44 689.342 1015.12 687.367C1027.55 680.693 1039.92 673.892 1052.48 667.524C1075.18 656.017 1097.54 643.76 1120.01 631.77C1126.57 628.27 1132.94 624.358 1139.39 620.626C1139.72 620.436 1140.01 620.165 1140.13 619.566C1132.12 621.781 1124.86 625.919 1117.28 629.176C1109.4 632.561 1101.59 636.102 1093.77 639.641C1086.07 643.128 1078.42 646.724 1070.72 650.224C1063.09 653.695 1055.61 657.572 1046.92 660.694C1049.73 656.497 1052.09 653.128 1054.86 650.113C1058.47 646.184 1062.16 642.338 1065.78 638.431C1074.21 629.358 1082.1 619.783 1089.6 609.828C1089.92 609.403 1090.33 609.062 1090.94 608.555C1093.98 611.735 1097.48 611.545 1101.43 611.86C1113.57 612.825 1125.57 611.559 1137.62 610.814C1139.73 610.684 1141.64 610.863 1143.58 611.913C1147.72 614.164 1151.74 614.612 1155.88 611.376C1158.81 609.088 1162.59 608.66 1166.07 607.751C1169.78 606.784 1172.49 604.942 1172.99 600.583C1173.33 597.557 1175.61 596.778 1178.04 595.688C1178.52 595.475 1178.72 595.401 1179.55 595.287C1184.67 594.299 1187.56 591.156 1189.39 586.99C1190.84 583.687 1191.75 580.116 1193.1 576.457C1196.27 574.721 1199.7 575.745 1202.76 574.146C1204.19 573.4 1205.39 575.308 1206.5 576.843Z" fill="#D2AEFA"/>
<path d="M1117.9 760.049C1119.25 761.716 1119.16 763.251 1117.57 764.644C1114.91 766.962 1114.59 770.833 1112.45 773.54C1111.58 774.652 1112.4 775.952 1113.01 776.958C1114.97 780.149 1115.23 783.849 1115.92 787.421C1116.05 788.083 1115.84 788.834 1116.03 789.462C1117.66 794.918 1115.01 798.445 1111.08 800.981C1107.03 803.592 1102.66 805.544 1097.9 806.456C1094.74 807.062 1091.7 808.313 1089.49 811.049C1088.14 812.727 1086.09 813.479 1084.79 815.255C1082.2 818.808 1082.17 819.106 1084.95 822.632C1080.24 824.647 1075.25 825.204 1070.34 826.046C1061.85 827.499 1053.35 828.857 1044.8 829.844C1036.52 830.803 1028.17 831.244 1019.5 831.875C1018.82 831.871 1018.48 831.893 1017.9 831.896C1004.19 833.022 990.733 833.07 976.937 831.962C976.264 831.911 975.928 831.902 975.339 831.861C971.909 832.124 968.777 831.618 965.316 831.154C964.656 831.092 964.32 831.08 963.732 831.029C956.859 830.832 950.306 829.82 943.73 829.108C940.95 828.807 938.194 828.252 935.116 827.718C934.06 826.781 934.053 825.734 934.726 825.027C937.011 822.628 938.292 819.354 940.97 817.281C944.203 814.777 944.645 812.191 942.772 808.456C941.597 806.114 939.658 804.477 938.02 802.559C936.835 801.171 935.268 799.921 936.191 797.402C936.727 797.18 937.069 797.181 937.662 797.245C938.246 797.31 938.58 797.329 939.159 797.409C940.819 797.242 942.17 797.609 943.81 798.036C944.435 798.12 944.772 798.139 945.36 798.201C947.532 797.931 949.344 798.774 951.539 798.906C952.184 798.965 952.518 798.975 953.101 799.032C956.278 798.706 959.13 799.58 962.356 799.731C963.797 799.786 964.912 799.739 966.261 799.875C974.804 799.881 983.109 799.851 991.779 799.867C993.745 799.664 995.359 799.816 997.236 799.77C1000.14 799.519 1002.77 799.269 1005.74 799.054C1006.4 799.033 1006.73 798.997 1007.31 798.987C1009.43 798.723 1011.3 798.453 1013.49 798.214C1014.14 798.19 1014.48 798.146 1015.07 798.094C1016.34 797.481 1017.46 797.46 1018.91 797.458C1019.57 797.41 1019.89 797.358 1020.47 797.331C1027.52 795.903 1034.4 794.933 1041.17 793.297C1055.22 789.903 1068.99 785.544 1082.36 779.844C1094.74 774.565 1106.4 767.757 1117.9 760.049Z" fill="#5BB2FF"/>
<path d="M858.472 942.09C858.168 941.051 858.245 940.085 858.167 939.133C858.005 937.159 858.952 936.055 860.565 935.421C861.287 935.137 862.01 934.848 862.751 934.632C869.811 932.577 874.766 927.014 880.234 922.414C882.151 920.801 883.823 918.49 885.269 916.281C887.22 913.299 888.058 909.275 883.895 906.286C882.698 905.427 881.66 904.461 880.69 902.983C884.943 901.491 889.459 901.314 893.898 900.625C920.336 896.523 944.721 886.761 967.014 871.052C971.206 868.099 975.515 865.336 979.76 862.468C980.617 861.889 981.7 861.327 981.254 859.956C980.894 858.848 979.813 858.937 978.94 858.87C975.003 858.568 971.263 859.106 967.806 861.411C950.879 872.696 932.556 880.09 912.84 883.497C908.015 884.331 903.189 885.218 897.958 885.482C897.284 885.481 896.947 885.51 896.354 885.544C891.214 886.741 886.247 886.245 880.948 886.309C880.261 886.29 879.933 886.305 879.36 886.276C877.266 886.274 875.417 886.295 873.227 886.248C871.379 884.905 870.913 883.29 871.826 881.473C872.708 879.717 874.324 879.749 875.894 880.057C879.6 880.785 882.624 880.225 884.716 876.266C885.966 873.9 888.492 873.314 891.005 872.848C896.817 871.771 902.058 869.418 905.634 864.044C907.209 861.678 907.81 859.098 906.875 856.284C905.379 851.781 906.753 848.018 909.734 844.468C916.125 845.333 922.227 846.329 928.336 847.27C938.918 848.898 949.547 850.083 960.202 851.012C974.083 852.222 987.998 852.479 1001.91 852.83C1007.45 852.969 1012.99 853.274 1018.89 853.377C1019.26 853.355 1019.4 853.718 1019.51 853.873C1019.28 854.401 1018.93 854.773 1018.45 855.362C1017.51 857.121 1016.27 858.138 1014.55 858.946C1014.08 859.054 1013.91 859.148 1013.7 859.459C1013.42 860.66 1012.51 860.848 1011.58 861.437C1011.12 861.614 1010.92 861.732 1010.68 862.105C1009.43 863.914 1008.16 865.43 1006.08 866.373C1005.49 866.733 1005.13 866.983 1004.63 867.405C1003.84 868.273 1003.44 869.256 1002.26 869.695C1001.82 869.855 1001.62 869.971 1001.38 870.337C1000.42 871.887 999.304 872.98 997.637 873.806C997.174 873.977 996.974 874.091 996.738 874.455C995.787 876.006 994.671 877.093 993.004 877.908C992.779 878.036 992.869 878.06 992.83 878.034C991.074 880.459 988.568 881.856 986.053 883.683C985.826 883.824 985.901 883.858 985.871 883.828C984.855 885.082 983.777 886.246 982.061 886.992C981.607 887.105 981.426 887.196 981.201 887.503C978.09 890.963 974.405 893.386 970.638 896.101C969.541 896.297 968.923 896.838 968.198 897.63C967.313 898.852 966.373 899.598 965.019 900.188C964.41 900.464 964.041 900.646 963.56 901.016C962.284 902.611 960.798 903.495 958.974 904.324C956.648 905.411 954.843 906.899 952.766 908.397C952.072 909.3 951.305 909.599 950.372 910.098C947.11 911.986 944.076 913.785 941.012 915.523C918.062 928.543 893.872 937.525 867.978 940.951C864.913 941.357 861.848 941.763 858.472 942.09Z" fill="#57AEFF"/>
<path d="M701.715 477.781C697.953 477.399 695.953 479.249 694.532 482.769C693.262 485.916 692.582 489.304 690.946 492.293C690.232 493.597 689.583 494.901 688.557 495.998C682.387 502.592 675.619 508.522 669.432 515.057C665.445 519.267 661.408 523.538 657.817 528.195C652.98 534.469 649.164 541.423 645.863 548.716C643.645 553.616 639.411 555.827 635.119 558.122C631.938 559.822 629.233 560.992 627.197 556.622C626.919 556.026 626.207 555.774 625.248 555.676C624.881 551.719 625.602 547.851 625.86 543.589C625.887 542.882 625.927 542.526 625.955 541.9C626.684 536.491 627.544 531.368 628.104 526.208C629.198 516.14 630.747 506.147 632.181 495.785C632.314 495.32 632.422 495.2 632.432 494.854C633.28 488.792 634.227 482.955 635.155 476.781C635.264 470.21 636.574 464.2 638.338 457.981C640.745 456.001 642.038 457.129 642.926 459.403C643.123 459.907 643.137 460.481 643.308 460.994C643.795 462.459 643.451 464.666 645.434 464.934C647.169 465.169 648.099 463.434 648.96 462.116C651.104 458.837 654.038 456.571 657.41 455.174C665.513 451.818 672.016 445.947 678.406 440.037C691.146 428.252 702.469 414.956 713.473 401.357C715.069 399.384 716.861 397.603 718.415 395.585C719.287 394.451 720.467 393.704 721.786 394.653C722.898 395.453 722.784 396.791 722.443 398.028C722.089 399.315 721.12 400.423 721.363 402.193C718.874 409.28 715.765 415.762 713.415 422.595C707.309 440.348 703.277 458.58 701.715 477.781Z" fill="#6B5DDA"/>
<path d="M721.472 402.279C720.079 400.836 720.996 399.41 721.607 397.897C722.008 396.904 722.356 395.658 721.075 395.08C720.056 394.619 719.526 395.562 718.915 396.317C715.227 400.875 711.447 405.343 707.638 409.79C701.837 416.562 696.503 423.856 690.029 429.879C684.43 435.09 679.24 440.759 673.412 445.753C667.705 450.644 661.456 454.169 655.068 457.638C652.819 458.859 651.091 460.561 649.727 462.822C649.044 463.955 648.102 464.98 647.098 465.808C645.322 467.274 643.576 466.651 643.059 464.318C642.738 462.867 642.152 461.479 642.163 459.916C642.175 458.22 641.122 457.531 639.304 457.519C638.175 455.933 638.147 458.065 637.368 457.942C633.292 457.107 629.969 458.507 627.915 461.704C620.675 472.975 609.515 478.538 598.933 484.969C590.545 490.065 582.015 494.875 575.269 502.533C572.175 506.047 568.556 508.791 563.489 505.554C564.631 500.065 567.246 495.348 569.182 490.329C570.109 487.927 571.321 485.649 572.461 483.012C572.519 482.709 572.858 482.791 572.723 482.674C572.74 482.317 572.891 482.078 573.17 481.428C573.298 481.017 573.565 481.149 573.453 481.047C575.6 476.467 577.858 471.988 580.214 467.231C582.308 463.298 584.304 459.645 586.386 455.7C586.471 455.408 586.739 455.565 586.631 455.45C586.879 454.822 587.233 454.31 587.819 453.595C589.15 453.478 589.896 452.89 590.764 452.19C592.889 450.478 595.529 450.043 598.015 450.583C599.879 450.987 601.272 450.486 602.763 449.66C608.203 446.649 613.795 444.008 618.968 440.379C622.56 437.859 626.871 436.489 630.891 434.683C635.785 432.484 639.839 428.8 644.462 426.093C651.426 422.015 658.326 417.794 665.074 413.285C671.165 409.215 676.949 404.718 682.532 399.953C689.136 394.315 696.45 390.108 704.301 387.035C709.419 385.031 713.385 381.479 717.349 377.82C719.484 375.848 721.422 373.623 723.373 371.436C726.927 367.45 730.749 363.824 735.184 360.971C736.975 359.82 738.192 357.992 739.712 356.52C740.467 355.789 741.078 354.858 742.13 354.54C743.513 354.121 744.402 354.895 744.139 356.436C743.92 357.719 742.943 359.025 744.815 360.111C739.675 369.132 733.956 377.894 729.15 387.263C726.626 392.183 724.165 397.14 721.472 402.279Z" fill="#6D58D6"/>
<path d="M799.396 753.772C794.233 752.486 789.728 750.075 785.119 747.985C778.262 744.877 771.415 741.746 764.768 738.128C760.63 735.877 756.724 733.315 753.039 729.907C761.717 725.28 766.798 716.967 771.767 708.759C779.412 696.133 789.627 685.921 798.79 674.712C803.531 668.913 808.947 663.852 813.746 658.133C815.526 656.012 816.43 653.495 817.739 650.828C826.253 654.545 834.584 658.477 843.306 662.146C843.645 662.424 843.789 662.468 844.096 662.677C844.633 662.844 845.007 662.848 845.604 663.037C845.972 663.261 846.116 663.3 846.426 663.5C846.964 663.662 847.336 663.664 847.928 663.854C848.293 664.083 848.438 664.124 848.752 664.324C849.288 664.482 849.656 664.48 850.247 664.659C850.618 664.891 850.766 664.942 851.109 665.135C852.781 664.989 854.151 665.341 855.674 666.301C856.039 666.569 856.188 666.607 856.522 666.79C859.821 666.624 862.596 668.172 865.797 668.897C867.46 672.27 866.651 674.72 864.554 677.572C859.015 685.106 853.018 692.224 847.413 699.69C845.068 702.815 842.459 705.609 839.268 707.757C836.017 709.945 832.731 712.024 830.422 715.517C829.238 717.308 827.192 718.17 825.036 719.175C814.886 716.771 805.451 712.811 795.987 708.938C791.458 707.085 787.083 704.784 782.214 703.753C785.974 706.652 789.65 709.588 793.897 711.76C798.166 713.944 802.116 716.826 806.267 719.283C810.532 721.807 814.871 724.187 819.354 726.835C821.122 729.453 821.419 732.074 820.594 734.853C820.089 736.554 819.741 738.293 819.424 740.04C817.8 748.99 812.009 753.325 804.01 755.478C802.561 755.412 801.582 754.83 800.315 754.266C799.918 754.055 799.768 753.977 799.396 753.772Z" fill="#5898FF"/>
<path d="M1179.55 595.906C1179.1 596.267 1178.78 596.488 1178.44 596.693C1177.07 597.541 1174.37 601.341 1173.7 603.16C1172.69 605.877 1170.86 607.664 1168.16 608.393C1165.06 609.23 1161.97 610.116 1158.87 610.951C1157.46 611.331 1156.27 612.063 1155.23 613.142C1153.64 614.801 1151.62 615.447 1149.54 614.957C1147.11 614.387 1144.45 614.623 1142.4 612.474C1141.1 611.108 1139.15 611.481 1137.6 611.956C1135.69 612.542 1133.8 612.559 1131.88 612.549C1123.67 612.509 1115.51 613.952 1107.28 613.389C1105.62 613.276 1103.99 613.339 1102.32 612.857C1100.22 612.249 1098.01 612.054 1096.24 614.099C1095.21 615.296 1094.32 614.693 1093.96 613.429C1093.47 611.667 1092.58 610.221 1091.28 608.683C1096.18 601.311 1101.28 594.257 1106.2 587.059C1113.17 576.852 1119.62 566.278 1125.41 555.259C1126.74 552.747 1128.07 550.242 1129.6 547.555C1132.03 545.799 1133.47 547.702 1134.9 548.877C1142.43 555.088 1140.58 554.945 1149.63 551.157C1154.56 549.094 1159.54 549.802 1164.5 549.904C1169.41 550.005 1173.4 548.985 1175.64 543.796C1176.23 542.428 1177.29 541.324 1178.55 540.575C1180.9 539.181 1182.37 537.022 1183.64 534.562C1184.97 531.988 1186.71 529.811 1190.06 529.884C1191.04 530.816 1190.95 531.799 1190.96 532.751C1191.1 550.881 1189.46 568.729 1183.46 585.873C1182.43 588.815 1181.3 591.717 1180.19 594.942C1180.17 595.247 1180.19 595.234 1180.19 595.226C1180.01 595.385 1179.84 595.566 1179.55 595.906Z" fill="#D5AAF9"/>
<path d="M711.231 442.799C713.585 442.543 713.842 444.618 714.646 446.087C716.074 448.696 716.142 448.692 718.772 447.378C726.151 443.692 732.261 438.049 738.562 432.73C742.187 429.671 746.129 427.11 749.786 424.12C755.472 419.472 760.859 414.376 766.583 409.842C773.338 404.493 778.733 397.694 785.166 392.034C790.509 387.334 794.179 380.902 798.281 374.975C799.657 372.986 801.028 371.023 802.746 369.35C804.575 367.571 804.561 367.555 806.678 369.89C804.83 373.987 802.774 377.945 800.73 381.909C796.256 390.583 792.298 399.524 788.676 408.633C788.016 410.292 787.328 411.894 786.19 413.246C774.325 427.355 765.204 443.45 756.381 459.778C751.046 469.651 745.124 479.176 741.087 489.797C738.089 497.684 735.126 505.587 732.052 513.441C730.764 516.732 729.231 519.914 727.613 523.335C723.285 521.833 721.978 525.123 720.395 528C719.487 529.651 718.364 531.156 717.219 532.627C713.375 537.568 711.222 537.65 706.853 533.083C706.392 532.602 705.985 532.079 705.653 531.162C705.427 529.524 705.162 528.168 705.137 526.806C704.89 513.36 704.442 499.91 705.062 486.468C705.738 471.79 707.204 457.217 711.231 442.799Z" fill="#6B63DF"/>
<path d="M817.679 650.503C818.224 652.812 817.468 654.856 816.245 656.366C813.664 659.552 811.326 663.005 808.169 665.634C807.36 666.308 806.585 667.051 805.9 667.864C800.323 674.478 794.829 681.172 789.184 687.719C787.023 690.225 784.524 692.399 782.204 694.752C781.274 695.695 780.421 696.684 779.785 697.929C775.055 707.194 768.908 715.365 762.405 723.254C762.235 723.46 761.979 723.612 761.871 723.846C760.159 727.555 757.035 728.913 753.206 729.628C749.982 727.786 747.76 725.07 745.853 722.166C737.856 709.986 730.945 697.151 725.823 682.967C727.668 681.154 729.554 682.411 731.357 682.752C733.464 683.15 735.311 682.94 736.573 681.086C742.394 672.534 750.445 666.445 757.593 659.366C762.412 654.595 765.502 648.585 768.669 642.625C771.211 637.841 773.937 633.196 777.008 628.784C778.174 627.109 779.43 625.465 782.001 626.421C789.871 632.261 797.472 637.99 805.19 643.535C809.019 646.286 813.274 648.266 817.679 650.503Z" fill="#5A8BFC"/>
<path d="M824.993 719.47C828.81 716.469 831.261 711.755 835.492 709.135C838.941 707 842.256 704.636 844.875 701.355C847.947 697.509 851.117 693.74 853.998 689.737C856.794 685.85 860.581 682.756 862.347 678.034C862.437 677.795 862.638 677.521 862.851 677.429C866.227 675.969 866.034 672.863 866.011 669.426C874.386 670.538 882.65 672.493 891.047 673.65C902.251 675.193 913.493 676.131 925.143 676.348C926.805 677.771 926.707 679.535 926.234 681.036C924.371 686.949 924.367 693.141 923.592 699.214C922.578 707.154 919.375 713.646 913.297 718.622C909.379 721.83 906.657 726.055 906.34 731.904C904.466 732.958 902.642 732.798 900.852 732.885C879.817 733.915 859.401 730.025 839.257 724.026C834.558 722.627 829.892 721.104 824.993 719.47Z" fill="#55A7FF"/>
<path d="M936.134 797C936.037 799.253 937.374 800.386 938.519 801.681C940.432 803.844 942.736 805.623 943.957 808.464C945.836 812.834 945.222 815.37 941.528 818.084C940.598 818.767 939.601 819.591 939.08 820.609C938.087 822.545 937.025 824.305 935.244 825.533C934.929 825.75 934.951 826.523 934.812 827.332C931.931 827.249 929.057 826.874 925.864 826.349C925.205 826.172 924.865 826.134 924.275 826.033C923.176 825.885 922.329 825.789 921.194 825.543C920.564 825.358 920.224 825.314 919.633 825.206C912.09 823.706 904.799 822.26 897.211 820.652C896.573 820.437 896.233 820.377 895.641 820.251C880.855 817.136 866.592 812.988 852.471 808.241C835.635 802.581 819.154 795.932 802.958 788.458C801.51 787.79 800.219 787.115 799.312 785.618C795.961 780.084 792.522 774.611 789.12 769.111C788.764 768.536 788.432 767.941 788.724 767.135C789.932 766.382 791.153 766.981 792.368 767.294C801.746 769.71 811.079 772.354 820.509 774.511C835.22 777.877 849.821 781.82 864.685 784.393C869.758 785.27 874.886 785.789 880.312 786.532C881.242 786.586 881.849 786.573 882.679 786.682C886.154 786.456 889.308 787.158 892.424 787.956C906.781 791.636 921.265 794.598 936.134 797Z" fill="#57AEFF"/>
<path d="M906.521 732.199C906.274 730.686 904.943 730.626 903.964 729.738C906.079 728.214 906.982 725.886 907.886 723.541C908.898 720.917 910.791 719.027 912.895 717.455C918.74 713.088 921.356 706.912 922.498 699.61C923.457 693.47 922.889 687.073 925.297 681.156C925.771 679.989 925.459 678.458 925.502 676.765C926.26 676.353 927.028 676.188 927.793 676.201C939.923 676.407 952.021 675.739 964.075 674.397C977.665 672.885 991.126 670.491 1004.36 666.794C1005.98 666.341 1007.51 665.653 1008.93 664.637C1021 656.028 1031.96 646.109 1041.05 633.967C1043.08 631.268 1045.39 628.898 1048.16 627.063C1058.26 620.392 1069.04 615.085 1079.51 609.16C1080.05 608.852 1080.62 608.42 1081.58 608.895C1079.95 611.248 1077.9 613.037 1075.82 614.747C1068.58 620.708 1061.26 626.569 1053.5 631.754C1051.28 633.233 1049.22 634.869 1048.28 637.615C1044.12 649.71 1035.34 656.807 1024.89 662.005C1018.33 665.266 1011.88 668.692 1006.26 673.627C1001.08 678.168 996.017 682.857 991.312 687.948C984.003 695.858 975.88 702.481 966.251 706.907C962.45 708.653 958.885 710.945 955.68 713.711C944.949 722.97 932.397 727.607 919.094 730.39C915.054 731.236 911.026 732.249 906.521 732.199Z" fill="#5BB2FF"/>
<path d="M1190.31 529.68C1187.29 530.975 1185.15 532.918 1183.96 536.059C1183.06 538.435 1181.57 540.314 1179.29 541.265C1177.28 542.103 1176.32 544.03 1175.61 545.816C1173.56 550.924 1169.39 551.083 1165.32 550.967C1158.42 550.77 1151.6 550.3 1145.29 554.262C1142.91 555.754 1139.95 554.921 1137.86 552.828C1135.64 550.61 1133.43 548.34 1130.1 547.388C1130.09 545.571 1131.06 544.08 1131.82 542.499C1137.84 529.885 1143.11 516.958 1147.13 503.443C1150.95 490.617 1154.12 477.678 1154.63 464.158C1154.7 462.16 1155.46 461.467 1157.22 461.589C1163.33 462.015 1168.45 464.755 1172.27 469.712C1179.33 478.875 1183.67 489.535 1186.43 500.949C1188.69 510.247 1190.34 519.644 1190.31 529.68Z" fill="#DAA8F6"/>
<path d="M1207.1 375.092C1209.6 377.176 1210.97 380.15 1212.66 382.859C1218.42 392.059 1224.21 401.234 1229.64 410.992C1230.97 414.035 1229.55 415.125 1227.25 415.354C1224.95 415.583 1222.63 415.81 1220.31 415.728C1217.41 415.626 1214.62 416.283 1212.08 417.642C1200.21 423.994 1187.09 427.033 1175.27 433.519C1172.57 435.003 1169.5 435.114 1166.57 434.313C1161.47 432.918 1156.39 431.388 1151.11 429.438C1142.69 422.937 1134.47 416.654 1125.66 411.317C1123.2 409.833 1120.87 408.065 1118.29 406.902C1113.9 404.923 1110.36 401.989 1107.62 397.548C1109.09 396.004 1110.57 396.819 1111.74 397.825C1114.7 400.358 1118.07 401.072 1121.76 401.401C1124.94 401.685 1128.15 401.982 1131.32 402.534C1134.6 403.105 1137.68 402.113 1140.61 400.565C1146.98 397.211 1153.65 394.865 1160.63 393.441C1163.69 392.814 1166.74 392.717 1169.81 393.331C1171.35 393.638 1172.87 393.75 1174.55 392.727C1177.3 391.345 1178.62 393.6 1180.08 394.862C1183.58 397.887 1186.54 401.549 1189.77 404.896C1190.76 405.922 1191.69 407.012 1192.84 407.862C1186.78 398.613 1180.09 389.929 1173.04 381.551C1171.85 380.138 1169.71 379.037 1171.2 376.315C1175.36 376.23 1178.45 378.731 1181.89 380.128C1184.52 381.198 1187.14 381.833 1189.74 380.67C1193.4 379.027 1197.17 378.64 1201.04 378.882C1203.78 379.053 1205.81 378.127 1207.1 375.092Z" fill="#EB9DF2"/>
<path d="M1150.94 429.617C1152.7 428.676 1154.5 429.471 1156.26 429.956C1159.23 430.773 1162.17 431.733 1165.07 432.788C1168.94 434.19 1172.72 434.01 1176.24 431.934C1182.9 427.992 1190.34 426.152 1197.23 422.89C1201.66 420.796 1206.49 419.934 1210.7 417.094C1213.45 415.235 1216.81 414.19 1220.26 414.643C1222.8 414.977 1225.26 413.873 1227.85 414.426C1229.21 414.716 1229.69 413.25 1229.74 411.571C1232.16 413.532 1233.67 416.585 1235.73 419.175C1237.71 421.667 1239.33 424.476 1241.54 426.785C1243.56 428.898 1244.59 431.347 1244.41 434.492C1244.19 438.323 1244.31 442.176 1244.21 446.399C1241.83 451.441 1237.87 454.666 1234.61 458.408C1230.93 462.622 1225.17 463.788 1220.2 465.888C1212.23 469.256 1204.06 472.08 1195.41 472.998C1192.93 473.26 1190.82 472.843 1188.84 471.421C1187.14 470.197 1185.42 469.008 1183.45 467.629C1179.5 461.908 1175.97 456.238 1171.79 451.075C1167.01 445.179 1161.79 439.762 1156.38 434.547C1154.68 432.906 1152.85 431.414 1150.94 429.617Z" fill="#E3A2F4"/>
<path d="M782.096 626.371C780.384 626.492 779.128 627.346 778.023 628.935C775.347 632.783 772.766 636.725 770.674 640.927C768.682 644.928 766.328 648.674 764.231 652.594C761.908 656.935 758.294 660.117 754.872 663.428C749.382 668.74 743.2 673.282 738.864 679.869C736.723 683.122 734.237 685.312 730.175 683.524C729.016 683.014 727.687 682.943 726.123 682.665C722.677 675.981 721.282 668.727 719.772 661.53C718.282 654.43 717.313 647.223 717.282 639.934C717.261 634.866 716.37 629.816 717.113 624.421C719.183 622.957 719.59 624.814 720.242 626.016C722.859 630.846 724.277 631.279 727.983 627.251C734.559 620.105 740.941 612.757 747.025 605.11C749.19 602.389 750.631 598.797 754.29 597.501C754.517 597.664 754.481 597.709 754.478 597.679C754.624 597.885 754.802 598.093 755.177 598.386C761.125 605.092 766.895 611.694 772.691 618.27C775.422 621.368 778.85 623.549 782.096 626.371Z" fill="#5E7FF4"/>
<path d="M628.97 636.002C632.366 635.984 635.523 637.833 639.117 637.364C641.59 637.041 643.791 636.566 645.816 634.818C649.52 631.622 653.942 629.629 658.187 627.452C667.697 622.573 676.766 617.039 684.221 608.971C686.548 606.454 688.087 603.212 689.163 599.83C689.869 597.611 690.788 595.559 692.007 593.599C693.082 591.871 694.271 591.556 696.146 592.647C696.055 599.092 694.686 605.25 693.619 611.449C690.387 630.224 687.394 649.037 685.688 668.048C685.063 675.016 684.557 682.01 684.681 689.03C684.705 690.347 684.576 691.668 684.505 693.295C682.274 692.619 680.859 691.187 679.318 690.048C669.425 682.735 660.586 674.108 652.17 664.984C648.458 660.959 644.61 657.096 640.503 653.555C635.132 648.925 631.467 643.087 628.97 636.002Z" fill="#6478EE"/>
<path d="M1195.46 667.851C1194.05 667.827 1192.9 667.739 1191.78 668.215C1189.95 668.985 1189.54 667.907 1189.46 666.224C1189.32 663.298 1190.06 660.517 1190.74 657.764C1193.05 648.397 1195.55 639.087 1197.86 629.719C1198.55 626.914 1199.68 624.328 1200.66 621.658C1201.49 619.371 1202.61 616.94 1202.22 614.58C1201.69 611.474 1200.26 608.617 1196.59 607.801C1196.6 607.37 1196.74 607.081 1196.95 606.978C1204.54 603.328 1209.05 596.168 1214.21 589.765C1218.41 584.56 1220.66 578.263 1222.95 571.978C1228.9 555.597 1235.13 539.325 1240.5 522.713C1244.16 511.404 1246.15 499.63 1248.31 487.92C1250.61 475.4 1252.17 462.755 1253.59 450.096C1254.31 443.697 1254.65 437.252 1255.22 430.834C1255.5 427.72 1255.85 427.513 1258.55 428.871C1263.69 431.458 1268.17 435.193 1272.88 438.517C1274.52 439.672 1273.92 441.209 1273.62 442.578C1272.49 447.648 1271.23 452.683 1270 458.054C1269.98 458.377 1269.66 458.602 1269.68 458.807C1268.26 464.093 1266.82 469.176 1265.36 474.576C1265.34 474.894 1265.02 475.098 1265.04 475.297C1262.86 482.515 1260.65 489.533 1258.41 496.863C1258.27 497.243 1258.16 497.313 1258.05 497.589C1257.4 499.57 1256.75 501.344 1256.08 503.43C1255.94 503.823 1255.83 503.904 1255.7 504.199C1255.32 505.374 1254.95 506.336 1254.54 507.609C1254.51 507.919 1254.17 508.104 1254.19 508.306C1253.81 509.484 1253.43 510.461 1253 511.754C1252.97 512.07 1252.63 512.224 1252.66 512.418C1252.29 513.596 1251.89 514.58 1251.46 515.882C1251.42 516.201 1251.08 516.35 1251.11 516.544C1250.74 517.711 1250.34 518.685 1249.9 519.975C1249.87 520.292 1249.53 520.478 1249.54 520.681C1248.93 522.437 1248.31 523.99 1247.63 525.847C1247.56 526.152 1247.21 526.246 1247.26 526.428C1244.58 533.369 1241.84 540.128 1239.06 547.187C1238.91 547.56 1238.8 547.633 1238.67 547.916C1228.64 571.182 1220.23 594.879 1213.63 619.296C1209.24 635.54 1203.77 651.332 1196.36 666.637C1196.22 667.304 1196.02 667.592 1195.46 667.851Z" fill="#6BBFFE"/>
<path d="M1183.26 467.722C1185.17 467.267 1186.61 468.309 1188.06 469.559C1190.41 471.599 1192.85 472.861 1196.17 471.687C1198.54 470.851 1201.14 470.37 1203.76 470.678C1205.53 470.885 1206.88 469.518 1208.47 469.025C1216.13 466.662 1223.48 463.396 1230.78 460.015C1232.93 459.017 1234.86 457.806 1235.84 455.319C1236.17 454.468 1236.75 453.594 1237.45 453.061C1239.63 451.385 1241.67 449.62 1242.91 446.992C1242.98 446.839 1243.39 446.864 1243.89 446.792C1243.57 450.703 1243.92 454.68 1243.61 458.608C1242.34 474.761 1241.17 490.946 1235.88 506.693C1230.76 510.601 1227.46 516.13 1222.93 520.302C1222.73 520.481 1222.49 520.642 1222.38 520.875C1219.31 527.567 1213.37 529.516 1207.32 531.371C1204.68 532.179 1202.81 531.662 1201.65 528.861C1200.72 526.641 1200.58 524.007 1198.46 522.073C1197.73 510.276 1195.57 499.061 1191.93 488.169C1189.6 481.191 1186.78 474.438 1183.26 467.722Z" fill="#DAA8F6"/>
<path d="M1175.59 391.925C1175.6 393.778 1175.22 394.938 1173.43 394.83C1172.54 394.776 1171.58 395.005 1170.74 394.757C1164.75 392.984 1159.07 394.529 1153.45 396.516C1148.84 398.145 1144.21 399.624 1139.88 402.157C1136.74 403.994 1133.17 404.376 1129.43 403.428C1126.23 402.616 1122.85 402.374 1119.55 402.326C1116.67 402.285 1114.27 401.339 1112.15 399.427C1110.95 398.343 1109.71 397.427 1107.81 397.303C1103.55 392.253 1098.88 388.323 1092.67 386.973C1088.79 386.131 1084.9 386.672 1080.94 386.989C1083.96 389.116 1087.18 390.685 1089.79 393.317C1088.13 393.46 1068.91 387.725 1063.41 385.337C1067.44 383.078 1071.82 381.921 1076.51 382.626C1077.25 382.738 1077.99 383.366 1078.73 382.839C1082.91 379.829 1088.04 378.003 1090.12 372.363C1091.19 369.459 1092.78 366.832 1095.83 366.176C1097.69 365.776 1099.62 365.196 1101.5 365.227C1106.04 365.303 1110.38 363.944 1114.8 363.297C1117.23 362.942 1119.63 362.681 1122.06 362.672C1126.83 362.656 1131.59 362.668 1136.36 362.667C1137.77 362.667 1139.2 362.792 1140.8 361.753C1142.75 360.712 1143.77 361.928 1144.88 362.839C1152.43 369.059 1159.37 376.026 1166.58 382.669C1169.69 385.534 1173.07 388.094 1175.59 391.925Z" fill="#F396F1"/>
<path d="M563.115 505.582C563.67 505.347 564.108 505.222 564.434 505.372C568.964 507.469 571.907 504.62 574.855 501.667C577.188 499.332 579.262 496.74 581.955 494.766C586.5 491.436 591.129 488.231 595.997 485.525C603.283 481.475 610.139 476.69 617.21 472.277C621.026 469.896 623.204 465.952 625.824 462.487C627.499 460.273 629.574 458.753 631.612 457.181C633.286 455.889 635.328 456.837 637.488 457.498C637.188 463.784 635.349 469.632 632.476 475.455C632.285 475.706 632.172 475.789 632.191 475.859C632.21 475.93 631.879 475.915 632.011 476.021C631.155 478.891 630.166 481.655 629.137 484.744C629.098 485.069 628.766 484.992 628.909 485.089C628.842 485.655 628.631 486.123 628.369 486.98C628.138 487.423 627.957 487.479 627.507 487.443C624.886 484.12 624.759 484.078 622.747 487.616C616.47 498.651 609.03 508.838 601.393 518.755C594.802 527.315 586.489 534.264 577.329 539.66C570.909 543.442 567.741 542.235 563.843 535.606C562.66 533.593 561.272 531.869 559.294 530.312C558.702 529.183 558.409 528.133 558.029 527.119C556.919 524.161 557.079 521.331 558.261 518.377C559.918 514.236 561.033 509.859 563.115 505.582Z" fill="#6B5DDA"/>
<path d="M713.391 622.948C713.612 629.707 713.742 636.163 714.097 642.604C715.255 663.62 720.452 683.43 729.906 701.95C733.358 708.712 736.905 715.407 741.168 721.641C741.457 722.063 741.627 722.579 742.063 723.495C739.273 723.118 737.03 722.18 734.823 721.267C721.687 715.834 709.119 709.202 697.246 701.076C695.172 699.657 694.301 698.131 694.323 695.427C694.453 679.477 695.404 663.587 696.982 647.734C697.552 642 698.234 636.279 698.971 630.22C702.727 627.985 705.663 625.389 707.316 621.24C707.981 619.571 709.512 618.398 711.374 618.775C713.286 619.162 713.47 620.9 713.391 622.948Z" fill="#5E7FF4"/>
<path d="M559.077 530.548C561.2 530.14 562.544 531.261 563.624 533.251C568.376 542.004 570.613 542.566 579.044 537.787C582.385 535.893 584.856 532.878 587.88 530.581C590.686 528.449 593.288 526.007 595.94 523.65C599.117 520.826 601.777 517.431 604.082 513.846C608.572 506.861 613.465 500.205 618.271 493.483C620.009 491.054 620.919 488.182 622.69 485.804C623.645 484.522 624.431 483.171 626.056 482.407C627.225 483.79 626.356 485.807 627.852 487.39C627.737 488.792 627.285 489.819 626.805 491.188C626.777 491.529 626.426 491.581 626.578 491.679C626.522 492.25 626.314 492.724 626.051 493.587C625.997 493.977 625.644 494.073 625.744 494.236C625.399 495.403 624.953 496.408 624.479 497.747C624.449 498.081 624.099 498.181 624.233 498.31C623.903 499.471 623.437 500.503 622.938 501.877C622.903 502.22 622.551 502.305 622.693 502.424C622.364 503.587 621.894 504.631 621.392 506.021C621.359 506.368 621.006 506.427 621.156 506.531C620.831 507.681 620.358 508.727 619.846 510.12C619.808 510.467 619.455 510.552 619.595 510.674C619.283 511.857 618.832 512.917 618.321 514.323C618.262 514.668 617.906 514.697 618.026 514.838C617.446 516.609 616.747 518.238 615.993 520.195C615.937 520.523 615.593 520.469 615.728 520.585C614.892 522.905 613.921 525.11 612.891 527.63C612.833 527.946 612.469 527.942 612.494 528.135C612.127 529.059 611.736 529.791 611.323 530.841C611.301 531.159 610.957 531.16 611.112 531.239C611.119 531.602 610.972 531.885 610.634 532.579C608.454 537.223 606.464 541.456 604.363 545.945C604.105 546.486 603.96 546.77 603.646 547.506C603.477 547.957 603.2 547.738 603.27 547.906C596.246 562.272 588.013 575.692 578.872 588.847C578.373 589.208 578.002 589.167 577.422 588.817C574.19 579.807 571.144 571.005 568.175 562.175C566.84 558.205 565.659 554.177 564.239 549.867C564.07 549.558 564.352 549.325 564.174 549.312C563.647 547.96 563.298 546.62 562.772 544.985C562.596 544.69 562.809 544.372 562.634 544.31C561.346 539.792 560.232 535.336 559.077 530.548Z" fill="#6B63DF"/>
<path d="M1115.94 196.253C1114.17 196.341 1112.73 195.684 1111.27 195.177C1094.27 189.26 1076.89 185.038 1059.25 181.934C1050.63 180.417 1041.97 179.432 1033.27 178.564C1019.38 177.176 1005.46 177.476 991.586 178.113C974.091 178.916 956.905 182.318 940.032 187.387C939.298 187.608 938.519 187.662 937.458 187.822C941.368 184.556 946.36 183.064 951.155 181.21C964.478 176.059 978.229 172.686 992.242 170.455C1001.4 168.996 1010.61 168.392 1019.84 167.802C1026.92 167.349 1034 166.967 1041.05 167.367C1052.06 167.992 1063.08 168.512 1074.04 170.175C1087.15 172.164 1100.09 174.912 1113.29 178.132C1116.34 184.089 1117.66 190.461 1119.16 196.955C1118.4 197.118 1117.83 197.027 1116.98 196.879C1116.52 196.638 1116.33 196.472 1115.94 196.253Z" fill="#FF89F0"/>
<path d="M1301.71 337.602C1300.19 336.755 1299.72 334.972 1298.99 333.233C1294.8 323.178 1289.66 313.683 1283.35 304.948C1279.3 299.327 1275.16 293.796 1270.69 288.503C1264.56 281.226 1257.88 274.621 1250.63 268.699C1235.91 256.668 1220.39 245.949 1203.98 236.67C1196.7 232.554 1189.28 228.743 1181.8 224.464C1180.9 222.998 1181.07 221.628 1181.34 220.323C1182.31 215.726 1182.68 211.026 1183.8 206.146C1190.65 208.596 1196.79 212.356 1202.89 216.134C1214.24 223.157 1225.27 230.734 1235.45 239.575C1241.19 244.556 1246.95 249.513 1252.31 254.991C1261.34 264.217 1270.05 273.744 1277.43 284.525C1287.09 298.646 1295.42 313.568 1300.42 330.365C1301.08 332.583 1301.81 334.79 1301.71 337.602Z" fill="#FE98BD"/>
<path d="M1207.29 374.611C1206.95 379.427 1206.42 379.992 1202.16 379.973C1197.93 379.955 1193.76 379.802 1189.74 381.841C1187.23 383.116 1184.55 382.656 1181.94 381.39C1178.45 379.7 1175.03 377.798 1170.98 376.778C1169.18 376.914 1168.35 375.761 1167.47 374.805C1158.15 364.586 1148.17 355.162 1137.57 346.482C1136.86 345.897 1136.13 345.311 1135.93 344.022C1140.95 344.986 1146.08 345.118 1151.11 345.958C1152.41 346.173 1153.38 345.63 1154.38 345.064C1157.44 343.335 1160.47 341.547 1163.52 339.785C1166.62 337.993 1169.91 337.16 1173.46 337.031C1175.92 336.942 1178.57 336.936 1180.85 334.727C1184.81 336.897 1186.53 341.052 1188.85 344.578C1194.88 353.753 1200.58 363.168 1206.4 372.498C1206.75 373.061 1206.97 373.72 1207.29 374.611Z" fill="#F396F1"/>
<path d="M803.906 755.61C805.548 754.414 807.355 753.349 809.236 752.46C814.801 749.832 817.638 745.09 818.666 738.905C818.755 738.367 818.606 737.734 818.819 737.279C820.269 734.185 820.19 730.994 819.513 727.391C825.126 729.129 830.272 732.281 835.69 734.8C849.086 741.028 862.889 745.753 877.421 747.649C884.321 748.549 891.291 748.468 898.655 747.168C896.171 749.253 893.561 750.04 891.123 751.127C883.412 754.565 875.745 758.111 867.879 761.159C852.405 767.157 836.865 766.849 821.255 762.058C815.451 760.276 809.673 758.366 803.906 755.61Z" fill="#59A8FF"/>
<path d="M754.434 597.394C754.151 597.782 753.599 597.777 753.446 598.038C750.577 602.929 746.403 606.699 743.342 611.42C743.123 611.757 742.891 612.1 742.608 612.371C737.711 617.052 733.816 622.739 729.106 627.607C728.736 627.989 728.393 628.403 728.003 628.761C723.672 632.745 721.869 632.297 719.55 626.657C719.142 625.665 718.926 624.529 717.467 624.14C716.6 618.061 717.382 612.049 717.608 606.03C717.849 599.583 718.486 593.153 718.797 586.707C718.996 582.581 720.141 579.05 722.679 575.794C725.719 571.894 728.305 567.592 731.098 563.471C731.834 562.385 732.303 561.066 733.415 560.313C733.678 560.457 734.017 560.517 734.092 560.701C739.241 573.223 745.838 584.826 753.592 595.7C753.899 596.131 754.1 596.648 754.434 597.394Z" fill="#6478EE"/>
<path d="M1021.69 130.827C1003.94 129.809 986.302 129.821 968.642 130.688C957.177 131.25 945.751 132.225 934.36 133.59C920.662 135.233 907.042 137.515 893.488 140.219C878.661 143.178 864.004 146.909 849.184 151.223C846.478 147.971 846.512 143.848 845.514 139.814C854.32 136.471 863.289 134.573 872.245 132.675C891.338 128.63 910.615 126.154 930.055 124.89C944.099 123.977 958.142 123.843 972.172 124.491C988.507 125.247 1004.78 126.914 1021.21 130.117C1021.62 130.256 1021.72 130.415 1021.69 130.827Z" fill="#5A8BFC"/>
<path d="M1183.87 205.659C1184.55 211.965 1182.84 217.728 1181.68 223.92C1174.54 220.968 1167.48 217.649 1160.4 214.387C1148.94 209.109 1137.28 204.374 1125.46 200.117C1123.39 199.373 1121.38 198.429 1119.16 197.394C1118.94 196.802 1119.03 196.316 1118.86 196C1115.93 190.685 1114.94 184.704 1113.6 178.531C1133.1 183.357 1152.03 190.273 1170.48 198.714C1174.98 200.772 1179.34 203.116 1183.87 205.659Z" fill="#FD8FF0"/>
<path d="M1267.09 421.826C1262.99 418.892 1259.62 415.514 1256.45 411.887C1254.68 409.862 1254.35 407.94 1255.41 405.214C1260.94 390.978 1264.98 376.251 1267.53 361.074C1267.89 358.916 1268.14 356.734 1268.37 354.555C1268.74 351.062 1268.2 347.749 1266.7 344.576C1264.37 339.679 1262.04 334.776 1260.61 329.468C1260.15 327.784 1259.54 326.113 1260.34 324.039C1263.23 325.539 1265.32 327.919 1267.67 329.982C1271.1 333.012 1273.05 336.643 1273.58 341.479C1274.75 352.227 1276.34 362.911 1277.11 373.725C1277.87 384.429 1277.67 395.12 1277.7 405.82C1277.71 412 1277.21 418.149 1276.35 424.253C1275.92 427.258 1275.07 427.571 1272.49 426.196C1270.51 425.141 1269.11 423.292 1267.09 421.826Z" fill="#6BBFFE"/>
<path d="M553.402 615.668C552.202 616.147 551.277 616.623 550.339 617.068C546.434 618.919 544.041 618.021 542.237 613.838C540.883 610.699 540.206 607.355 539.986 603.892C539.275 592.711 540.431 581.691 542.494 570.757C544.271 561.337 546.721 552.1 549.403 542.931C549.597 542.267 549.793 541.623 550.709 541.172C553.037 549.02 555.412 556.812 557.654 564.648C560.129 573.295 562.427 582 564.922 590.64C565.599 592.983 566.65 595.212 567.634 597.441C568.885 600.277 568.96 600.286 566.75 602.636C564.38 605.157 561.946 607.611 559.402 610.314C557.976 612.954 555.931 614.436 553.402 615.668Z" fill="#6769E3"/>
<path d="M713.508 622.957C712.958 622.904 712.708 622.452 712.674 621.876C712.615 620.895 712.499 619.824 711.491 619.529C710.252 619.165 709.197 619.95 708.507 620.899C707.737 621.958 707.216 623.242 706.681 624.474C705.277 627.701 702.962 629.53 699.353 629.883C699.445 623.171 700.589 616.554 701.466 609.907C702.992 598.344 704.149 586.746 704.938 575.103C705.923 560.563 705.812 546.013 705.449 531.171C707.492 532.002 708.814 533.912 710.708 535.103C712.083 535.967 713.007 535.824 714.099 534.748C716.365 532.515 718.142 529.878 719.824 527.154C720.383 526.248 720.87 525.291 721.435 524.388C723.842 520.538 723.848 520.543 727.154 523.476C727.159 525.466 726.219 527.149 725.406 528.825C720.664 538.602 718.806 549.208 717.167 559.917C715.485 570.918 715.74 582.045 715.017 593.106C714.374 602.942 714.084 612.805 713.508 622.957Z" fill="#6478EE"/>
<path d="M1198.24 522.173C1199.74 521.78 1200.72 522.328 1201.12 523.973C1201.48 525.426 1202 526.836 1202.5 528.246C1203.47 531.032 1205.34 531.896 1207.45 530.112C1209 528.795 1210.52 528.332 1212.39 528.417C1215.09 528.538 1217.17 527.357 1218.3 524.679C1219.39 522.067 1221.31 520.164 1223.32 518.531C1225.12 517.073 1226.52 515.536 1227.56 513.383C1229.16 510.055 1232.62 509.075 1235.54 507.031C1233.93 513.536 1231.49 519.839 1228.88 526.076C1223.92 537.94 1219.03 549.837 1214 561.663C1211.82 566.772 1209.35 571.739 1206.82 576.952C1206.5 577.117 1206.33 577.149 1206.25 577.074C1204.12 575.032 1201.96 574.091 1199.52 576.626C1198.95 577.21 1198.07 577.105 1197.33 576.729C1196.25 576.174 1195.09 576.29 1193.62 576.258C1193.64 571.612 1195.31 567.27 1195.96 562.685C1196.77 556.909 1197.61 551.154 1198.15 545.327C1198.71 539.327 1198.68 533.356 1198.74 527.364C1198.76 525.714 1198.63 524.097 1198.24 522.173Z" fill="#D5AAF9"/>
<path d="M762.376 185.044C752.822 191.408 742.749 196.176 733.43 202.384C730.716 204.193 727.989 205.979 725.11 207.989C724.604 209.21 723.677 209.399 722.669 209.903C722.055 210.137 721.696 210.302 721.237 210.652C714.427 216.812 707.209 222.033 699.605 227.159C699.346 227.252 699.461 227.228 699.403 227.223C698.823 228.441 697.791 229.022 696.498 229.659C696.262 229.747 696.385 229.74 696.325 229.726C693.132 233.748 689.294 236.867 684.82 239.587C680.936 242.322 677.752 245.535 674.579 248.729C664.279 259.102 654.255 269.766 645.159 281.376C644.405 282.339 643.805 283.656 642.059 283.768C642.147 281.624 643.412 280.21 644.334 278.981C657.167 261.878 670.907 245.673 686.191 230.969C691.913 225.464 697.639 219.917 703.696 214.903C717.055 203.843 730.586 192.97 745.362 184.055C749.719 181.426 754.13 178.897 758.797 176.266C760.277 179.051 762.698 181.33 762.376 185.044Z" fill="#6B5DDA"/>
<path d="M963.545 482.978C964.269 483.786 964.818 484.368 965.326 484.99C972.184 493.397 972.559 501.824 966.465 510.854C963.965 514.559 960.808 517.619 957.774 520.795C952.714 526.091 947.571 531.298 942.961 537.061C939.083 541.911 935.76 547.098 933.894 553.225C933.701 553.859 933.586 554.569 932.737 555.075C931.752 550.889 932.503 546.952 933.642 543.073C934.971 538.549 937.446 534.686 940.07 530.924C944.31 524.844 949.383 519.53 953.973 513.772C957.316 509.577 959.421 504.842 959.699 499.234C959.981 493.54 958.134 488.708 954.703 484.513C952.247 481.511 949.622 478.668 947.091 475.736C944.996 473.311 942.914 470.873 940.849 468.419C935.341 461.874 933.601 454.116 934.355 445.567C934.681 445.425 934.919 445.509 935.022 445.835C938.257 456.063 944.756 463.816 951.887 471.09C955.707 474.985 959.53 478.877 963.545 482.978Z" fill="#6E53CE"/>
<path d="M675.677 707.97C674.153 708.172 673.423 707.099 672.534 706.347C664.158 699.258 656.211 691.644 648.361 683.911C644.772 680.376 641.29 676.672 636.888 674.24C633.902 672.591 631.739 670.08 630.371 666.907C628.451 662.452 625.47 658.949 622.291 655.52C609.482 641.704 599.018 625.856 588.073 610.428C587.702 609.906 587.234 609.373 587.656 608.262C590.527 609.279 593.147 610.655 595.302 613.053C600.657 619.011 605.307 625.598 610.233 631.936C624.64 650.471 640.204 667.778 657.447 683.362C664.52 689.753 671.608 696.11 679.188 702.231C679.104 702.709 678.847 702.884 678.33 703.072C676.723 704.354 677.005 706.462 675.677 707.97Z" fill="#59A8FF"/>
<path d="M909.78 844.189C909.153 846.492 908.351 848.655 907.399 850.739C906.691 852.286 907.183 853.628 907.615 855.081C909.41 861.121 906.689 867.34 901.299 869.845C899.666 870.604 898.162 871.677 896.543 872.476C894.799 873.337 893.004 874.085 891.009 873.993C887.957 873.853 885.662 875.462 884.536 878.252C883.38 881.12 881.535 881.69 879.018 881.414C877.874 881.288 876.709 881.321 875.579 881.117C872.499 880.561 871.86 881.187 872.401 884.429C872.467 884.826 872.665 885.198 872.844 885.88C872.28 886.167 871.673 886.155 870.856 886.062C870.618 884.891 870.701 883.781 870.547 882.711C869.925 878.395 872.077 876.074 875.531 874.668C878.632 873.406 881.737 872.153 884.857 870.947C890.02 868.954 894.198 862.051 893.792 856.218C893.661 854.334 892.93 852.796 891.67 851.557C890.471 850.377 889.737 849.07 889.899 847.257C890.028 845.82 889.424 844.56 888.637 843.481C887.883 842.447 887.503 841.37 887.589 839.767C893.621 840.105 899.416 842.09 905.391 843.081C906.786 843.312 908.158 843.699 909.78 844.189Z" fill="#5BB2FF"/>
<path d="M762.48 185.343C762.362 183.804 761.682 182.737 760.757 181.699C759.572 180.37 758.978 178.736 759.085 176.536C759.402 175.798 759.647 175.213 760.06 175.002C769.292 170.271 778.56 165.619 787.784 160.872C793.611 157.873 799.869 156.062 806.065 153.255C808.603 153.565 808.596 155.621 808.771 157.256C809.015 159.525 809.922 161.805 808.832 164.425C805.063 166.654 801.205 167.797 797.486 169.322C787.141 173.565 777.007 178.319 767.006 183.404C765.613 184.112 764.18 184.729 762.48 185.343Z" fill="#6769E3"/>
<path d="M677.749 702.751C678.291 702.451 678.584 702.455 679.098 702.461C682.991 704.469 686.069 707.4 689.41 709.913C700.425 718.201 711.697 726.057 723.241 733.477C724.779 734.466 726.372 735.389 727.788 736.551C729.739 738.151 731.388 739.911 731.116 743.011C730.891 745.571 732.57 747.609 733.715 750.084C733.886 750.544 733.898 750.735 733.759 751.166C727.708 748.309 722.273 744.389 716.802 740.547C703.593 731.27 690.571 721.712 678.107 710.876C675.908 708.263 676.936 705.644 677.749 702.751Z" fill="#55A7FF"/>
<path d="M788.469 781.324C784.699 781.142 781.599 778.732 778.315 776.977C766.686 770.763 755.261 764.128 743.925 757.321C741.765 756.024 740.396 754.486 739.792 751.812C739.205 749.21 737.972 746.773 737.021 744.258C737.353 744.133 737.656 743.908 737.776 743.99C748.333 751.132 760.153 755.144 771.898 759.185C776.759 760.857 780.242 762.937 781.813 768.523C783.099 773.1 786.143 776.909 788.469 781.324Z" fill="#59A8FF"/>
<path d="M808.933 164.715C808.125 161 808.135 157.183 806.566 153.418C812.011 150.351 818.029 148.544 823.944 146.437C830.902 143.959 837.836 141.39 845.304 139.556C847.52 142.929 848.072 146.807 848.88 150.914C840.422 154.014 831.938 156.764 823.485 159.615C818.708 161.227 813.982 163.007 808.933 164.715Z" fill="#6478EE"/>
<path d="M909.928 495.869C909.566 489.088 912.439 484.579 917.475 481.351C922.283 478.269 927.71 477.033 933.045 478.27C931.894 478.504 930.739 478.72 929.592 478.973C920.254 481.028 916.395 491.083 921.662 499.628C923.02 501.833 924.813 503.609 926.676 505.306C928.634 507.09 930.621 508.836 932.596 510.598C936.689 514.249 938.506 518.804 937.421 524.49C937.171 525.802 937.295 527.207 936.626 528.419C936.355 528.351 935.972 528.361 935.919 528.226C933.193 521.177 927.931 516.575 922.384 512.247C919.578 510.057 916.732 507.917 914.385 505.145C912.198 502.562 910.376 499.767 909.928 495.869Z" fill="#6E53CE"/>
<path d="M1289.07 406.886C1291.95 409.644 1293.91 413.062 1295.51 416.622C1298.83 423.997 1302.12 431.402 1304.38 439.253C1304.48 439.625 1304.44 440.045 1304.5 440.791C1298.54 441.451 1293.75 439.127 1289.64 434.891C1288.92 434.147 1288.47 433.083 1287.45 432.706C1285.61 432.03 1285.19 430.47 1285.53 428.752C1286.93 421.788 1287.54 414.709 1288.47 407.319C1288.53 406.971 1288.89 406.938 1289.07 406.886Z" fill="#6BBFFE"/>
<path d="M1270.79 326.98C1268.36 324.156 1265.5 321.407 1262.79 318.491C1261.8 317.413 1260.84 316.325 1260.82 314.645C1260.76 308.793 1261.76 303.091 1262.96 297.311C1266.62 306.816 1269.12 316.584 1270.79 326.98Z" fill="#6BBFFE"/>
<path d="M1242.83 288.999C1237.73 285.828 1233.14 281.606 1228.37 277.659C1223.58 273.7 1218.61 270.017 1213.61 266.378C1211.92 265.143 1210.31 263.837 1208.83 261.958C1214.79 262.414 1234.76 278.31 1242.83 288.999Z" fill="#6B63DF"/>
<path d="M628.707 302.632C629.369 299.945 630.869 297.93 632.347 295.859C634.355 293.042 636.168 290.069 638.068 287.165C638.431 286.61 638.726 285.957 639.202 285.546C639.77 285.056 640.549 284.502 641.235 285.263C641.785 285.872 641.296 286.533 640.912 287.063C639.577 288.9 638.221 290.719 636.87 292.542C634.409 295.867 631.946 299.189 629.274 302.708C629.065 302.904 628.768 302.787 628.707 302.632Z" fill="#D2AEFA"/>
<path d="M997.266 799.617C995.977 801.169 994.256 800.584 992.354 800.116C993.705 798.949 995.373 799.292 997.266 799.617Z" fill="#6BBFFE"/>
<path d="M1214.95 627.656C1217.22 629.001 1217.07 630.028 1214.21 631.408C1214.2 630.23 1214.5 629.071 1214.95 627.656Z" fill="#65BDFF"/>
<path d="M966.297 799.75C965.414 800.936 964.234 800.712 962.858 799.999C963.786 799.035 964.939 799.27 966.297 799.75Z" fill="#6BBFFE"/>
<path d="M1112.63 238.814C1111.77 240.162 1110.57 239.894 1109.17 239.212C1110.05 237.981 1111.24 238.185 1112.63 238.814Z" fill="#F396F1"/>
<path d="M882.749 786.567C882.315 787.458 881.644 787.505 880.771 786.788C881.251 786.065 881.911 786.095 882.749 786.567Z" fill="#6BBFFE"/>
<path d="M1007.42 798.869C1007.26 799.548 1006.88 799.819 1006.19 799.253C1006.39 798.632 1006.8 798.511 1007.42 798.869Z" fill="#6BBFFE"/>
<path d="M953.229 798.931C953 799.601 952.585 799.776 951.954 799.148C952.224 798.552 952.646 798.515 953.229 798.931Z" fill="#6BBFFE"/>
<path d="M1015.14 797.951C1015.02 798.673 1014.65 799.049 1013.9 798.395C1014.12 797.887 1014.5 797.734 1015.14 797.951Z" fill="#6BBFFE"/>
<path d="M945.49 798.097C945.252 798.778 944.831 798.945 944.202 798.293C944.483 797.695 944.91 797.672 945.49 798.097Z" fill="#6BBFFE"/>
<path d="M1020.59 797.208C1020.44 797.882 1020.07 798.166 1019.36 797.643C1019.54 797.005 1019.94 796.862 1020.59 797.208Z" fill="#6BBFFE"/>
<path d="M939.29 797.313C939.042 797.979 938.622 798.12 938.015 797.487C938.298 796.899 938.721 796.872 939.29 797.313Z" fill="#6BBFFE"/>
<path d="M963.604 831.136C963.832 830.455 964.248 830.271 964.888 830.916C964.614 831.51 964.19 831.549 963.604 831.136Z" fill="#6BBFFE"/>
<path d="M975.214 831.969C975.433 831.291 975.846 831.092 976.494 831.73C976.23 832.342 975.805 832.37 975.214 831.969Z" fill="#6BBFFE"/>
<path d="M896.239 885.666C896.397 884.989 896.778 884.685 897.502 885.271C897.279 885.86 896.86 885.954 896.239 885.666Z" fill="#5BB2FF"/>
<path d="M862.208 885.564C862.44 884.88 862.86 884.698 863.497 885.367C863.212 885.948 862.784 885.94 862.208 885.564Z" fill="#5BB2FF"/>
<path d="M849.101 883.877C849.345 883.112 849.785 882.996 850.356 883.772C850.058 884.205 849.665 884.208 849.101 883.877Z" fill="#5BB2FF"/>
<path d="M879.242 886.372C879.43 885.706 879.82 885.48 880.477 886.086C880.236 886.653 879.825 886.705 879.242 886.372Z" fill="#5BB2FF"/>
<path d="M1302.38 340.196C1302.99 340.779 1303.31 341.296 1302.69 341.629C1302.12 341.941 1301.87 341.357 1301.76 340.566C1301.89 340.212 1302.04 340.098 1302.38 340.196Z" fill="#F5F9FD"/>
<path d="M1312.04 507.649C1311.46 507.425 1311.32 506.995 1311.67 506.314C1312.31 506.492 1312.57 506.898 1312.04 507.649Z" fill="#F5F9FD"/>
<path d="M1017.78 832.015C1017.96 831.343 1018.35 831.084 1019.04 831.666C1018.81 832.274 1018.39 832.377 1017.78 832.015Z" fill="#6BBFFE"/>
<path d="M1380.07 558.007C1379.5 557.721 1379.43 557.271 1379.86 556.64C1380.5 556.885 1380.68 557.328 1380.07 558.007Z" fill="#F5F9FD"/>
<path d="M924.181 826.139C924.445 825.355 924.897 825.305 925.465 826.048C925.163 826.495 924.759 826.511 924.181 826.139Z" fill="#6BBFFE"/>
<path d="M919.537 825.312C919.811 824.523 920.265 824.484 920.825 825.241C920.517 825.685 920.111 825.694 919.537 825.312Z" fill="#6BBFFE"/>
<path d="M895.542 820.355C895.842 819.557 896.3 819.554 896.838 820.334C896.513 820.763 896.106 820.753 895.542 820.355Z" fill="#6BBFFE"/>
<path d="M1302.53 340.13C1302.43 340.402 1302.29 340.396 1301.95 340.358C1301.71 339.754 1301.67 339.183 1301.61 338.327C1301.59 338.043 1301.7 337.942 1301.76 337.892C1302.47 338.346 1302.45 339.111 1302.53 340.13Z" fill="#FE98BD"/>
<path d="M939.156 316.344C939.262 316.539 939.152 316.81 938.864 317.202C938.686 317.322 938.318 317.32 938.134 317.323C938.281 317.023 938.611 316.721 939.156 316.344Z" fill="#F396F1"/>
<path d="M937.133 187.825C936.941 187.985 936.766 188.171 936.563 188.314C936.513 188.348 936.376 188.239 936.279 188.197C936.46 188.098 936.641 187.999 936.988 187.875C937.155 187.85 937.138 187.835 937.133 187.825Z" fill="#FF89F0"/>
<path d="M1282.94 448.03C1282.73 448.166 1282.41 448.164 1281.84 448.159C1281.94 447.757 1282.34 447.554 1282.94 448.03Z" fill="#F5F9FD"/>
<path d="M1270.84 327.266C1271.25 327.579 1271.71 327.841 1271.07 328.325C1270.97 328.123 1270.87 327.921 1270.78 327.538C1270.78 327.357 1270.79 327.232 1270.84 327.266Z" fill="#F5F9FD"/>
<path d="M623.294 311.918C623.322 311.966 623.267 311.87 623.294 311.918Z" fill="#F5F9FD"/>
<path d="M1335.5 656.927C1335.36 656.811 1335.4 656.674 1335.68 656.569C1335.79 656.556 1335.57 656.863 1335.5 656.927Z" fill="#F5F9FD"/>
<path d="M941.594 314.091C941.613 314.231 941.45 314.449 941.095 314.732C941.073 314.587 941.242 314.378 941.594 314.091Z" fill="#F396F1"/>
<path d="M586.529 455.35C586.524 455.333 586.603 455.446 586.537 455.427C586.471 455.408 586.534 455.367 586.529 455.35Z" fill="#F5F9FD"/>
<path d="M1269.76 458.917C1269.57 458.828 1269.59 458.663 1269.87 458.446C1269.96 458.536 1269.91 458.685 1269.76 458.917Z" fill="#F5F9FD"/>
<path d="M945.435 310.748C945.46 310.898 945.297 311.127 944.934 311.419C944.905 311.263 945.076 311.045 945.435 310.748Z" fill="#F396F1"/>
<path d="M856.586 666.835C856.708 666.935 856.383 666.936 856.383 666.936C856.383 666.936 856.089 666.791 855.99 666.661C856.087 666.582 856.279 666.65 856.586 666.835Z" fill="#6BBFFE"/>
<path d="M1281.49 736.234C1281.74 736.055 1281.95 736.089 1282.46 736.183C1282.57 736.502 1282.38 736.761 1282.01 737.184C1281.84 737.35 1281.6 737.107 1281.47 736.989C1281.38 736.729 1281.41 736.587 1281.49 736.234Z" fill="#5EBAFF"/>
<path d="M594.273 442.133C594.26 442.145 594.37 442.16 594.34 442.114C594.31 442.068 594.286 442.121 594.273 442.133Z" fill="#F5F9FD"/>
<path d="M799.287 753.796C799.42 753.63 799.641 753.7 799.954 753.994C800.068 754.133 799.71 754.133 799.71 754.133C799.71 754.133 799.398 753.947 799.287 753.796Z" fill="#59A8FF"/>
<path d="M1115.89 196.345C1116.01 196.279 1116.25 196.376 1116.6 196.647C1116.43 196.809 1116.2 196.705 1115.89 196.345Z" fill="#EB9DF2"/>
<path d="M1269.76 766.566C1269.59 766.47 1269.62 766.325 1269.89 766.169C1270 766.13 1269.82 766.489 1269.76 766.566Z" fill="#F5F9FD"/>
<path d="M1213.61 770.83C1213.46 770.59 1213.59 770.365 1214.03 770.231C1214.12 770.469 1213.97 770.643 1213.61 770.83Z" fill="#F5F9FD"/>
<path d="M1212.13 771.676C1211.96 771.451 1212.06 771.235 1212.48 771.123C1212.57 771.344 1212.44 771.497 1212.13 771.676Z" fill="#F5F9FD"/>
<path d="M1210.63 772.482C1210.46 772.262 1210.55 772.069 1210.94 772.008C1211.01 772.217 1210.89 772.34 1210.63 772.482Z" fill="#F5F9FD"/>
<path d="M788.504 781.621C788.492 781.628 788.761 781.817 788.761 781.817C788.761 781.817 788.59 781.762 788.561 781.676C788.532 781.589 788.516 781.614 788.504 781.621Z" fill="#59A8FF"/>
<path d="M935.331 319.701C935.355 319.85 935.196 320.122 934.809 320.457C934.77 320.287 934.959 320.056 935.331 319.701Z" fill="#F396F1"/>
<path d="M1289.16 406.763C1289.24 406.834 1288.9 406.961 1288.71 406.966C1288.66 406.735 1288.84 406.642 1289.16 406.763Z" fill="#F5F9FD"/>
<path d="M1247.26 806.198C1247.12 806.082 1247.16 805.942 1247.44 805.826C1247.55 805.806 1247.33 806.131 1247.26 806.198Z" fill="#F5F9FD"/>
<path d="M774.871 323.207C774.783 323.039 774.896 322.767 775.195 322.38C775.278 322.545 775.175 322.824 774.871 323.207Z" fill="#6B63DF"/>
<path d="M603.356 548.046C603.34 548.074 603.373 547.882 603.425 547.92C603.477 547.957 603.372 548.019 603.356 548.046Z" fill="#F5F9FD"/>
<path d="M612.576 528.269C612.519 528.327 612.645 527.974 612.739 527.96C612.833 527.945 612.634 528.211 612.576 528.269Z" fill="#F5F9FD"/>
<path d="M611.261 531.291C611.267 531.319 611.164 531.218 611.232 531.189C611.301 531.159 611.254 531.264 611.261 531.291Z" fill="#F5F9FD"/>
<path d="M610.433 533.009C610.443 532.991 610.392 533.037 610.44 533.054C610.487 533.071 610.423 533.028 610.433 533.009Z" fill="#F5F9FD"/>
<path d="M1243.7 290.117C1243.76 290.087 1243.63 290.146 1243.7 290.117Z" fill="#6B63DF"/>
<path d="M562.479 544.324C562.615 544.273 562.706 544.368 562.663 544.612C562.596 544.69 562.497 544.4 562.479 544.324Z" fill="#F5F9FD"/>
<path d="M604.238 546.219C604.251 546.201 604.194 546.239 604.242 546.259C604.29 546.278 604.226 546.236 604.238 546.219Z" fill="#F5F9FD"/>
<path d="M1247.36 526.538C1247.31 526.61 1247.22 526.404 1247.22 526.404C1247.22 526.404 1247.34 526.217 1247.45 526.184C1247.56 526.152 1247.4 526.466 1247.36 526.538Z" fill="#F5F9FD"/>
<path d="M1238.74 548.037C1238.57 547.919 1238.61 547.747 1238.9 547.549C1238.99 547.657 1238.92 547.81 1238.74 548.037Z" fill="#F5F9FD"/>
<path d="M564.014 549.342C563.996 549.3 564.219 549.495 564.145 549.527C564.07 549.558 564.031 549.384 564.014 549.342Z" fill="#F5F9FD"/>
<path d="M1243.66 290.106C1243.5 289.906 1243.32 289.722 1243 289.399C1242.88 289.253 1242.86 289.282 1242.84 289.291C1243.09 289.388 1243.29 289.552 1243.53 289.969C1243.63 290.146 1243.65 290.114 1243.66 290.106Z" fill="#6B63DF"/>
<path d="M1302.26 574.386C1302.06 574.29 1302.08 574.114 1302.37 573.88C1302.47 573.977 1302.42 574.138 1302.26 574.386Z" fill="#F5F9FD"/>
<path d="M572.589 482.586C572.589 482.556 572.666 482.719 572.592 482.714C572.519 482.709 572.589 482.615 572.589 482.586Z" fill="#F5F9FD"/>
<path d="M1301.56 576.819C1301.51 576.902 1301.4 576.689 1301.4 576.689C1301.4 576.689 1301.52 576.48 1301.63 576.426C1301.73 576.373 1301.6 576.737 1301.56 576.819Z" fill="#F5F9FD"/>
<path d="M1300.84 579.253C1300.82 579.315 1300.78 579.001 1300.87 578.973C1300.97 578.946 1300.86 579.192 1300.84 579.253Z" fill="#F5F9FD"/>
<path d="M1375 581.001C1374.81 580.894 1374.84 580.716 1375.13 580.49C1375.23 580.592 1375.17 580.755 1375 581.001Z" fill="#F5F9FD"/>
<path d="M632.264 494.751C632.535 494.791 632.568 494.988 632.32 495.328C632.129 495.253 632.125 495.064 632.264 494.751Z" fill="#D2AEFA"/>
<path d="M1258.12 497.705C1257.95 497.601 1257.98 497.436 1258.26 497.236C1258.34 497.333 1258.28 497.48 1258.12 497.705Z" fill="#F5F9FD"/>
<path d="M1266.42 497.286C1266.48 497.381 1266.4 497.543 1266.19 497.777C1266.13 497.681 1266.21 497.516 1266.42 497.286Z" fill="#F5F9FD"/>
<path d="M622.839 502.489C622.834 502.544 622.753 502.296 622.828 502.258C622.903 502.22 622.844 502.434 622.839 502.489Z" fill="#F5F9FD"/>
<path d="M1255.77 504.318C1255.59 504.202 1255.63 504.025 1255.93 503.811C1256.02 503.918 1255.95 504.078 1255.77 504.318Z" fill="#F5F9FD"/>
<path d="M621.305 506.589C621.305 506.635 621.214 506.435 621.286 506.401C621.359 506.368 621.305 506.544 621.305 506.589Z" fill="#F5F9FD"/>
<path d="M1299.19 585.098C1299 585.011 1299.01 584.85 1299.29 584.64C1299.38 584.728 1299.33 584.872 1299.19 585.098Z" fill="#F5F9FD"/>
<path d="M1254.27 508.421C1254.09 508.323 1254.12 508.164 1254.4 507.975C1254.48 508.068 1254.42 508.207 1254.27 508.421Z" fill="#F5F9FD"/>
<path d="M619.74 510.74C619.735 510.796 619.656 510.543 619.732 510.505C619.807 510.467 619.746 510.685 619.74 510.74Z" fill="#F5F9FD"/>
<path d="M1252.75 512.53C1252.57 512.444 1252.59 512.296 1252.86 512.119C1252.93 512.204 1252.88 512.331 1252.75 512.53Z" fill="#F5F9FD"/>
<path d="M618.159 514.926C618.145 514.98 618.091 514.706 618.177 514.687C618.262 514.668 618.173 514.872 618.159 514.926Z" fill="#F5F9FD"/>
<path d="M1251.2 516.657C1251.02 516.569 1251.04 516.422 1251.31 516.249C1251.38 516.334 1251.33 516.459 1251.2 516.657Z" fill="#F5F9FD"/>
<path d="M615.864 520.669C615.863 520.702 615.786 520.521 615.861 520.522C615.937 520.524 615.866 520.636 615.864 520.669Z" fill="#F5F9FD"/>
<path d="M1249.61 520.798C1249.44 520.696 1249.47 520.535 1249.75 520.348C1249.83 520.443 1249.77 520.583 1249.61 520.798Z" fill="#F5F9FD"/>
<path d="M1268.81 490.67C1268.87 490.778 1268.77 490.967 1268.55 491.254C1268.46 491.138 1268.54 490.938 1268.81 490.67Z" fill="#F5F9FD"/>
<path d="M1343.22 645.385C1343.07 645.259 1343.12 645.107 1343.41 644.971C1343.47 645.077 1343.39 645.201 1343.22 645.385Z" fill="#F5F9FD"/>
<path d="M1265.13 475.407C1264.94 475.322 1264.95 475.163 1265.23 474.958C1265.32 475.044 1265.27 475.185 1265.13 475.407Z" fill="#F5F9FD"/>
<path d="M1285.35 627.903C1285.32 627.979 1285.2 627.807 1285.2 627.807C1285.2 627.807 1285.3 627.616 1285.39 627.561C1285.48 627.505 1285.38 627.826 1285.35 627.903Z" fill="#F5F9FD"/>
<path d="M1351.82 631.325C1351.78 631.383 1351.71 631.184 1351.71 631.184C1351.71 631.184 1351.84 631.027 1351.94 631.024C1352.05 631.02 1351.87 631.266 1351.82 631.325Z" fill="#F5F9FD"/>
<path d="M627.49 632.743C627.474 632.739 627.609 632.875 627.557 632.823C627.504 632.772 627.505 632.747 627.49 632.743Z" fill="#F5F9FD"/>
<path d="M1283.05 634.484C1283.03 634.554 1282.99 634.226 1283.07 634.177C1283.16 634.128 1283.07 634.414 1283.05 634.484Z" fill="#F5F9FD"/>
<path d="M1280.73 641.074C1280.71 641.141 1280.67 640.829 1280.75 640.783C1280.84 640.737 1280.75 641.007 1280.73 641.074Z" fill="#F5F9FD"/>
<path d="M1344.78 642.903C1344.63 642.783 1344.68 642.635 1344.97 642.502C1345.02 642.604 1344.95 642.723 1344.78 642.903Z" fill="#F5F9FD"/>
<path d="M1279.89 643.627C1279.85 643.7 1279.74 643.506 1279.74 643.506C1279.74 643.506 1279.86 643.318 1279.96 643.281C1280.07 643.244 1279.93 643.554 1279.89 643.627Z" fill="#F5F9FD"/>
<path d="M625.935 627.74C625.919 627.724 626.1 627.88 626.029 627.858C625.958 627.836 625.95 627.757 625.935 627.74Z" fill="#F5F9FD"/>
<path d="M1138.18 250.299C1138.02 250.382 1137.86 250.247 1137.69 249.92C1137.86 249.791 1138.04 249.91 1138.18 250.299Z" fill="#FD8FF0"/>
<path d="M1339.43 651.128C1339.39 651.174 1339.41 650.87 1339.5 650.879C1339.58 650.888 1339.46 651.082 1339.43 651.128Z" fill="#F5F9FD"/>
<path d="M580.328 466.938C580.311 466.951 580.401 466.94 580.341 466.929C580.281 466.918 580.344 466.925 580.328 466.938Z" fill="#F5F9FD"/>
<path d="M1267.95 493.17C1268.01 493.263 1267.94 493.423 1267.74 493.651C1267.68 493.558 1267.75 493.398 1267.95 493.17Z" fill="#F5F9FD"/>
<path d="M1333.15 660.239C1333.01 660.133 1333.05 660.002 1333.3 659.892C1333.4 659.88 1333.22 660.18 1333.15 660.239Z" fill="#F5F9FD"/>
<path d="M844.151 662.733C844.039 662.865 843.844 662.799 843.589 662.512C843.692 662.435 843.872 662.517 844.151 662.733Z" fill="#6BBFFE"/>
<path d="M846.482 663.556C846.373 663.69 846.178 663.63 845.917 663.351C846.018 663.272 846.199 663.348 846.482 663.556Z" fill="#6BBFFE"/>
<path d="M848.808 664.379C848.698 664.515 848.502 664.454 848.239 664.172C848.34 664.094 848.522 664.172 848.808 664.379Z" fill="#6BBFFE"/>
<path d="M586.463 606.972C586.649 606.958 586.825 607.114 587.001 607.271C586.752 607.562 586.569 607.519 586.463 606.972Z" fill="#59A8FF"/>
<path d="M1372.74 587.573C1372.55 587.491 1372.57 587.344 1372.84 587.164C1372.95 587.114 1372.79 587.49 1372.74 587.573Z" fill="#F5F9FD"/>
<path d="M1368.9 597.458C1368.86 597.527 1368.76 597.333 1368.76 597.333C1368.76 597.333 1368.88 597.153 1368.98 597.125C1369.08 597.098 1368.94 597.389 1368.9 597.458Z" fill="#F5F9FD"/>
<path d="M755.27 598.285C755.112 598.351 754.881 598.201 754.562 597.85C754.716 597.789 754.956 597.929 755.27 598.285Z" fill="#6478EE"/>
<path d="M1293.11 604.816C1293.1 604.866 1293.05 604.599 1293.14 604.587C1293.23 604.574 1293.13 604.765 1293.11 604.816Z" fill="#F5F9FD"/>
<path d="M585.774 606.86C585.554 606.664 585.587 606.502 585.657 606.094C585.911 606.026 586.127 606.205 586.409 606.592C586.473 606.802 586.494 606.773 586.505 606.758C586.353 606.793 586.19 606.843 585.774 606.86Z" fill="#59A8FF"/>
<path d="M851.178 665.172C851.067 665.327 850.854 665.275 850.567 664.978C850.67 664.899 850.865 664.975 851.178 665.172Z" fill="#6BBFFE"/>
<path d="M1292.31 607.316C1292.28 607.379 1292.15 607.224 1292.15 607.224C1292.15 607.224 1292.26 607.049 1292.36 607.024C1292.45 606.999 1292.34 607.253 1292.31 607.316Z" fill="#F5F9FD"/>
<path d="M573.348 480.96C573.341 480.945 573.436 481.033 573.367 481.025C573.298 481.017 573.356 480.974 573.348 480.96Z" fill="#F5F9FD"/>
<path d="M946.231 309.935C946.264 310.076 946.117 310.301 945.788 310.605C945.755 310.462 945.904 310.241 946.231 309.935Z" fill="#F396F1"/>
<path d="M1288.45 618.849C1288.43 618.906 1288.4 618.61 1288.49 618.591C1288.58 618.573 1288.48 618.793 1288.45 618.849Z" fill="#F5F9FD"/>
<path d="M1358.78 618.95C1358.61 618.854 1358.64 618.72 1358.91 618.592C1359.02 618.57 1358.83 618.881 1358.78 618.95Z" fill="#F5F9FD"/>
<path d="M632.143 476.091C632.144 476.126 632.056 475.952 632.133 475.941C632.21 475.93 632.143 476.056 632.143 476.091Z" fill="#F5F9FD"/>
<path d="M1287.62 621.368C1287.57 621.445 1287.47 621.236 1287.47 621.236C1287.47 621.236 1287.59 621.039 1287.7 620.995C1287.8 620.952 1287.66 621.29 1287.62 621.368Z" fill="#F5F9FD"/>
<path d="M1355.65 624.74C1355.5 624.633 1355.53 624.492 1355.81 624.363C1355.92 624.338 1355.72 624.67 1355.65 624.74Z" fill="#F5F9FD"/>
<path d="M1271.18 667.143C1271.22 667.241 1270.78 666.65 1271.18 667.143Z" fill="#F5F9FD"/>
<path d="M1015.16 337.309C1027.05 333.276 1038.97 330.011 1051.17 328.269C1059.79 327.037 1068.51 326.391 1077.22 327.904C1078.61 328.144 1080.02 328.189 1081.67 328.523C1081.85 329.969 1082.54 330.682 1083.39 331.416C1084.47 332.353 1084.37 333.266 1082.94 333.74C1082.21 333.983 1081.36 334.463 1080.72 334.272C1078.26 333.543 1075.89 334.625 1073.55 334.519C1068.47 334.29 1063.63 335.672 1058.69 336.291C1056.83 336.523 1055.2 337.471 1053.77 338.553C1050.81 340.799 1047.4 341.521 1044.02 341.933C1038.92 342.553 1034 344.088 1028.93 344.832C1027.54 345.036 1026.16 345.322 1024.75 345.358C1023.86 345.38 1022.85 345.226 1022.09 345.599C1017.91 347.639 1013.44 348.74 1009.11 350.285C1004.64 351.879 1000.5 354.313 995.857 355.536C992.303 356.471 989.12 358.812 985.443 359.697C984.168 360.005 982.93 360.215 981.646 360.188C977.657 360.106 973.701 360.124 969.857 361.607C968.246 362.228 966.579 361.803 964.963 361.136C963.989 360.735 963.478 360.201 963.462 359.072C963.444 357.787 963.813 356.928 965.473 356.905C966.46 356.884 966.986 356.419 967.835 356.15C972.144 355.67 975.629 353.426 979.2 351.673C990.42 346.162 1001.96 341.637 1014.07 337.831C1014.61 337.76 1014.83 337.633 1015.16 337.309Z" fill="#FF89F0"/>
<path d="M968.082 355.897C967.621 356.95 967.221 357.897 965.905 357.089C966.132 356.031 966.696 355.436 967.855 355.27C968.099 355.396 968.093 355.539 968.082 355.897Z" fill="#EB9DF2"/>
<path d="M1018.27 273.635C1018.44 274.235 1018.29 273.545 1018.27 273.635Z" fill="#FEFFFF"/>
<path d="M1018.41 273.606C1018.52 273.664 1018.43 272.935 1018.53 273.563C1018.39 273.585 1018.41 273.598 1018.41 273.606Z" fill="#FEFFFF"/>
<path d="M1194.69 668.76C1194.76 668.907 1194.65 669.175 1194.37 669.574C1194.31 669.431 1194.41 669.155 1194.69 668.76Z" fill="#6BBFFE"/>
<path d="M1179.61 595.971C1179.5 595.784 1179.64 595.561 1180.03 595.301C1180.06 595.441 1179.92 595.665 1179.61 595.971Z" fill="#FEFFFF"/>
<path d="M1015.11 337.221C1015.12 337.371 1014.94 337.567 1014.56 337.793C1014.55 337.638 1014.74 337.453 1015.11 337.221Z" fill="#EB9DF2"/>
</svg>
